STARTFONT 2.1
COMMENT
COMMENT Converted from OpenType font "Catrinity-Regular.otf" by "otf2bdf 3.0".
COMMENT
FONT -FreeType-Catrinity-Medium-R-Normal--17-120-100-100-P-83-ISO10646-1
SIZE 12 100 100
FONTBOUNDINGBOX 38 22 -10 -7
STARTPROPERTIES 19
FOUNDRY "FreeType"
FAMILY_NAME "Catrinity"
WEIGHT_NAME "Medium"
SLANT "R"
SETWIDTH_NAME "Normal"
ADD_STYLE_NAME ""
PIXEL_SIZE 17
POINT_SIZE 120
RESOLUTION_X 100
RESOLUTION_Y 100
SPACING "P"
AVERAGE_WIDTH 83
CHARSET_REGISTRY "ISO10646"
CHARSET_ENCODING "1"
FONT_ASCENT 14
FONT_DESCENT 6
COPYRIGHT "Typeface © Alexander Lange. 2023. All Rights Reserved"
_OTF_FONTFILE "Catrinity-Regular.otf"
_OTF_PSNAME "Catrinity"
ENDPROPERTIES
CHARS 9984
STARTCHAR 0000
ENCODING 0
SWIDTH 0 0
DWIDTH 0 0
BBX 0 0 0 0
BITMAP
ENDCHAR
STARTCHAR 0008
ENCODING 8
SWIDTH 0 0
DWIDTH 0 0
BBX 0 0 0 0
BITMAP
ENDCHAR
STARTCHAR 0009
ENCODING 9
SWIDTH 240 0
DWIDTH 4 0
BBX 0 0 0 0
BITMAP
ENDCHAR
STARTCHAR 000D
ENCODING 13
SWIDTH 240 0
DWIDTH 4 0
BBX 0 0 0 0
BITMAP
ENDCHAR
STARTCHAR 001D
ENCODING 29
SWIDTH 0 0
DWIDTH 0 0
BBX 0 0 0 0
BITMAP
ENDCHAR
STARTCHAR 0020
ENCODING 32
SWIDTH 240 0
DWIDTH 4 0
BBX 0 0 0 0
BITMAP
ENDCHAR
STARTCHAR 0021
ENCODING 33
SWIDTH 120 0
DWIDTH 2 0
BBX 1 11 1 0
BITMAP
80
80
80
80
80
80
80
80
00
80
80
ENDCHAR
STARTCHAR 0022
ENCODING 34
SWIDTH 240 0
DWIDTH 4 0
BBX 3 4 1 7
BITMAP
A0
A0
A0
A0
ENDCHAR
STARTCHAR 0023
ENCODING 35
SWIDTH 660 0
DWIDTH 11 0
BBX 10 11 1 0
BITMAP
1180
1100
1100
7FC0
3100
3300
2200
FF80
2200
2200
6200
ENDCHAR
STARTCHAR 0024
ENCODING 36
SWIDTH 480 0
DWIDTH 8 0
BBX 6 14 1 -2
BITMAP
30
38
7C
B4
F0
70
38
3C
34
B4
FC
78
30
30
ENDCHAR
STARTCHAR 0025
ENCODING 37
SWIDTH 600 0
DWIDTH 10 0
BBX 9 11 1 0
BITMAP
6180
9300
9200
F600
6C00
0800
1000
3700
2C80
4D80
C700
ENDCHAR
STARTCHAR 0026
ENCODING 38
SWIDTH 540 0
DWIDTH 9 0
BBX 8 11 1 0
BITMAP
38
4C
C0
C4
44
7F
C4
84
84
CC
7E
ENDCHAR
STARTCHAR 0027
ENCODING 39
SWIDTH 120 0
DWIDTH 2 0
BBX 1 4 1 7
BITMAP
80
80
80
80
ENDCHAR
STARTCHAR 0028
ENCODING 40
SWIDTH 240 0
DWIDTH 4 0
BBX 3 14 1 -3
BITMAP
20
40
40
C0
80
80
80
80
80
80
80
C0
40
60
ENDCHAR
STARTCHAR 0029
ENCODING 41
SWIDTH 240 0
DWIDTH 4 0
BBX 3 14 1 -3
BITMAP
80
40
40
60
20
20
20
20
20
20
60
40
40
C0
ENDCHAR
STARTCHAR 002A
ENCODING 42
SWIDTH 420 0
DWIDTH 7 0
BBX 5 6 1 5
BITMAP
20
A8
78
70
A8
20
ENDCHAR
STARTCHAR 002B
ENCODING 43
SWIDTH 480 0
DWIDTH 8 0
BBX 7 7 1 2
BITMAP
10
10
10
FE
10
10
10
ENDCHAR
STARTCHAR 002C
ENCODING 44
SWIDTH 180 0
DWIDTH 3 0
BBX 2 4 1 -3
BITMAP
80
C0
40
40
ENDCHAR
STARTCHAR 002D
ENCODING 45
SWIDTH 300 0
DWIDTH 5 0
BBX 4 1 1 3
BITMAP
F0
ENDCHAR
STARTCHAR 002E
ENCODING 46
SWIDTH 180 0
DWIDTH 3 0
BBX 2 2 1 0
BITMAP
80
C0
ENDCHAR
STARTCHAR 002F
ENCODING 47
SWIDTH 360 0
DWIDTH 6 0
BBX 5 11 1 0
BITMAP
08
18
10
10
20
20
60
40
40
C0
80
ENDCHAR
STARTCHAR 0030
ENCODING 48
SWIDTH 480 0
DWIDTH 8 0
BBX 6 11 1 0
BITMAP
30
48
CC
84
84
84
84
84
C4
48
38
ENDCHAR
STARTCHAR 0031
ENCODING 49
SWIDTH 360 0
DWIDTH 6 0
BBX 5 11 1 0
BITMAP
20
60
E0
20
20
20
20
20
20
20
F8
ENDCHAR
STARTCHAR 0032
ENCODING 50
SWIDTH 420 0
DWIDTH 7 0
BBX 6 11 1 0
BITMAP
70
D8
88
08
08
10
60
40
80
80
FC
ENDCHAR
STARTCHAR 0033
ENCODING 51
SWIDTH 420 0
DWIDTH 7 0
BBX 6 11 1 0
BITMAP
70
D8
88
08
18
18
0C
04
04
CC
78
ENDCHAR
STARTCHAR 0034
ENCODING 52
SWIDTH 540 0
DWIDTH 9 0
BBX 7 11 1 0
BITMAP
0C
1C
14
24
64
44
84
FE
04
04
04
ENDCHAR
STARTCHAR 0035
ENCODING 53
SWIDTH 420 0
DWIDTH 7 0
BBX 6 11 1 0
BITMAP
78
C0
C0
B0
F8
8C
04
04
0C
C8
78
ENDCHAR
STARTCHAR 0036
ENCODING 54
SWIDTH 480 0
DWIDTH 8 0
BBX 6 11 1 0
BITMAP
38
6C
C0
80
80
F8
C4
84
84
4C
78
ENDCHAR
STARTCHAR 0037
ENCODING 55
SWIDTH 480 0
DWIDTH 8 0
BBX 7 11 1 0
BITMAP
FE
04
08
08
10
10
30
20
20
20
20
ENDCHAR
STARTCHAR 0038
ENCODING 56
SWIDTH 480 0
DWIDTH 8 0
BBX 6 11 1 0
BITMAP
38
4C
C4
C4
4C
78
C4
84
84
CC
78
ENDCHAR
STARTCHAR 0039
ENCODING 57
SWIDTH 480 0
DWIDTH 8 0
BBX 6 11 1 0
BITMAP
78
CC
84
84
84
7C
38
08
18
10
10
ENDCHAR
STARTCHAR 003A
ENCODING 58
SWIDTH 180 0
DWIDTH 3 0
BBX 2 8 1 0
BITMAP
80
C0
00
00
00
00
80
C0
ENDCHAR
STARTCHAR 003B
ENCODING 59
SWIDTH 180 0
DWIDTH 3 0
BBX 2 10 1 -3
BITMAP
80
C0
00
00
00
00
80
C0
40
40
ENDCHAR
STARTCHAR 003C
ENCODING 60
SWIDTH 480 0
DWIDTH 8 0
BBX 7 6 1 3
BITMAP
0E
78
C0
F0
1E
02
ENDCHAR
STARTCHAR 003D
ENCODING 61
SWIDTH 480 0
DWIDTH 8 0
BBX 7 4 1 3
BITMAP
FE
00
FE
FE
ENDCHAR
STARTCHAR 003E
ENCODING 62
SWIDTH 480 0
DWIDTH 8 0
BBX 7 6 1 3
BITMAP
E0
3C
06
1E
F0
80
ENDCHAR
STARTCHAR 003F
ENCODING 63
SWIDTH 420 0
DWIDTH 7 0
BBX 5 11 1 0
BITMAP
70
D8
88
08
08
18
30
20
00
20
30
ENDCHAR
STARTCHAR 0040
ENCODING 64
SWIDTH 900 0
DWIDTH 15 0
BBX 14 14 1 -4
BITMAP
03C0
0E70
1818
3188
27EC
4C6C
484C
C848
C8C8
C8C8
CF90
40E0
6000
3F00
ENDCHAR
STARTCHAR 0041
ENCODING 65
SWIDTH 600 0
DWIDTH 10 0
BBX 9 11 1 0
BITMAP
0800
1800
1400
1400
2600
2200
7E00
4300
4100
C100
8180
ENDCHAR
STARTCHAR 0042
ENCODING 66
SWIDTH 480 0
DWIDTH 8 0
BBX 7 11 1 0
BITMAP
F8
8C
84
84
8C
FC
84
86
86
8C
F8
ENDCHAR
STARTCHAR 0043
ENCODING 67
SWIDTH 540 0
DWIDTH 9 0
BBX 8 11 1 0
BITMAP
1C
66
41
80
80
80
80
80
C1
62
3C
ENDCHAR
STARTCHAR 0044
ENCODING 68
SWIDTH 600 0
DWIDTH 10 0
BBX 9 11 1 0
BITMAP
FC00
4E00
4300
4100
4180
4080
4180
4180
4100
4600
FC00
ENDCHAR
STARTCHAR 0045
ENCODING 69
SWIDTH 480 0
DWIDTH 8 0
BBX 7 11 1 0
BITMAP
FE
80
80
80
80
FC
80
80
80
80
FE
ENDCHAR
STARTCHAR 0046
ENCODING 70
SWIDTH 480 0
DWIDTH 8 0
BBX 7 11 1 0
BITMAP
FE
80
80
80
80
FC
80
80
80
80
80
ENDCHAR
STARTCHAR 0047
ENCODING 71
SWIDTH 540 0
DWIDTH 9 0
BBX 8 11 1 0
BITMAP
1C
66
41
80
80
8F
8F
81
C1
62
3C
ENDCHAR
STARTCHAR 0048
ENCODING 72
SWIDTH 480 0
DWIDTH 8 0
BBX 7 11 1 0
BITMAP
86
86
86
86
86
FE
86
86
86
86
86
ENDCHAR
STARTCHAR 0049
ENCODING 73
SWIDTH 300 0
DWIDTH 5 0
BBX 3 11 1 0
BITMAP
E0
40
40
40
40
40
40
40
40
40
E0
ENDCHAR
STARTCHAR 004A
ENCODING 74
SWIDTH 360 0
DWIDTH 6 0
BBX 4 11 1 0
BITMAP
10
10
10
10
10
10
10
10
10
90
F0
ENDCHAR
STARTCHAR 004B
ENCODING 75
SWIDTH 540 0
DWIDTH 9 0
BBX 7 11 1 0
BITMAP
84
8C
98
90
A0
E0
D0
98
88
84
86
ENDCHAR
STARTCHAR 004C
ENCODING 76
SWIDTH 480 0
DWIDTH 8 0
BBX 7 11 1 0
BITMAP
80
80
80
80
80
80
80
80
80
80
FE
ENDCHAR
STARTCHAR 004D
ENCODING 77
SWIDTH 600 0
DWIDTH 10 0
BBX 9 11 1 0
BITMAP
8080
C180
C180
C380
E280
A280
A680
B480
9480
9C80
8880
ENDCHAR
STARTCHAR 004E
ENCODING 78
SWIDTH 600 0
DWIDTH 10 0
BBX 8 11 1 0
BITMAP
81
C1
E1
A1
91
99
89
85
87
83
81
ENDCHAR
STARTCHAR 004F
ENCODING 79
SWIDTH 600 0
DWIDTH 10 0
BBX 9 11 1 0
BITMAP
1C00
6600
4100
8100
8180
8080
8180
8180
C100
6200
3C00
ENDCHAR
STARTCHAR 0050
ENCODING 80
SWIDTH 480 0
DWIDTH 8 0
BBX 6 11 1 0
BITMAP
F0
9C
84
84
84
F8
80
80
80
80
80
ENDCHAR
STARTCHAR 0051
ENCODING 81
SWIDTH 600 0
DWIDTH 10 0
BBX 10 12 1 -1
BITMAP
1C00
6600
4100
8100
8180
8080
8180
9980
D500
6200
3E00
01C0
ENDCHAR
STARTCHAR 0052
ENCODING 82
SWIDTH 480 0
DWIDTH 8 0
BBX 7 11 1 0
BITMAP
F0
9C
84
84
84
F8
98
88
8C
84
86
ENDCHAR
STARTCHAR 0053
ENCODING 83
SWIDTH 480 0
DWIDTH 8 0
BBX 6 11 1 0
BITMAP
38
4C
84
C0
60
38
0C
04
84
CC
78
ENDCHAR
STARTCHAR 0054
ENCODING 84
SWIDTH 480 0
DWIDTH 8 0
BBX 7 11 1 0
BITMAP
FE
10
10
10
10
10
10
10
10
10
10
ENDCHAR
STARTCHAR 0055
ENCODING 85
SWIDTH 540 0
DWIDTH 9 0
BBX 8 11 1 0
BITMAP
81
81
81
81
81
81
81
81
83
46
3C
ENDCHAR
STARTCHAR 0056
ENCODING 86
SWIDTH 600 0
DWIDTH 10 0
BBX 9 11 1 0
BITMAP
8080
C100
4100
4300
6200
2200
2600
3400
1400
1C00
0800
ENDCHAR
STARTCHAR 0057
ENCODING 87
SWIDTH 840 0
DWIDTH 14 0
BBX 13 11 1 0
BITMAP
8218
8610
C610
4730
4D20
4920
69A0
28E0
38C0
30C0
10C0
ENDCHAR
STARTCHAR 0058
ENCODING 88
SWIDTH 600 0
DWIDTH 10 0
BBX 9 11 1 0
BITMAP
8180
4300
6200
3600
1C00
1800
1C00
3400
2200
4300
C100
ENDCHAR
STARTCHAR 0059
ENCODING 89
SWIDTH 600 0
DWIDTH 10 0
BBX 9 11 1 0
BITMAP
8180
4300
6200
3600
1C00
1800
0800
0800
0800
0800
0800
ENDCHAR
STARTCHAR 005A
ENCODING 90
SWIDTH 480 0
DWIDTH 8 0
BBX 7 11 1 0
BITMAP
FE
02
04
0C
08
10
30
60
40
80
FE
ENDCHAR
STARTCHAR 005B
ENCODING 91
SWIDTH 240 0
DWIDTH 4 0
BBX 3 14 1 -3
BITMAP
E0
80
80
80
80
80
80
80
80
80
80
80
80
E0
ENDCHAR
STARTCHAR 005C
ENCODING 92
SWIDTH 360 0
DWIDTH 6 0
BBX 5 11 1 0
BITMAP
80
C0
40
40
60
20
20
30
10
10
08
ENDCHAR
STARTCHAR 005D
ENCODING 93
SWIDTH 240 0
DWIDTH 4 0
BBX 3 14 1 -3
BITMAP
E0
20
20
20
20
20
20
20
20
20
20
20
20
E0
ENDCHAR
STARTCHAR 005E
ENCODING 94
SWIDTH 300 0
DWIDTH 5 0
BBX 3 4 1 7
BITMAP
40
60
A0
A0
ENDCHAR
STARTCHAR 005F
ENCODING 95
SWIDTH 480 0
DWIDTH 8 0
BBX 7 1 1 -1
BITMAP
FE
ENDCHAR
STARTCHAR 0060
ENCODING 96
SWIDTH 240 0
DWIDTH 4 0
BBX 3 3 1 8
BITMAP
C0
40
20
ENDCHAR
STARTCHAR 0061
ENCODING 97
SWIDTH 360 0
DWIDTH 6 0
BBX 5 8 1 0
BITMAP
20
78
08
28
F8
88
98
78
ENDCHAR
STARTCHAR 0062
ENCODING 98
SWIDTH 480 0
DWIDTH 8 0
BBX 6 11 1 0
BITMAP
80
80
80
B0
F8
C4
84
84
84
CC
F8
ENDCHAR
STARTCHAR 0063
ENCODING 99
SWIDTH 420 0
DWIDTH 7 0
BBX 6 8 1 0
BITMAP
30
78
C4
80
80
80
CC
78
ENDCHAR
STARTCHAR 0064
ENCODING 100
SWIDTH 480 0
DWIDTH 8 0
BBX 6 11 1 0
BITMAP
04
04
04
34
7C
C4
84
84
84
CC
7C
ENDCHAR
STARTCHAR 0065
ENCODING 101
SWIDTH 480 0
DWIDTH 8 0
BBX 6 8 1 0
BITMAP
30
78
C4
FC
80
80
CC
78
ENDCHAR
STARTCHAR 0066
ENCODING 102
SWIDTH 300 0
DWIDTH 5 0
BBX 5 11 1 0
BITMAP
38
60
60
60
F0
60
60
60
60
60
60
ENDCHAR
STARTCHAR 0067
ENCODING 103
SWIDTH 480 0
DWIDTH 8 0
BBX 7 11 1 -3
BITMAP
32
FE
84
84
CC
F8
80
78
04
84
FC
ENDCHAR
STARTCHAR 0068
ENCODING 104
SWIDTH 480 0
DWIDTH 8 0
BBX 6 11 1 0
BITMAP
80
80
80
B0
FC
C4
84
84
84
84
84
ENDCHAR
STARTCHAR 0069
ENCODING 105
SWIDTH 120 0
DWIDTH 2 0
BBX 1 10 1 0
BITMAP
80
00
00
80
80
80
80
80
80
80
ENDCHAR
STARTCHAR 006A
ENCODING 106
SWIDTH 120 0
DWIDTH 2 0
BBX 3 13 -1 -3
BITMAP
20
00
00
20
20
20
20
20
20
20
20
20
E0
ENDCHAR
STARTCHAR 006B
ENCODING 107
SWIDTH 420 0
DWIDTH 7 0
BBX 5 11 1 0
BITMAP
80
80
80
80
90
A0
E0
E0
B0
90
88
ENDCHAR
STARTCHAR 006C
ENCODING 108
SWIDTH 240 0
DWIDTH 4 0
BBX 2 11 1 0
BITMAP
80
80
80
80
80
80
80
80
80
80
C0
ENDCHAR
STARTCHAR 006D
ENCODING 109
SWIDTH 600 0
DWIDTH 10 0
BBX 8 8 1 0
BITMAP
26
FF
99
99
99
99
99
99
ENDCHAR
STARTCHAR 006E
ENCODING 110
SWIDTH 480 0
DWIDTH 8 0
BBX 6 8 1 0
BITMAP
30
FC
C4
84
84
84
84
84
ENDCHAR
STARTCHAR 006F
ENCODING 111
SWIDTH 480 0
DWIDTH 8 0
BBX 6 8 1 0
BITMAP
30
78
C4
84
84
84
CC
78
ENDCHAR
STARTCHAR 0070
ENCODING 112
SWIDTH 480 0
DWIDTH 8 0
BBX 6 11 1 -4
BITMAP
30
F8
C4
84
84
84
CC
F8
80
80
80
ENDCHAR
STARTCHAR 0071
ENCODING 113
SWIDTH 480 0
DWIDTH 8 0
BBX 6 11 1 -4
BITMAP
30
7C
C4
84
84
84
CC
7C
04
04
04
ENDCHAR
STARTCHAR 0072
ENCODING 114
SWIDTH 300 0
DWIDTH 5 0
BBX 4 8 1 0
BITMAP
30
F0
C0
80
80
80
80
80
ENDCHAR
STARTCHAR 0073
ENCODING 115
SWIDTH 360 0
DWIDTH 6 0
BBX 5 8 1 0
BITMAP
60
F0
80
E0
30
18
98
70
ENDCHAR
STARTCHAR 0074
ENCODING 116
SWIDTH 300 0
DWIDTH 5 0
BBX 4 10 1 0
BITMAP
20
60
60
F0
60
60
60
60
60
70
ENDCHAR
STARTCHAR 0075
ENCODING 117
SWIDTH 480 0
DWIDTH 8 0
BBX 6 7 1 0
BITMAP
84
84
84
84
84
CC
7C
ENDCHAR
STARTCHAR 0076
ENCODING 118
SWIDTH 480 0
DWIDTH 8 0
BBX 6 7 1 0
BITMAP
84
44
48
68
38
30
30
ENDCHAR
STARTCHAR 0077
ENCODING 119
SWIDTH 600 0
DWIDTH 10 0
BBX 9 7 1 0
BITMAP
8880
DD80
5500
5500
7500
6700
2200
ENDCHAR
STARTCHAR 0078
ENCODING 120
SWIDTH 480 0
DWIDTH 8 0
BBX 6 7 1 0
BITMAP
CC
68
30
30
38
4C
C4
ENDCHAR
STARTCHAR 0079
ENCODING 121
SWIDTH 480 0
DWIDTH 8 0
BBX 6 10 1 -3
BITMAP
84
44
48
68
38
30
30
30
20
60
ENDCHAR
STARTCHAR 007A
ENCODING 122
SWIDTH 360 0
DWIDTH 6 0
BBX 5 7 1 0
BITMAP
F8
10
30
60
40
80
F8
ENDCHAR
STARTCHAR 007B
ENCODING 123
SWIDTH 240 0
DWIDTH 4 0
BBX 3 14 1 -3
BITMAP
20
60
40
40
40
40
C0
C0
40
40
40
40
40
60
ENDCHAR
STARTCHAR 007C
ENCODING 124
SWIDTH 120 0
DWIDTH 2 0
BBX 1 14 1 -3
BITMAP
80
80
80
80
80
80
80
80
80
80
80
80
80
80
ENDCHAR
STARTCHAR 007D
ENCODING 125
SWIDTH 240 0
DWIDTH 4 0
BBX 3 14 1 -3
BITMAP
80
C0
40
40
40
40
60
60
40
40
40
40
40
C0
ENDCHAR
STARTCHAR 007E
ENCODING 126
SWIDTH 540 0
DWIDTH 9 0
BBX 8 3 1 4
BITMAP
60
FB
0E
ENDCHAR
STARTCHAR 00A0
ENCODING 160
SWIDTH 240 0
DWIDTH 4 0
BBX 0 0 0 0
BITMAP
ENDCHAR
STARTCHAR 00A1
ENCODING 161
SWIDTH 120 0
DWIDTH 2 0
BBX 1 11 1 -3
BITMAP
80
80
00
00
80
80
80
80
80
80
80
ENDCHAR
STARTCHAR 00A2
ENCODING 162
SWIDTH 420 0
DWIDTH 7 0
BBX 6 11 1 -2
BITMAP
08
38
78
D4
B0
A0
A0
EC
78
40
C0
ENDCHAR
STARTCHAR 00A3
ENCODING 163
SWIDTH 480 0
DWIDTH 8 0
BBX 7 11 1 0
BITMAP
38
64
40
40
40
F8
60
60
40
40
FE
ENDCHAR
STARTCHAR 00A4
ENCODING 164
SWIDTH 480 0
DWIDTH 8 0
BBX 7 7 1 2
BITMAP
82
FC
44
44
44
7C
86
ENDCHAR
STARTCHAR 00A5
ENCODING 165
SWIDTH 600 0
DWIDTH 10 0
BBX 9 11 1 0
BITMAP
8180
4300
6200
3600
1C00
7F00
0800
7F00
7F00
0800
0800
ENDCHAR
STARTCHAR 00A6
ENCODING 166
SWIDTH 120 0
DWIDTH 2 0
BBX 1 14 1 -3
BITMAP
80
80
80
80
80
80
00
00
00
80
80
80
80
80
ENDCHAR
STARTCHAR 00A7
ENCODING 167
SWIDTH 480 0
DWIDTH 8 0
BBX 6 14 1 -3
BITMAP
38
4C
84
C0
E0
B8
8C
C4
64
3C
0C
04
CC
78
ENDCHAR
STARTCHAR 00A8
ENCODING 168
SWIDTH 360 0
DWIDTH 6 0
BBX 4 1 1 9
BITMAP
D0
ENDCHAR
STARTCHAR 00A9
ENCODING 169
SWIDTH 720 0
DWIDTH 12 0
BBX 11 11 1 0
BITMAP
1E00
3180
40C0
CE40
9A20
9020
9A20
8E60
4040
6180
1F00
ENDCHAR
STARTCHAR 00AA
ENCODING 170
SWIDTH 240 0
DWIDTH 4 0
BBX 3 5 1 6
BITMAP
60
E0
A0
60
E0
ENDCHAR
STARTCHAR 00AB
ENCODING 171
SWIDTH 360 0
DWIDTH 6 0
BBX 5 5 1 2
BITMAP
78
50
A0
50
28
ENDCHAR
STARTCHAR 00AC
ENCODING 172
SWIDTH 480 0
DWIDTH 8 0
BBX 7 4 1 2
BITMAP
FE
02
02
02
ENDCHAR
STARTCHAR 00AD
ENCODING 173
SWIDTH 300 0
DWIDTH 5 0
BBX 4 1 1 3
BITMAP
F0
ENDCHAR
STARTCHAR 00AE
ENCODING 174
SWIDTH 720 0
DWIDTH 12 0
BBX 11 11 1 0
BITMAP
1E00
3180
40C0
CE40
8A20
8E20
8E20
8A60
4040
6180
1F00
ENDCHAR
STARTCHAR 00AF
ENCODING 175
SWIDTH 300 0
DWIDTH 5 0
BBX 4 1 1 9
BITMAP
F0
ENDCHAR
STARTCHAR 00B0
ENCODING 176
SWIDTH 360 0
DWIDTH 6 0
BBX 4 5 1 6
BITMAP
60
90
90
F0
60
ENDCHAR
STARTCHAR 00B1
ENCODING 177
SWIDTH 480 0
DWIDTH 8 0
BBX 7 9 1 1
BITMAP
10
10
10
FE
10
10
10
00
FE
ENDCHAR
STARTCHAR 00B2
ENCODING 178
SWIDTH 240 0
DWIDTH 4 0
BBX 3 6 1 7
BITMAP
E0
A0
60
C0
80
E0
ENDCHAR
STARTCHAR 00B3
ENCODING 179
SWIDTH 240 0
DWIDTH 4 0
BBX 3 6 1 7
BITMAP
E0
A0
60
20
A0
40
ENDCHAR
STARTCHAR 00B4
ENCODING 180
SWIDTH 240 0
DWIDTH 4 0
BBX 2 2 1 8
BITMAP
40
80
ENDCHAR
STARTCHAR 00B5
ENCODING 181
SWIDTH 480 0
DWIDTH 8 0
BBX 6 10 1 -4
BITMAP
84
84
84
84
84
CC
FC
80
80
80
ENDCHAR
STARTCHAR 00B6
ENCODING 182
SWIDTH 480 0
DWIDTH 8 0
BBX 6 14 1 -3
BITMAP
7C
F4
F4
F4
F4
74
14
14
14
14
14
14
14
14
ENDCHAR
STARTCHAR 00B7
ENCODING 183
SWIDTH 180 0
DWIDTH 3 0
BBX 2 1 1 4
BITMAP
C0
ENDCHAR
STARTCHAR 00B8
ENCODING 184
SWIDTH 240 0
DWIDTH 4 0
BBX 3 3 1 -3
BITMAP
40
20
E0
ENDCHAR
STARTCHAR 00B9
ENCODING 185
SWIDTH 240 0
DWIDTH 4 0
BBX 3 6 1 7
BITMAP
40
C0
40
40
40
E0
ENDCHAR
STARTCHAR 00BA
ENCODING 186
SWIDTH 300 0
DWIDTH 5 0
BBX 4 5 1 6
BITMAP
E0
90
A0
60
F0
ENDCHAR
STARTCHAR 00BB
ENCODING 187
SWIDTH 360 0
DWIDTH 6 0
BBX 5 5 1 2
BITMAP
A0
50
28
50
A0
ENDCHAR
STARTCHAR 00BC
ENCODING 188
SWIDTH 480 0
DWIDTH 8 0
BBX 6 13 1 -1
BITMAP
30
10
10
10
10
20
FC
00
10
30
50
78
10
ENDCHAR
STARTCHAR 00BD
ENCODING 189
SWIDTH 480 0
DWIDTH 8 0
BBX 6 14 1 -2
BITMAP
30
10
10
10
10
20
FC
00
30
08
10
20
40
38
ENDCHAR
STARTCHAR 00BE
ENCODING 190
SWIDTH 480 0
DWIDTH 8 0
BBX 6 13 1 -1
BITMAP
30
08
10
08
38
00
FC
00
10
30
50
78
10
ENDCHAR
STARTCHAR 00BF
ENCODING 191
SWIDTH 420 0
DWIDTH 7 0
BBX 5 11 1 -3
BITMAP
20
30
00
20
20
60
C0
80
80
88
78
ENDCHAR
STARTCHAR 00C0
ENCODING 192
SWIDTH 600 0
DWIDTH 10 0
BBX 9 14 1 0
BITMAP
1000
0800
0000
0800
1800
1400
1400
2600
2200
7E00
4300
4100
C100
8180
ENDCHAR
STARTCHAR 00C1
ENCODING 193
SWIDTH 600 0
DWIDTH 10 0
BBX 9 14 1 0
BITMAP
0C00
0800
0000
0800
1800
1400
1400
2600
2200
7E00
4300
4100
C100
8180
ENDCHAR
STARTCHAR 00C2
ENCODING 194
SWIDTH 600 0
DWIDTH 10 0
BBX 9 14 1 0
BITMAP
1800
1400
0000
0800
1800
1400
1400
2600
2200
7E00
4300
4100
C100
8180
ENDCHAR
STARTCHAR 00C3
ENCODING 195
SWIDTH 600 0
DWIDTH 10 0
BBX 9 14 1 0
BITMAP
3000
4E00
0000
0800
1800
1400
1400
2600
2200
7E00
4300
4100
C100
8180
ENDCHAR
STARTCHAR 00C4
ENCODING 196
SWIDTH 600 0
DWIDTH 10 0
BBX 9 14 1 0
BITMAP
3400
3600
0000
0800
1800
1400
1400
2600
2200
7E00
4300
4100
C100
8180
ENDCHAR
STARTCHAR 00C5
ENCODING 197
SWIDTH 600 0
DWIDTH 10 0
BBX 9 14 1 0
BITMAP
1C00
1400
0800
0800
1800
1400
1400
2600
2200
7E00
4300
4100
C100
8180
ENDCHAR
STARTCHAR 00C6
ENCODING 198
SWIDTH 720 0
DWIDTH 12 0
BBX 10 11 1 0
BITMAP
0FC0
1C00
1400
1400
2400
3F80
6400
4400
4400
C400
87C0
ENDCHAR
STARTCHAR 00C7
ENCODING 199
SWIDTH 540 0
DWIDTH 9 0
BBX 8 14 1 -3
BITMAP
1C
66
41
80
80
80
80
80
C1
62
3C
08
04
1C
ENDCHAR
STARTCHAR 00C8
ENCODING 200
SWIDTH 480 0
DWIDTH 8 0
BBX 7 14 1 0
BITMAP
20
10
00
FE
80
80
80
80
FC
80
80
80
80
FE
ENDCHAR
STARTCHAR 00C9
ENCODING 201
SWIDTH 480 0
DWIDTH 8 0
BBX 7 14 1 0
BITMAP
18
10
00
FE
80
80
80
80
FC
80
80
80
80
FE
ENDCHAR
STARTCHAR 00CA
ENCODING 202
SWIDTH 480 0
DWIDTH 8 0
BBX 7 14 1 0
BITMAP
30
28
00
FE
80
80
80
80
FC
80
80
80
80
FE
ENDCHAR
STARTCHAR 00CB
ENCODING 203
SWIDTH 480 0
DWIDTH 8 0
BBX 7 14 1 0
BITMAP
48
68
00
FE
80
80
80
80
FC
80
80
80
80
FE
ENDCHAR
STARTCHAR 00CC
ENCODING 204
SWIDTH 300 0
DWIDTH 5 0
BBX 3 14 1 0
BITMAP
80
40
00
E0
40
40
40
40
40
40
40
40
40
E0
ENDCHAR
STARTCHAR 00CD
ENCODING 205
SWIDTH 300 0
DWIDTH 5 0
BBX 3 14 1 0
BITMAP
20
40
00
E0
40
40
40
40
40
40
40
40
40
E0
ENDCHAR
STARTCHAR 00CE
ENCODING 206
SWIDTH 300 0
DWIDTH 5 0
BBX 3 14 1 0
BITMAP
E0
A0
00
E0
40
40
40
40
40
40
40
40
40
E0
ENDCHAR
STARTCHAR 00CF
ENCODING 207
SWIDTH 300 0
DWIDTH 5 0
BBX 5 14 0 0
BITMAP
50
D8
00
70
20
20
20
20
20
20
20
20
20
70
ENDCHAR
STARTCHAR 00D0
ENCODING 208
SWIDTH 600 0
DWIDTH 10 0
BBX 9 11 1 0
BITMAP
FC00
4600
4100
4100
4080
F880
4080
4180
4100
4200
FC00
ENDCHAR
STARTCHAR 00D1
ENCODING 209
SWIDTH 600 0
DWIDTH 10 0
BBX 8 14 1 0
BITMAP
32
4E
00
81
C1
E1
A1
91
99
89
85
87
83
81
ENDCHAR
STARTCHAR 00D2
ENCODING 210
SWIDTH 600 0
DWIDTH 10 0
BBX 9 14 1 0
BITMAP
1000
0800
0000
1C00
6600
4100
8100
8180
8080
8180
8180
C100
6200
3C00
ENDCHAR
STARTCHAR 00D3
ENCODING 211
SWIDTH 600 0
DWIDTH 10 0
BBX 9 14 1 0
BITMAP
0C00
0800
0000
1C00
6600
4100
8100
8180
8080
8180
8180
C100
6200
3C00
ENDCHAR
STARTCHAR 00D4
ENCODING 212
SWIDTH 600 0
DWIDTH 10 0
BBX 9 14 1 0
BITMAP
1800
1400
0000
1C00
6600
4100
8100
8180
8080
8180
8180
C100
6200
3C00
ENDCHAR
STARTCHAR 00D5
ENCODING 213
SWIDTH 600 0
DWIDTH 10 0
BBX 9 14 1 0
BITMAP
3200
4E00
0000
1C00
6600
4100
8100
8180
8080
8180
8180
C100
6200
3C00
ENDCHAR
STARTCHAR 00D6
ENCODING 214
SWIDTH 600 0
DWIDTH 10 0
BBX 9 14 1 0
BITMAP
2400
3600
0000
1C00
6600
4100
8100
8180
8080
8180
8180
C100
6200
3C00
ENDCHAR
STARTCHAR 00D7
ENCODING 215
SWIDTH 480 0
DWIDTH 8 0
BBX 6 6 1 2
BITMAP
C4
68
30
38
4C
04
ENDCHAR
STARTCHAR 00D8
ENCODING 216
SWIDTH 600 0
DWIDTH 10 0
BBX 9 12 1 -1
BITMAP
1D80
6700
4300
8700
8D80
8880
9180
B180
E100
6200
FC00
8000
ENDCHAR
STARTCHAR 00D9
ENCODING 217
SWIDTH 540 0
DWIDTH 9 0
BBX 8 14 1 0
BITMAP
30
10
00
81
81
81
81
81
81
81
81
83
46
3C
ENDCHAR
STARTCHAR 00DA
ENCODING 218
SWIDTH 540 0
DWIDTH 9 0
BBX 8 14 1 0
BITMAP
08
10
00
81
81
81
81
81
81
81
81
83
46
3C
ENDCHAR
STARTCHAR 00DB
ENCODING 219
SWIDTH 540 0
DWIDTH 9 0
BBX 8 14 1 0
BITMAP
18
28
00
81
81
81
81
81
81
81
81
83
46
3C
ENDCHAR
STARTCHAR 00DC
ENCODING 220
SWIDTH 540 0
DWIDTH 9 0
BBX 8 14 1 0
BITMAP
24
2C
00
81
81
81
81
81
81
81
81
83
46
3C
ENDCHAR
STARTCHAR 00DD
ENCODING 221
SWIDTH 600 0
DWIDTH 10 0
BBX 9 14 1 0
BITMAP
0C00
0800
0000
8180
4300
6200
3600
1C00
1800
0800
0800
0800
0800
0800
ENDCHAR
STARTCHAR 00DE
ENCODING 222
SWIDTH 480 0
DWIDTH 8 0
BBX 6 11 1 0
BITMAP
80
80
80
F8
84
84
84
FC
80
80
80
ENDCHAR
STARTCHAR 00DF
ENCODING 223
SWIDTH 480 0
DWIDTH 8 0
BBX 6 14 1 -4
BITMAP
70
C8
8C
8C
88
98
84
84
84
8C
B8
80
80
80
ENDCHAR
STARTCHAR 00E0
ENCODING 224
SWIDTH 360 0
DWIDTH 6 0
BBX 5 11 1 0
BITMAP
40
20
00
20
78
08
28
F8
88
98
78
ENDCHAR
STARTCHAR 00E1
ENCODING 225
SWIDTH 360 0
DWIDTH 6 0
BBX 5 11 1 0
BITMAP
10
20
00
20
78
08
28
F8
88
98
78
ENDCHAR
STARTCHAR 00E2
ENCODING 226
SWIDTH 360 0
DWIDTH 6 0
BBX 5 11 1 0
BITMAP
60
50
80
20
78
08
28
F8
88
98
78
ENDCHAR
STARTCHAR 00E3
ENCODING 227
SWIDTH 360 0
DWIDTH 6 0
BBX 5 10 1 1
BITMAP
F8
00
20
78
08
28
F8
88
98
78
ENDCHAR
STARTCHAR 00E4
ENCODING 228
SWIDTH 360 0
DWIDTH 6 0
BBX 5 10 1 0
BITMAP
D8
00
20
78
08
28
F8
88
98
78
ENDCHAR
STARTCHAR 00E5
ENCODING 229
SWIDTH 360 0
DWIDTH 6 0
BBX 5 11 1 0
BITMAP
30
50
30
20
78
08
28
F8
88
98
78
ENDCHAR
STARTCHAR 00E6
ENCODING 230
SWIDTH 720 0
DWIDTH 12 0
BBX 10 8 1 0
BITMAP
2300
7F80
0840
2FC0
F800
8800
9CC0
7780
ENDCHAR
STARTCHAR 00E7
ENCODING 231
SWIDTH 420 0
DWIDTH 7 0
BBX 6 11 1 -3
BITMAP
30
78
C4
80
80
80
CC
78
30
08
38
ENDCHAR
STARTCHAR 00E8
ENCODING 232
SWIDTH 480 0
DWIDTH 8 0
BBX 6 11 1 0
BITMAP
60
20
10
30
78
C4
FC
80
80
CC
78
ENDCHAR
STARTCHAR 00E9
ENCODING 233
SWIDTH 480 0
DWIDTH 8 0
BBX 6 11 1 0
BITMAP
18
10
20
30
78
C4
FC
80
80
CC
78
ENDCHAR
STARTCHAR 00EA
ENCODING 234
SWIDTH 480 0
DWIDTH 8 0
BBX 6 11 1 0
BITMAP
30
28
40
30
78
C4
FC
80
80
CC
78
ENDCHAR
STARTCHAR 00EB
ENCODING 235
SWIDTH 480 0
DWIDTH 8 0
BBX 6 10 1 0
BITMAP
68
00
30
78
C4
FC
80
80
CC
78
ENDCHAR
STARTCHAR 00EC
ENCODING 236
SWIDTH 120 0
DWIDTH 2 0
BBX 2 11 0 0
BITMAP
80
40
00
00
40
40
40
40
40
40
40
ENDCHAR
STARTCHAR 00ED
ENCODING 237
SWIDTH 120 0
DWIDTH 2 0
BBX 2 11 1 0
BITMAP
40
80
00
00
80
80
80
80
80
80
80
ENDCHAR
STARTCHAR 00EE
ENCODING 238
SWIDTH 120 0
DWIDTH 2 0
BBX 4 11 -1 0
BITMAP
60
50
80
00
20
20
20
20
20
20
20
ENDCHAR
STARTCHAR 00EF
ENCODING 239
SWIDTH 120 0
DWIDTH 2 0
BBX 5 10 -1 0
BITMAP
D8
00
00
20
20
20
20
20
20
20
ENDCHAR
STARTCHAR 00F0
ENCODING 240
SWIDTH 480 0
DWIDTH 8 0
BBX 7 11 1 0
BITMAP
7A
0C
1C
34
7E
C6
86
84
84
CC
78
ENDCHAR
STARTCHAR 00F1
ENCODING 241
SWIDTH 480 0
DWIDTH 8 0
BBX 6 11 1 0
BITMAP
44
B4
08
30
FC
C4
84
84
84
84
84
ENDCHAR
STARTCHAR 00F2
ENCODING 242
SWIDTH 480 0
DWIDTH 8 0
BBX 6 11 1 0
BITMAP
60
20
10
30
78
C4
84
84
84
CC
78
ENDCHAR
STARTCHAR 00F3
ENCODING 243
SWIDTH 480 0
DWIDTH 8 0
BBX 6 11 1 0
BITMAP
18
10
20
30
78
C4
84
84
84
CC
78
ENDCHAR
STARTCHAR 00F4
ENCODING 244
SWIDTH 480 0
DWIDTH 8 0
BBX 6 11 1 0
BITMAP
30
28
40
30
78
C4
84
84
84
CC
78
ENDCHAR
STARTCHAR 00F5
ENCODING 245
SWIDTH 480 0
DWIDTH 8 0
BBX 6 11 1 0
BITMAP
44
B4
08
30
78
C4
84
84
84
CC
78
ENDCHAR
STARTCHAR 00F6
ENCODING 246
SWIDTH 480 0
DWIDTH 8 0
BBX 6 10 1 0
BITMAP
68
00
30
78
C4
84
84
84
CC
78
ENDCHAR
STARTCHAR 00F7
ENCODING 247
SWIDTH 480 0
DWIDTH 8 0
BBX 7 7 1 2
BITMAP
10
10
00
FE
00
10
10
ENDCHAR
STARTCHAR 00F8
ENCODING 248
SWIDTH 480 0
DWIDTH 8 0
BBX 6 9 1 0
BITMAP
34
7C
CC
94
B4
E4
CC
F8
80
ENDCHAR
STARTCHAR 00F9
ENCODING 249
SWIDTH 480 0
DWIDTH 8 0
BBX 6 11 1 0
BITMAP
60
20
10
00
84
84
84
84
84
CC
7C
ENDCHAR
STARTCHAR 00FA
ENCODING 250
SWIDTH 480 0
DWIDTH 8 0
BBX 6 11 1 0
BITMAP
18
10
20
00
84
84
84
84
84
CC
7C
ENDCHAR
STARTCHAR 00FB
ENCODING 251
SWIDTH 480 0
DWIDTH 8 0
BBX 6 11 1 0
BITMAP
30
28
40
00
84
84
84
84
84
CC
7C
ENDCHAR
STARTCHAR 00FC
ENCODING 252
SWIDTH 480 0
DWIDTH 8 0
BBX 6 10 1 0
BITMAP
68
00
00
84
84
84
84
84
CC
7C
ENDCHAR
STARTCHAR 00FD
ENCODING 253
SWIDTH 480 0
DWIDTH 8 0
BBX 6 14 1 -3
BITMAP
18
10
20
00
84
44
48
68
38
30
30
30
20
60
ENDCHAR
STARTCHAR 00FE
ENCODING 254
SWIDTH 480 0
DWIDTH 8 0
BBX 6 14 1 -4
BITMAP
80
80
80
B0
F8
C4
84
84
84
CC
F8
80
80
80
ENDCHAR
STARTCHAR 00FF
ENCODING 255
SWIDTH 480 0
DWIDTH 8 0
BBX 6 13 1 -3
BITMAP
6C
00
00
84
44
48
68
38
30
30
30
20
60
ENDCHAR
STARTCHAR 0100
ENCODING 256
SWIDTH 600 0
DWIDTH 10 0
BBX 9 13 1 0
BITMAP
3C00
0000
0800
1800
1400
1400
2600
2200
7E00
4300
4100
C100
8180
ENDCHAR
STARTCHAR 0101
ENCODING 257
SWIDTH 360 0
DWIDTH 6 0
BBX 5 10 1 0
BITMAP
78
00
20
78
08
28
F8
88
98
78
ENDCHAR
STARTCHAR 0102
ENCODING 258
SWIDTH 600 0
DWIDTH 10 0
BBX 9 14 1 0
BITMAP
2200
1C00
0000
0800
1800
1400
1400
2600
2200
7E00
4300
4100
C100
8180
ENDCHAR
STARTCHAR 0103
ENCODING 259
SWIDTH 360 0
DWIDTH 6 0
BBX 5 11 1 0
BITMAP
88
D0
20
20
78
08
28
F8
88
98
78
ENDCHAR
STARTCHAR 0104
ENCODING 260
SWIDTH 600 0
DWIDTH 10 0
BBX 10 14 1 -3
BITMAP
0800
1800
1400
1400
2600
2200
7E00
4300
4100
C100
8180
0100
0100
00C0
ENDCHAR
STARTCHAR 0105
ENCODING 261
SWIDTH 360 0
DWIDTH 6 0
BBX 7 11 1 -3
BITMAP
20
78
08
28
F8
88
98
78
10
18
0E
ENDCHAR
STARTCHAR 0106
ENCODING 262
SWIDTH 540 0
DWIDTH 9 0
BBX 8 14 1 0
BITMAP
08
10
00
1C
66
41
80
80
80
80
80
C1
62
3C
ENDCHAR
STARTCHAR 0107
ENCODING 263
SWIDTH 420 0
DWIDTH 7 0
BBX 6 11 1 0
BITMAP
18
20
00
30
78
C4
80
80
80
CC
78
ENDCHAR
STARTCHAR 0108
ENCODING 264
SWIDTH 540 0
DWIDTH 9 0
BBX 8 14 1 0
BITMAP
18
24
00
1C
66
41
80
80
80
80
80
C1
62
3C
ENDCHAR
STARTCHAR 0109
ENCODING 265
SWIDTH 420 0
DWIDTH 7 0
BBX 6 11 1 0
BITMAP
30
50
08
30
78
C4
80
80
80
CC
78
ENDCHAR
STARTCHAR 010A
ENCODING 266
SWIDTH 540 0
DWIDTH 9 0
BBX 8 14 1 0
BITMAP
10
18
00
1C
66
41
80
80
80
80
80
C1
62
3C
ENDCHAR
STARTCHAR 010B
ENCODING 267
SWIDTH 420 0
DWIDTH 7 0
BBX 6 10 1 0
BITMAP
30
00
30
78
C4
80
80
80
CC
78
ENDCHAR
STARTCHAR 010C
ENCODING 268
SWIDTH 540 0
DWIDTH 9 0
BBX 8 14 1 0
BITMAP
24
18
00
1C
66
41
80
80
80
80
80
C1
62
3C
ENDCHAR
STARTCHAR 010D
ENCODING 269
SWIDTH 420 0
DWIDTH 7 0
BBX 6 11 1 0
BITMAP
08
50
30
30
78
C4
80
80
80
CC
78
ENDCHAR
STARTCHAR 010E
ENCODING 270
SWIDTH 600 0
DWIDTH 10 0
BBX 9 14 1 0
BITMAP
2400
1C00
0000
FC00
4E00
4300
4100
4180
4080
4180
4180
4100
4600
FC00
ENDCHAR
STARTCHAR 010F
ENCODING 271
SWIDTH 600 0
DWIDTH 10 0
BBX 9 11 1 0
BITMAP
0580
0580
0480
3500
7C00
C400
8400
8400
8400
CC00
7C00
ENDCHAR
STARTCHAR 0110
ENCODING 272
SWIDTH 600 0
DWIDTH 10 0
BBX 9 11 1 0
BITMAP
FC00
4600
4100
4100
4080
F880
4080
4180
4100
4200
FC00
ENDCHAR
STARTCHAR 0111
ENCODING 273
SWIDTH 480 0
DWIDTH 8 0
BBX 8 11 1 0
BITMAP
04
1F
1F
34
7C
C4
84
84
84
CC
7C
ENDCHAR
STARTCHAR 0112
ENCODING 274
SWIDTH 480 0
DWIDTH 8 0
BBX 7 13 1 0
BITMAP
78
00
FE
80
80
80
80
FC
80
80
80
80
FE
ENDCHAR
STARTCHAR 0113
ENCODING 275
SWIDTH 480 0
DWIDTH 8 0
BBX 6 10 1 0
BITMAP
78
00
30
78
C4
FC
80
80
CC
78
ENDCHAR
STARTCHAR 0114
ENCODING 276
SWIDTH 480 0
DWIDTH 8 0
BBX 7 14 1 0
BITMAP
48
38
00
FE
80
80
80
80
FC
80
80
80
80
FE
ENDCHAR
STARTCHAR 0115
ENCODING 277
SWIDTH 480 0
DWIDTH 8 0
BBX 6 11 1 0
BITMAP
48
68
10
30
78
C4
FC
80
80
CC
78
ENDCHAR
STARTCHAR 0116
ENCODING 278
SWIDTH 480 0
DWIDTH 8 0
BBX 7 14 1 0
BITMAP
10
30
00
FE
80
80
80
80
FC
80
80
80
80
FE
ENDCHAR
STARTCHAR 0117
ENCODING 279
SWIDTH 480 0
DWIDTH 8 0
BBX 6 10 1 0
BITMAP
30
00
30
78
C4
FC
80
80
CC
78
ENDCHAR
STARTCHAR 0118
ENCODING 280
SWIDTH 480 0
DWIDTH 8 0
BBX 7 14 1 -3
BITMAP
FE
80
80
80
80
FC
80
80
80
80
FE
08
08
06
ENDCHAR
STARTCHAR 0119
ENCODING 281
SWIDTH 480 0
DWIDTH 8 0
BBX 6 11 1 -3
BITMAP
30
78
C4
FC
80
80
CC
78
20
10
1C
ENDCHAR
STARTCHAR 011A
ENCODING 282
SWIDTH 480 0
DWIDTH 8 0
BBX 7 14 1 0
BITMAP
48
38
00
FE
80
80
80
80
FC
80
80
80
80
FE
ENDCHAR
STARTCHAR 011B
ENCODING 283
SWIDTH 480 0
DWIDTH 8 0
BBX 6 11 1 0
BITMAP
40
38
30
30
78
C4
FC
80
80
CC
78
ENDCHAR
STARTCHAR 011C
ENCODING 284
SWIDTH 540 0
DWIDTH 9 0
BBX 8 14 1 0
BITMAP
18
24
00
1C
66
41
80
80
8F
8F
81
C1
62
3C
ENDCHAR
STARTCHAR 011D
ENCODING 285
SWIDTH 480 0
DWIDTH 8 0
BBX 7 14 1 -3
BITMAP
30
30
48
32
FE
84
84
CC
F8
80
78
04
84
FC
ENDCHAR
STARTCHAR 011E
ENCODING 286
SWIDTH 540 0
DWIDTH 9 0
BBX 8 14 1 0
BITMAP
24
3C
00
1C
66
41
80
80
8F
8F
81
C1
62
3C
ENDCHAR
STARTCHAR 011F
ENCODING 287
SWIDTH 480 0
DWIDTH 8 0
BBX 7 14 1 -3
BITMAP
48
78
00
32
FE
84
84
CC
F8
80
78
04
84
FC
ENDCHAR
STARTCHAR 0120
ENCODING 288
SWIDTH 540 0
DWIDTH 9 0
BBX 8 14 1 0
BITMAP
10
18
00
1C
66
41
80
80
8F
8F
81
C1
62
3C
ENDCHAR
STARTCHAR 0121
ENCODING 289
SWIDTH 480 0
DWIDTH 8 0
BBX 7 13 1 -3
BITMAP
30
00
32
FE
84
84
CC
F8
80
78
04
84
FC
ENDCHAR
STARTCHAR 0122
ENCODING 290
SWIDTH 540 0
DWIDTH 9 0
BBX 8 14 1 -3
BITMAP
1C
66
41
80
80
8F
8F
81
C1
62
3C
08
04
1C
ENDCHAR
STARTCHAR 0123
ENCODING 291
SWIDTH 480 0
DWIDTH 8 0
BBX 7 15 1 -3
BITMAP
38
40
20
10
32
FE
84
84
CC
F8
80
78
04
84
FC
ENDCHAR
STARTCHAR 0124
ENCODING 292
SWIDTH 480 0
DWIDTH 8 0
BBX 7 14 1 0
BITMAP
30
28
00
86
86
86
86
86
FE
86
86
86
86
86
ENDCHAR
STARTCHAR 0125
ENCODING 293
SWIDTH 480 0
DWIDTH 8 0
BBX 6 14 1 0
BITMAP
30
48
00
80
80
80
B0
FC
C4
84
84
84
84
84
ENDCHAR
STARTCHAR 0126
ENCODING 294
SWIDTH 600 0
DWIDTH 10 0
BBX 9 11 1 0
BITMAP
4100
4100
FF80
4100
4100
7F00
4100
4100
4100
4100
4100
ENDCHAR
STARTCHAR 0127
ENCODING 295
SWIDTH 540 0
DWIDTH 9 0
BBX 8 11 1 0
BITMAP
40
FE
FE
58
7E
62
42
43
43
43
43
ENDCHAR
STARTCHAR 0128
ENCODING 296
SWIDTH 300 0
DWIDTH 5 0
BBX 5 14 0 0
BITMAP
C0
B8
00
70
20
20
20
20
20
20
20
20
20
70
ENDCHAR
STARTCHAR 0129
ENCODING 297
SWIDTH 120 0
DWIDTH 2 0
BBX 5 10 -1 1
BITMAP
E8
10
00
20
20
20
20
20
20
20
ENDCHAR
STARTCHAR 012A
ENCODING 298
SWIDTH 300 0
DWIDTH 5 0
BBX 4 13 1 0
BITMAP
F0
00
E0
40
40
40
40
40
40
40
40
40
E0
ENDCHAR
STARTCHAR 012B
ENCODING 299
SWIDTH 120 0
DWIDTH 2 0
BBX 4 10 -1 0
BITMAP
F0
00
00
20
20
20
20
20
20
20
ENDCHAR
STARTCHAR 012C
ENCODING 300
SWIDTH 300 0
DWIDTH 5 0
BBX 5 14 0 0
BITMAP
88
70
00
70
20
20
20
20
20
20
20
20
20
70
ENDCHAR
STARTCHAR 012D
ENCODING 301
SWIDTH 120 0
DWIDTH 2 0
BBX 5 11 -1 0
BITMAP
88
50
20
00
20
20
20
20
20
20
20
ENDCHAR
STARTCHAR 012E
ENCODING 302
SWIDTH 300 0
DWIDTH 5 0
BBX 4 14 1 -3
BITMAP
E0
40
40
40
40
40
40
40
40
40
E0
40
40
30
ENDCHAR
STARTCHAR 012F
ENCODING 303
SWIDTH 120 0
DWIDTH 2 0
BBX 3 13 1 -3
BITMAP
80
00
00
80
80
80
80
80
80
80
80
80
E0
ENDCHAR
STARTCHAR 0130
ENCODING 304
SWIDTH 300 0
DWIDTH 5 0
BBX 3 14 1 0
BITMAP
40
60
00
E0
40
40
40
40
40
40
40
40
40
E0
ENDCHAR
STARTCHAR 0131
ENCODING 305
SWIDTH 120 0
DWIDTH 2 0
BBX 1 7 1 0
BITMAP
80
80
80
80
80
80
80
ENDCHAR
STARTCHAR 0132
ENCODING 306
SWIDTH 600 0
DWIDTH 10 0
BBX 9 11 1 0
BITMAP
E080
4080
4080
4080
4080
4080
4080
4080
4080
4D80
E700
ENDCHAR
STARTCHAR 0133
ENCODING 307
SWIDTH 300 0
DWIDTH 5 0
BBX 4 13 1 -3
BITMAP
B0
00
00
90
90
90
90
90
90
90
10
10
E0
ENDCHAR
STARTCHAR 0134
ENCODING 308
SWIDTH 360 0
DWIDTH 6 0
BBX 5 14 1 0
BITMAP
18
28
00
10
10
10
10
10
10
10
10
10
90
F0
ENDCHAR
STARTCHAR 0135
ENCODING 309
SWIDTH 120 0
DWIDTH 2 0
BBX 4 14 -1 -3
BITMAP
60
50
80
00
20
20
20
20
20
20
20
20
20
E0
ENDCHAR
STARTCHAR 0136
ENCODING 310
SWIDTH 540 0
DWIDTH 9 0
BBX 7 14 1 -3
BITMAP
84
8C
98
90
A0
E0
D0
98
88
84
86
30
08
38
ENDCHAR
STARTCHAR 0137
ENCODING 311
SWIDTH 420 0
DWIDTH 7 0
BBX 5 14 1 -3
BITMAP
80
80
80
80
90
A0
E0
E0
B0
90
88
20
10
70
ENDCHAR
STARTCHAR 0138
ENCODING 312
SWIDTH 420 0
DWIDTH 7 0
BBX 5 7 1 0
BITMAP
90
A0
E0
E0
B0
90
88
ENDCHAR
STARTCHAR 0139
ENCODING 313
SWIDTH 480 0
DWIDTH 8 0
BBX 7 14 1 0
BITMAP
18
10
00
80
80
80
80
80
80
80
80
80
80
FE
ENDCHAR
STARTCHAR 013A
ENCODING 314
SWIDTH 240 0
DWIDTH 4 0
BBX 2 14 1 0
BITMAP
40
80
00
80
80
80
80
80
80
80
80
80
80
C0
ENDCHAR
STARTCHAR 013B
ENCODING 315
SWIDTH 480 0
DWIDTH 8 0
BBX 7 14 1 -3
BITMAP
80
80
80
80
80
80
80
80
80
80
FE
10
08
38
ENDCHAR
STARTCHAR 013C
ENCODING 316
SWIDTH 240 0
DWIDTH 4 0
BBX 3 14 1 -3
BITMAP
80
80
80
80
80
80
80
80
80
80
C0
C0
20
E0
ENDCHAR
STARTCHAR 013D
ENCODING 317
SWIDTH 480 0
DWIDTH 8 0
BBX 7 11 1 0
BITMAP
B0
B0
90
90
80
80
80
80
80
80
FE
ENDCHAR
STARTCHAR 013E
ENCODING 318
SWIDTH 240 0
DWIDTH 4 0
BBX 4 11 1 0
BITMAP
B0
B0
90
A0
80
80
80
80
80
80
C0
ENDCHAR
STARTCHAR 013F
ENCODING 319
SWIDTH 480 0
DWIDTH 8 0
BBX 7 11 1 0
BITMAP
80
80
80
80
80
90
90
80
80
80
FE
ENDCHAR
STARTCHAR 0140
ENCODING 320
SWIDTH 300 0
DWIDTH 5 0
BBX 4 11 1 0
BITMAP
80
80
80
80
80
B0
80
80
80
80
C0
ENDCHAR
STARTCHAR 0141
ENCODING 321
SWIDTH 600 0
DWIDTH 10 0
BBX 8 11 1 0
BITMAP
60
60
60
60
70
70
E0
60
60
60
7F
ENDCHAR
STARTCHAR 0142
ENCODING 322
SWIDTH 360 0
DWIDTH 6 0
BBX 4 11 1 0
BITMAP
60
60
60
60
70
70
E0
60
60
60
30
ENDCHAR
STARTCHAR 0143
ENCODING 323
SWIDTH 600 0
DWIDTH 10 0
BBX 8 14 1 0
BITMAP
08
10
00
81
C1
E1
A1
91
99
89
85
87
83
81
ENDCHAR
STARTCHAR 0144
ENCODING 324
SWIDTH 480 0
DWIDTH 8 0
BBX 6 11 1 0
BITMAP
18
10
20
30
FC
C4
84
84
84
84
84
ENDCHAR
STARTCHAR 0145
ENCODING 325
SWIDTH 600 0
DWIDTH 10 0
BBX 8 14 1 -3
BITMAP
81
C1
E1
A1
91
99
89
85
87
83
81
10
0C
1C
ENDCHAR
STARTCHAR 0146
ENCODING 326
SWIDTH 480 0
DWIDTH 8 0
BBX 6 11 1 -3
BITMAP
30
FC
C4
84
84
84
84
84
30
08
38
ENDCHAR
STARTCHAR 0147
ENCODING 327
SWIDTH 600 0
DWIDTH 10 0
BBX 8 14 1 0
BITMAP
24
18
00
81
C1
E1
A1
91
99
89
85
87
83
81
ENDCHAR
STARTCHAR 0148
ENCODING 328
SWIDTH 480 0
DWIDTH 8 0
BBX 6 11 1 0
BITMAP
40
38
30
30
FC
C4
84
84
84
84
84
ENDCHAR
STARTCHAR 0149
ENCODING 329
SWIDTH 540 0
DWIDTH 9 0
BBX 8 11 1 0
BITMAP
C0
C0
40
8C
7E
63
61
61
61
61
61
ENDCHAR
STARTCHAR 014A
ENCODING 330
SWIDTH 540 0
DWIDTH 9 0
BBX 8 11 1 0
BITMAP
BC
E6
C2
82
83
83
83
83
83
82
8E
ENDCHAR
STARTCHAR 014B
ENCODING 331
SWIDTH 480 0
DWIDTH 8 0
BBX 6 11 1 -3
BITMAP
30
FC
C4
84
84
84
84
84
04
04
1C
ENDCHAR
STARTCHAR 014C
ENCODING 332
SWIDTH 600 0
DWIDTH 10 0
BBX 9 13 1 0
BITMAP
3C00
0000
1C00
6600
4100
8100
8180
8080
8180
8180
C100
6200
3C00
ENDCHAR
STARTCHAR 014D
ENCODING 333
SWIDTH 480 0
DWIDTH 8 0
BBX 6 10 1 0
BITMAP
78
00
30
78
C4
84
84
84
CC
78
ENDCHAR
STARTCHAR 014E
ENCODING 334
SWIDTH 600 0
DWIDTH 10 0
BBX 9 14 1 0
BITMAP
2200
1C00
0000
1C00
6600
4100
8100
8180
8080
8180
8180
C100
6200
3C00
ENDCHAR
STARTCHAR 014F
ENCODING 335
SWIDTH 480 0
DWIDTH 8 0
BBX 6 11 1 0
BITMAP
48
68
10
30
78
C4
84
84
84
CC
78
ENDCHAR
STARTCHAR 0150
ENCODING 336
SWIDTH 600 0
DWIDTH 10 0
BBX 9 14 1 0
BITMAP
1A00
1400
0000
1C00
6600
4100
8100
8180
8080
8180
8180
C100
6200
3C00
ENDCHAR
STARTCHAR 0151
ENCODING 337
SWIDTH 480 0
DWIDTH 8 0
BBX 6 11 1 0
BITMAP
34
28
40
30
78
C4
84
84
84
CC
78
ENDCHAR
STARTCHAR 0152
ENCODING 338
SWIDTH 960 0
DWIDTH 16 0
BBX 14 11 1 0
BITMAP
1CFC
6680
4180
8180
8180
80F8
8180
8180
C180
6280
3CFC
ENDCHAR
STARTCHAR 0153
ENCODING 339
SWIDTH 780 0
DWIDTH 13 0
BBX 12 8 1 0
BITMAP
3180
7BE0
C620
87F0
8400
8600
CE60
79C0
ENDCHAR
STARTCHAR 0154
ENCODING 340
SWIDTH 480 0
DWIDTH 8 0
BBX 7 14 1 0
BITMAP
10
20
00
F0
9C
84
84
84
F8
98
88
8C
84
86
ENDCHAR
STARTCHAR 0155
ENCODING 341
SWIDTH 300 0
DWIDTH 5 0
BBX 4 11 1 0
BITMAP
20
40
00
30
F0
C0
80
80
80
80
80
ENDCHAR
STARTCHAR 0156
ENCODING 342
SWIDTH 480 0
DWIDTH 8 0
BBX 7 14 1 -3
BITMAP
F0
9C
84
84
84
F8
98
88
8C
84
86
30
08
38
ENDCHAR
STARTCHAR 0157
ENCODING 343
SWIDTH 300 0
DWIDTH 5 0
BBX 5 11 0 -3
BITMAP
18
78
60
40
40
40
40
40
40
20
E0
ENDCHAR
STARTCHAR 0158
ENCODING 344
SWIDTH 480 0
DWIDTH 8 0
BBX 7 14 1 0
BITMAP
48
30
00
F0
9C
84
84
84
F8
98
88
8C
84
86
ENDCHAR
STARTCHAR 0159
ENCODING 345
SWIDTH 300 0
DWIDTH 5 0
BBX 4 11 1 0
BITMAP
10
A0
60
30
F0
C0
80
80
80
80
80
ENDCHAR
STARTCHAR 015A
ENCODING 346
SWIDTH 480 0
DWIDTH 8 0
BBX 6 14 1 0
BITMAP
10
20
00
38
4C
84
C0
60
38
0C
04
84
CC
78
ENDCHAR
STARTCHAR 015B
ENCODING 347
SWIDTH 360 0
DWIDTH 6 0
BBX 5 11 1 0
BITMAP
30
20
40
60
F0
80
E0
30
18
98
70
ENDCHAR
STARTCHAR 015C
ENCODING 348
SWIDTH 480 0
DWIDTH 8 0
BBX 6 14 1 0
BITMAP
30
48
00
38
4C
84
C0
60
38
0C
04
84
CC
78
ENDCHAR
STARTCHAR 015D
ENCODING 349
SWIDTH 360 0
DWIDTH 6 0
BBX 5 11 1 0
BITMAP
60
50
80
60
F0
80
E0
30
18
98
70
ENDCHAR
STARTCHAR 015E
ENCODING 350
SWIDTH 480 0
DWIDTH 8 0
BBX 6 14 1 -3
BITMAP
38
4C
84
C0
60
38
0C
04
84
CC
78
30
08
38
ENDCHAR
STARTCHAR 015F
ENCODING 351
SWIDTH 360 0
DWIDTH 6 0
BBX 5 11 1 -3
BITMAP
20
F0
80
E0
30
18
98
70
20
10
70
ENDCHAR
STARTCHAR 0160
ENCODING 352
SWIDTH 480 0
DWIDTH 8 0
BBX 6 14 1 0
BITMAP
48
30
00
38
4C
84
C0
60
38
0C
04
84
CC
78
ENDCHAR
STARTCHAR 0161
ENCODING 353
SWIDTH 360 0
DWIDTH 6 0
BBX 5 11 1 0
BITMAP
80
50
60
60
F0
80
E0
30
18
98
70
ENDCHAR
STARTCHAR 0162
ENCODING 354
SWIDTH 480 0
DWIDTH 8 0
BBX 7 14 1 -3
BITMAP
FE
10
10
10
10
10
10
10
10
10
10
10
08
38
ENDCHAR
STARTCHAR 0163
ENCODING 355
SWIDTH 300 0
DWIDTH 5 0
BBX 4 12 1 -3
BITMAP
60
60
F0
60
60
60
60
60
70
20
10
70
ENDCHAR
STARTCHAR 0164
ENCODING 356
SWIDTH 480 0
DWIDTH 8 0
BBX 7 14 1 0
BITMAP
48
38
00
FE
10
10
10
10
10
10
10
10
10
10
ENDCHAR
STARTCHAR 0165
ENCODING 357
SWIDTH 480 0
DWIDTH 8 0
BBX 6 11 1 0
BITMAP
0C
2C
64
64
F0
60
60
60
60
60
70
ENDCHAR
STARTCHAR 0166
ENCODING 358
SWIDTH 480 0
DWIDTH 8 0
BBX 7 11 1 0
BITMAP
FE
10
10
10
10
FC
10
10
10
10
10
ENDCHAR
STARTCHAR 0167
ENCODING 359
SWIDTH 300 0
DWIDTH 5 0
BBX 4 9 1 0
BITMAP
60
60
F0
60
60
F0
60
60
70
ENDCHAR
STARTCHAR 0168
ENCODING 360
SWIDTH 540 0
DWIDTH 9 0
BBX 8 14 1 0
BITMAP
22
5C
00
81
81
81
81
81
81
81
81
83
46
3C
ENDCHAR
STARTCHAR 0169
ENCODING 361
SWIDTH 480 0
DWIDTH 8 0
BBX 6 11 1 0
BITMAP
44
B4
08
00
84
84
84
84
84
CC
7C
ENDCHAR
STARTCHAR 016A
ENCODING 362
SWIDTH 540 0
DWIDTH 9 0
BBX 8 13 1 0
BITMAP
3C
00
81
81
81
81
81
81
81
81
83
46
3C
ENDCHAR
STARTCHAR 016B
ENCODING 363
SWIDTH 480 0
DWIDTH 8 0
BBX 6 10 1 0
BITMAP
78
00
00
84
84
84
84
84
CC
7C
ENDCHAR
STARTCHAR 016C
ENCODING 364
SWIDTH 540 0
DWIDTH 9 0
BBX 8 14 1 0
BITMAP
24
3C
00
81
81
81
81
81
81
81
81
83
46
3C
ENDCHAR
STARTCHAR 016D
ENCODING 365
SWIDTH 480 0
DWIDTH 8 0
BBX 6 11 1 0
BITMAP
48
68
10
00
84
84
84
84
84
CC
7C
ENDCHAR
STARTCHAR 016E
ENCODING 366
SWIDTH 540 0
DWIDTH 9 0
BBX 8 14 1 0
BITMAP
18
28
18
81
81
81
81
81
81
81
81
83
46
3C
ENDCHAR
STARTCHAR 016F
ENCODING 367
SWIDTH 480 0
DWIDTH 8 0
BBX 6 11 1 0
BITMAP
30
50
30
00
84
84
84
84
84
CC
7C
ENDCHAR
STARTCHAR 0170
ENCODING 368
SWIDTH 540 0
DWIDTH 9 0
BBX 8 14 1 0
BITMAP
12
24
00
81
81
81
81
81
81
81
81
83
46
3C
ENDCHAR
STARTCHAR 0171
ENCODING 369
SWIDTH 480 0
DWIDTH 8 0
BBX 6 11 1 0
BITMAP
34
28
40
00
84
84
84
84
84
CC
7C
ENDCHAR
STARTCHAR 0172
ENCODING 370
SWIDTH 540 0
DWIDTH 9 0
BBX 8 14 1 -3
BITMAP
81
81
81
81
81
81
81
81
83
46
3C
10
18
0E
ENDCHAR
STARTCHAR 0173
ENCODING 371
SWIDTH 480 0
DWIDTH 8 0
BBX 8 10 1 -3
BITMAP
84
84
84
84
84
CC
7C
08
0C
07
ENDCHAR
STARTCHAR 0174
ENCODING 372
SWIDTH 840 0
DWIDTH 14 0
BBX 13 14 1 0
BITMAP
0600
0900
0000
8218
8610
C610
4730
4D20
4920
69A0
28E0
38C0
30C0
10C0
ENDCHAR
STARTCHAR 0175
ENCODING 373
SWIDTH 600 0
DWIDTH 10 0
BBX 9 11 1 0
BITMAP
0800
1400
0000
0000
8880
DD80
5500
5500
7500
6700
2200
ENDCHAR
STARTCHAR 0176
ENCODING 374
SWIDTH 600 0
DWIDTH 10 0
BBX 9 14 1 0
BITMAP
1800
1400
0000
8180
4300
6200
3600
1C00
1800
0800
0800
0800
0800
0800
ENDCHAR
STARTCHAR 0177
ENCODING 375
SWIDTH 480 0
DWIDTH 8 0
BBX 6 14 1 -3
BITMAP
30
28
40
00
84
44
48
68
38
30
30
30
20
60
ENDCHAR
STARTCHAR 0178
ENCODING 376
SWIDTH 600 0
DWIDTH 10 0
BBX 9 14 1 0
BITMAP
2400
3600
0000
8180
4300
6200
3600
1C00
1800
0800
0800
0800
0800
0800
ENDCHAR
STARTCHAR 0179
ENCODING 377
SWIDTH 480 0
DWIDTH 8 0
BBX 7 14 1 0
BITMAP
08
10
00
FE
02
04
0C
08
10
30
60
40
80
FE
ENDCHAR
STARTCHAR 017A
ENCODING 378
SWIDTH 360 0
DWIDTH 6 0
BBX 5 11 1 0
BITMAP
10
20
40
00
F8
10
30
60
40
80
F8
ENDCHAR
STARTCHAR 017B
ENCODING 379
SWIDTH 480 0
DWIDTH 8 0
BBX 7 14 1 0
BITMAP
10
10
00
FE
02
04
0C
08
10
30
60
40
80
FE
ENDCHAR
STARTCHAR 017C
ENCODING 380
SWIDTH 360 0
DWIDTH 6 0
BBX 5 10 1 0
BITMAP
60
00
00
F8
10
30
60
40
80
F8
ENDCHAR
STARTCHAR 017D
ENCODING 381
SWIDTH 480 0
DWIDTH 8 0
BBX 7 14 1 0
BITMAP
48
28
10
FE
02
04
0C
08
10
30
60
40
80
FE
ENDCHAR
STARTCHAR 017E
ENCODING 382
SWIDTH 360 0
DWIDTH 6 0
BBX 5 11 1 0
BITMAP
80
50
60
00
F8
10
30
60
40
80
F8
ENDCHAR
STARTCHAR 017F
ENCODING 383
SWIDTH 120 0
DWIDTH 2 0
BBX 3 14 1 -4
BITMAP
60
80
80
80
80
80
80
80
80
80
80
80
80
80
ENDCHAR
STARTCHAR 0180
ENCODING 384
SWIDTH 480 0
DWIDTH 8 0
BBX 7 11 0 0
BITMAP
40
F0
F0
58
7C
62
42
42
42
66
7C
ENDCHAR
STARTCHAR 0181
ENCODING 385
SWIDTH 660 0
DWIDTH 11 0
BBX 10 11 1 0
BITMAP
7F00
D180
9080
9080
1180
1F80
10C0
1040
1040
1080
1F00
ENDCHAR
STARTCHAR 0182
ENCODING 386
SWIDTH 480 0
DWIDTH 8 0
BBX 7 11 1 0
BITMAP
FC
80
80
80
80
FC
84
86
86
8C
F8
ENDCHAR
STARTCHAR 0183
ENCODING 387
SWIDTH 480 0
DWIDTH 8 0
BBX 6 11 1 0
BITMAP
FC
80
80
B0
F8
C4
84
84
84
CC
F8
ENDCHAR
STARTCHAR 0184
ENCODING 388
SWIDTH 660 0
DWIDTH 11 0
BBX 10 11 1 0
BITMAP
3000
7000
D000
9000
1000
1F00
1080
10C0
1080
1180
1F00
ENDCHAR
STARTCHAR 0185
ENCODING 389
SWIDTH 480 0
DWIDTH 8 0
BBX 7 7 1 0
BITMAP
60
E0
38
3C
22
26
3C
ENDCHAR
STARTCHAR 0186
ENCODING 390
SWIDTH 540 0
DWIDTH 9 0
BBX 8 11 1 0
BITMAP
38
66
82
03
01
01
01
01
82
C6
7C
ENDCHAR
STARTCHAR 0187
ENCODING 391
SWIDTH 540 0
DWIDTH 9 0
BBX 10 13 1 1
BITMAP
01C0
0100
1D00
6700
4100
8000
8000
8000
8000
8000
C100
6200
3C00
ENDCHAR
STARTCHAR 0188
ENCODING 392
SWIDTH 420 0
DWIDTH 7 0
BBX 8 11 1 0
BITMAP
03
07
04
34
7C
C4
80
80
80
CC
78
ENDCHAR
STARTCHAR 0189
ENCODING 393
SWIDTH 600 0
DWIDTH 10 0
BBX 9 11 1 0
BITMAP
FC00
4600
4100
4100
4080
F880
4080
4180
4100
4200
FC00
ENDCHAR
STARTCHAR 018A
ENCODING 394
SWIDTH 720 0
DWIDTH 12 0
BBX 11 11 1 0
BITMAP
7F00
D180
90C0
9040
1060
1020
1020
1060
1040
1180
3F00
ENDCHAR
STARTCHAR 018B
ENCODING 395
SWIDTH 480 0
DWIDTH 8 0
BBX 7 11 1 0
BITMAP
7E
06
06
06
06
7E
C6
86
86
C6
7E
ENDCHAR
STARTCHAR 018C
ENCODING 396
SWIDTH 480 0
DWIDTH 8 0
BBX 6 11 1 0
BITMAP
7C
04
04
34
7C
C4
84
84
84
CC
7C
ENDCHAR
STARTCHAR 018D
ENCODING 397
SWIDTH 480 0
DWIDTH 8 0
BBX 6 11 1 -3
BITMAP
30
78
C4
84
84
C4
4C
38
10
90
F0
ENDCHAR
STARTCHAR 018E
ENCODING 398
SWIDTH 480 0
DWIDTH 8 0
BBX 7 11 1 0
BITMAP
FE
06
06
06
06
7E
06
06
06
06
FE
ENDCHAR
STARTCHAR 018F
ENCODING 399
SWIDTH 600 0
DWIDTH 10 0
BBX 9 11 1 0
BITMAP
1C00
6600
0100
0100
0180
FF80
8180
8180
C100
6200
3C00
ENDCHAR
STARTCHAR 0190
ENCODING 400
SWIDTH 480 0
DWIDTH 8 0
BBX 8 11 0 0
BITMAP
3C
66
42
40
60
38
40
C0
C3
62
3C
ENDCHAR
STARTCHAR 0191
ENCODING 401
SWIDTH 480 0
DWIDTH 8 0
BBX 9 14 -1 -3
BITMAP
3F80
2000
2000
2000
2000
3F00
2000
2000
2000
2000
2000
2000
2000
E000
ENDCHAR
STARTCHAR 0192
ENCODING 402
SWIDTH 300 0
DWIDTH 5 0
BBX 6 14 0 -3
BITMAP
1C
30
30
30
78
30
30
30
30
30
30
30
20
E0
ENDCHAR
STARTCHAR 0193
ENCODING 403
SWIDTH 540 0
DWIDTH 9 0
BBX 10 13 1 1
BITMAP
01C0
0100
1D00
6700
4100
8000
8000
8F00
8F00
8100
C100
6200
3C00
ENDCHAR
STARTCHAR 0194
ENCODING 404
SWIDTH 600 0
DWIDTH 10 0
BBX 9 14 1 -3
BITMAP
8080
C100
4100
4300
6200
2200
2600
3400
1400
1C00
0800
1800
1400
1C00
ENDCHAR
STARTCHAR 0195
ENCODING 405
SWIDTH 660 0
DWIDTH 11 0
BBX 10 11 1 0
BITMAP
8000
8000
8000
B000
FC40
C440
8440
8440
8440
86C0
8380
ENDCHAR
STARTCHAR 0196
ENCODING 406
SWIDTH 360 0
DWIDTH 6 0
BBX 4 11 1 0
BITMAP
80
80
80
80
80
80
80
80
80
90
F0
ENDCHAR
STARTCHAR 0197
ENCODING 407
SWIDTH 300 0
DWIDTH 5 0
BBX 3 11 1 0
BITMAP
E0
40
40
40
40
E0
40
40
40
40
E0
ENDCHAR
STARTCHAR 0198
ENCODING 408
SWIDTH 540 0
DWIDTH 9 0
BBX 7 13 1 1
BITMAP
E0
80
84
8C
98
90
A0
E0
D0
98
88
84
86
ENDCHAR
STARTCHAR 0199
ENCODING 409
SWIDTH 420 0
DWIDTH 7 0
BBX 5 13 1 1
BITMAP
E0
80
80
80
80
80
90
A0
E0
E0
B0
90
88
ENDCHAR
STARTCHAR 019A
ENCODING 410
SWIDTH 300 0
DWIDTH 5 0
BBX 3 11 1 0
BITMAP
40
40
40
40
40
E0
40
40
40
40
60
ENDCHAR
STARTCHAR 019B
ENCODING 411
SWIDTH 480 0
DWIDTH 8 0
BBX 6 11 1 0
BITMAP
C0
38
F0
10
30
38
68
48
4C
C4
84
ENDCHAR
STARTCHAR 019C
ENCODING 412
SWIDTH 600 0
DWIDTH 10 0
BBX 8 11 1 0
BITMAP
99
99
99
99
99
99
99
99
99
9B
6F
ENDCHAR
STARTCHAR 019D
ENCODING 413
SWIDTH 600 0
DWIDTH 10 0
BBX 10 14 -1 -3
BITMAP
2040
3040
3840
2840
2440
2640
2240
2140
21C0
20C0
2040
2000
2000
E000
ENDCHAR
STARTCHAR 019E
ENCODING 414
SWIDTH 480 0
DWIDTH 8 0
BBX 6 11 1 -4
BITMAP
30
FC
C4
84
84
84
84
84
04
04
04
ENDCHAR
STARTCHAR 019F
ENCODING 415
SWIDTH 600 0
DWIDTH 10 0
BBX 9 11 1 0
BITMAP
1C00
6600
4100
8100
8180
FF80
8180
8180
C100
6200
3C00
ENDCHAR
STARTCHAR 01A0
ENCODING 416
SWIDTH 660 0
DWIDTH 11 0
BBX 11 11 1 0
BITMAP
1C40
6660
4120
8140
8180
8080
8180
8180
C100
6200
3C00
ENDCHAR
STARTCHAR 01A1
ENCODING 417
SWIDTH 480 0
DWIDTH 8 0
BBX 8 9 1 0
BITMAP
03
33
79
C6
84
84
84
CC
78
ENDCHAR
STARTCHAR 01A2
ENCODING 418
SWIDTH 660 0
DWIDTH 11 0
BBX 10 14 1 -3
BITMAP
1FC0
6740
4340
8340
8340
8340
8340
8340
C340
6240
3C40
0040
0040
0040
ENDCHAR
STARTCHAR 01A3
ENCODING 419
SWIDTH 540 0
DWIDTH 9 0
BBX 8 12 1 -4
BITMAP
30
7F
CB
8B
8B
8B
CB
7B
03
03
03
01
ENDCHAR
STARTCHAR 01A4
ENCODING 420
SWIDTH 660 0
DWIDTH 11 0
BBX 9 11 1 0
BITMAP
7F00
D180
9080
9080
1080
1F80
1000
1000
1000
1000
1000
ENDCHAR
STARTCHAR 01A5
ENCODING 421
SWIDTH 480 0
DWIDTH 8 0
BBX 6 14 1 -4
BITMAP
60
80
80
B0
F8
C4
84
84
84
CC
F8
80
80
80
ENDCHAR
STARTCHAR 01A6
ENCODING 422
SWIDTH 480 0
DWIDTH 8 0
BBX 6 13 1 -2
BITMAP
80
80
80
F8
84
84
84
F8
88
88
8C
04
04
ENDCHAR
STARTCHAR 01A7
ENCODING 423
SWIDTH 480 0
DWIDTH 8 0
BBX 6 11 1 0
BITMAP
38
4C
C4
04
18
70
C0
80
84
CC
78
ENDCHAR
STARTCHAR 01A8
ENCODING 424
SWIDTH 360 0
DWIDTH 6 0
BBX 5 8 1 0
BITMAP
20
F0
10
30
C0
80
98
70
ENDCHAR
STARTCHAR 01A9
ENCODING 425
SWIDTH 480 0
DWIDTH 8 0
BBX 7 11 1 0
BITMAP
FE
80
40
60
20
10
30
60
40
80
FE
ENDCHAR
STARTCHAR 01AA
ENCODING 426
SWIDTH 360 0
DWIDTH 6 0
BBX 7 14 1 -3
BITMAP
60
90
90
F0
70
10
10
10
10
10
10
10
10
0E
ENDCHAR
STARTCHAR 01AB
ENCODING 427
SWIDTH 300 0
DWIDTH 5 0
BBX 4 13 1 -3
BITMAP
20
60
60
F0
60
60
60
60
60
70
30
30
E0
ENDCHAR
STARTCHAR 01AC
ENCODING 428
SWIDTH 540 0
DWIDTH 9 0
BBX 8 11 1 0
BITMAP
7F
C8
88
88
08
08
08
08
08
08
08
ENDCHAR
STARTCHAR 01AD
ENCODING 429
SWIDTH 300 0
DWIDTH 5 0
BBX 5 11 1 0
BITMAP
38
60
60
60
F0
60
60
60
60
60
70
ENDCHAR
STARTCHAR 01AE
ENCODING 430
SWIDTH 480 0
DWIDTH 8 0
BBX 7 14 1 -3
BITMAP
FE
10
10
10
10
10
10
10
10
10
10
10
10
1C
ENDCHAR
STARTCHAR 01AF
ENCODING 431
SWIDTH 660 0
DWIDTH 11 0
BBX 10 11 1 0
BITMAP
81C0
81C0
8140
8140
8180
8100
8100
8100
8300
4600
3C00
ENDCHAR
STARTCHAR 01B0
ENCODING 432
SWIDTH 540 0
DWIDTH 9 0
BBX 9 9 1 0
BITMAP
0300
0080
8500
8600
8400
8400
8400
CC00
7C00
ENDCHAR
STARTCHAR 01B1
ENCODING 433
SWIDTH 600 0
DWIDTH 10 0
BBX 9 11 1 0
BITMAP
E780
6600
4100
8100
8180
8080
8180
8180
C100
6200
3C00
ENDCHAR
STARTCHAR 01B2
ENCODING 434
SWIDTH 540 0
DWIDTH 9 0
BBX 8 11 1 0
BITMAP
86
C3
41
43
62
22
26
34
14
1C
08
ENDCHAR
STARTCHAR 01B3
ENCODING 435
SWIDTH 600 0
DWIDTH 10 0
BBX 11 11 1 0
BITMAP
81C0
4360
6200
3600
1C00
1800
0800
0800
0800
0800
0800
ENDCHAR
STARTCHAR 01B4
ENCODING 436
SWIDTH 600 0
DWIDTH 10 0
BBX 9 11 1 -3
BITMAP
0300
8780
4400
4800
6800
3800
3000
3000
3000
2000
6000
ENDCHAR
STARTCHAR 01B5
ENCODING 437
SWIDTH 480 0
DWIDTH 8 0
BBX 7 11 1 0
BITMAP
FE
02
04
0C
08
7C
30
60
40
80
FE
ENDCHAR
STARTCHAR 01B6
ENCODING 438
SWIDTH 360 0
DWIDTH 6 0
BBX 5 7 1 0
BITMAP
F8
10
30
F0
40
80
F8
ENDCHAR
STARTCHAR 01B7
ENCODING 439
SWIDTH 480 0
DWIDTH 8 0
BBX 7 11 1 0
BITMAP
FE
02
04
0C
08
1C
02
02
82
C6
7C
ENDCHAR
STARTCHAR 01B8
ENCODING 440
SWIDTH 480 0
DWIDTH 8 0
BBX 7 11 1 0
BITMAP
FE
80
40
60
20
70
80
80
82
C6
7C
ENDCHAR
STARTCHAR 01B9
ENCODING 441
SWIDTH 420 0
DWIDTH 7 0
BBX 6 10 1 -3
BITMAP
FC
C0
60
20
C0
80
80
80
C0
78
ENDCHAR
STARTCHAR 01BA
ENCODING 442
SWIDTH 360 0
DWIDTH 6 0
BBX 5 10 1 -3
BITMAP
F8
10
30
70
18
10
60
80
98
F0
ENDCHAR
STARTCHAR 01BB
ENCODING 443
SWIDTH 420 0
DWIDTH 7 0
BBX 6 11 1 0
BITMAP
70
D8
88
08
08
FC
60
40
80
80
FC
ENDCHAR
STARTCHAR 01BC
ENCODING 444
SWIDTH 420 0
DWIDTH 7 0
BBX 6 11 1 0
BITMAP
F8
C0
C0
B0
F8
8C
04
04
0C
C8
78
ENDCHAR
STARTCHAR 01BD
ENCODING 445
SWIDTH 360 0
DWIDTH 6 0
BBX 5 7 1 0
BITMAP
F0
E0
F0
18
08
90
70
ENDCHAR
STARTCHAR 01BE
ENCODING 446
SWIDTH 420 0
DWIDTH 7 0
BBX 6 10 1 0
BITMAP
20
60
60
F0
60
30
1C
04
6C
38
ENDCHAR
STARTCHAR 01BF
ENCODING 447
SWIDTH 420 0
DWIDTH 7 0
BBX 6 11 1 -4
BITMAP
30
F8
88
8C
88
98
B0
C0
C0
80
80
ENDCHAR
STARTCHAR 01C0
ENCODING 448
SWIDTH 120 0
DWIDTH 2 0
BBX 1 14 1 -4
BITMAP
80
80
80
80
80
80
80
80
80
80
80
80
80
80
ENDCHAR
STARTCHAR 01C1
ENCODING 449
SWIDTH 300 0
DWIDTH 5 0
BBX 3 14 1 -4
BITMAP
A0
A0
A0
A0
A0
A0
A0
A0
A0
A0
A0
A0
A0
A0
ENDCHAR
STARTCHAR 01C2
ENCODING 450
SWIDTH 420 0
DWIDTH 7 0
BBX 6 11 1 0
BITMAP
20
20
20
20
FC
20
FC
FC
20
20
20
ENDCHAR
STARTCHAR 01C3
ENCODING 451
SWIDTH 120 0
DWIDTH 2 0
BBX 1 11 1 0
BITMAP
80
80
80
80
80
80
80
80
00
80
80
ENDCHAR
STARTCHAR 01C4
ENCODING 452
SWIDTH 1140 0
DWIDTH 19 0
BBX 18 14 1 0
BITMAP
000900
000600
000000
FC3FC0
4E00C0
430180
410100
418300
408600
418400
418800
411800
461000
FC3FC0
ENDCHAR
STARTCHAR 01C5
ENCODING 453
SWIDTH 1020 0
DWIDTH 17 0
BBX 15 11 1 0
BITMAP
FC02
4E14
430C
4100
41BE
4086
4184
4188
4118
4610
FC3E
ENDCHAR
STARTCHAR 01C6
ENCODING 454
SWIDTH 840 0
DWIDTH 14 0
BBX 13 11 1 0
BITMAP
0400
0450
0420
3400
7CF8
C410
8430
8420
8440
CCC0
7CF8
ENDCHAR
STARTCHAR 01C7
ENCODING 455
SWIDTH 840 0
DWIDTH 14 0
BBX 13 11 1 0
BITMAP
8008
8008
8008
8008
8008
8008
8008
8008
8008
80D8
FE70
ENDCHAR
STARTCHAR 01C8
ENCODING 456
SWIDTH 660 0
DWIDTH 11 0
BBX 10 14 1 -3
BITMAP
8000
80C0
8000
8000
80C0
80C0
80C0
80C0
80C0
80C0
FEC0
00C0
00C0
0380
ENDCHAR
STARTCHAR 01C9
ENCODING 457
SWIDTH 420 0
DWIDTH 7 0
BBX 5 14 1 -3
BITMAP
80
88
80
80
88
88
88
88
88
88
C8
08
08
38
ENDCHAR
STARTCHAR 01CA
ENCODING 458
SWIDTH 960 0
DWIDTH 16 0
BBX 14 11 1 0
BITMAP
8104
C104
E104
A104
9104
9904
8904
8504
8704
8324
811C
ENDCHAR
STARTCHAR 01CB
ENCODING 459
SWIDTH 780 0
DWIDTH 13 0
BBX 12 14 1 -3
BITMAP
8100
C130
E100
A100
9120
9920
8920
8520
8720
8320
8120
0020
0020
00E0
ENDCHAR
STARTCHAR 01CC
ENCODING 460
SWIDTH 660 0
DWIDTH 11 0
BBX 10 13 1 -3
BITMAP
00C0
0000
3000
FC80
C480
8480
8480
8480
8480
8480
0080
0080
0380
ENDCHAR
STARTCHAR 01CD
ENCODING 461
SWIDTH 600 0
DWIDTH 10 0
BBX 9 14 1 0
BITMAP
2400
1400
0800
0800
1800
1400
1400
2600
2200
7E00
4300
4100
C100
8180
ENDCHAR
STARTCHAR 01CE
ENCODING 462
SWIDTH 360 0
DWIDTH 6 0
BBX 5 11 1 0
BITMAP
80
50
60
20
78
08
28
F8
88
98
78
ENDCHAR
STARTCHAR 01CF
ENCODING 463
SWIDTH 300 0
DWIDTH 5 0
BBX 3 14 1 0
BITMAP
A0
A0
40
E0
40
40
40
40
40
40
40
40
40
E0
ENDCHAR
STARTCHAR 01D0
ENCODING 464
SWIDTH 120 0
DWIDTH 2 0
BBX 4 11 -1 0
BITMAP
80
50
20
00
20
20
20
20
20
20
20
ENDCHAR
STARTCHAR 01D1
ENCODING 465
SWIDTH 600 0
DWIDTH 10 0
BBX 9 14 1 0
BITMAP
2400
1C00
0000
1C00
6600
4100
8100
8180
8080
8180
8180
C100
6200
3C00
ENDCHAR
STARTCHAR 01D2
ENCODING 466
SWIDTH 480 0
DWIDTH 8 0
BBX 6 11 1 0
BITMAP
40
38
30
30
78
C4
84
84
84
CC
78
ENDCHAR
STARTCHAR 01D3
ENCODING 467
SWIDTH 540 0
DWIDTH 9 0
BBX 8 14 1 0
BITMAP
24
18
00
81
81
81
81
81
81
81
81
83
46
3C
ENDCHAR
STARTCHAR 01D4
ENCODING 468
SWIDTH 480 0
DWIDTH 8 0
BBX 6 11 1 0
BITMAP
40
38
30
00
84
84
84
84
84
CC
7C
ENDCHAR
STARTCHAR 01D5
ENCODING 469
SWIDTH 540 0
DWIDTH 9 0
BBX 8 14 1 0
BITMAP
3C
24
2C
81
81
81
81
81
81
81
81
83
46
3C
ENDCHAR
STARTCHAR 01D6
ENCODING 470
SWIDTH 480 0
DWIDTH 8 0
BBX 6 13 1 0
BITMAP
78
78
00
68
00
00
84
84
84
84
84
CC
7C
ENDCHAR
STARTCHAR 01D7
ENCODING 471
SWIDTH 540 0
DWIDTH 9 0
BBX 8 14 1 0
BITMAP
08
00
2C
81
81
81
81
81
81
81
81
83
46
3C
ENDCHAR
STARTCHAR 01D8
ENCODING 472
SWIDTH 480 0
DWIDTH 8 0
BBX 6 13 1 0
BITMAP
10
20
00
68
00
00
84
84
84
84
84
CC
7C
ENDCHAR
STARTCHAR 01D9
ENCODING 473
SWIDTH 540 0
DWIDTH 9 0
BBX 8 14 1 0
BITMAP
28
18
2C
81
81
81
81
81
81
81
81
83
46
3C
ENDCHAR
STARTCHAR 01DA
ENCODING 474
SWIDTH 480 0
DWIDTH 8 0
BBX 6 13 1 0
BITMAP
48
30
00
68
00
00
84
84
84
84
84
CC
7C
ENDCHAR
STARTCHAR 01DB
ENCODING 475
SWIDTH 540 0
DWIDTH 9 0
BBX 8 14 1 0
BITMAP
20
10
2C
81
81
81
81
81
81
81
81
83
46
3C
ENDCHAR
STARTCHAR 01DC
ENCODING 476
SWIDTH 480 0
DWIDTH 8 0
BBX 6 13 1 0
BITMAP
20
10
00
68
00
00
84
84
84
84
84
CC
7C
ENDCHAR
STARTCHAR 01DD
ENCODING 477
SWIDTH 480 0
DWIDTH 8 0
BBX 6 8 1 0
BITMAP
30
78
C4
04
FC
84
CC
78
ENDCHAR
STARTCHAR 01DE
ENCODING 478
SWIDTH 600 0
DWIDTH 10 0
BBX 9 14 1 0
BITMAP
3C00
0400
3600
0800
1800
1400
1400
2600
2200
7E00
4300
4100
C100
8180
ENDCHAR
STARTCHAR 01DF
ENCODING 479
SWIDTH 360 0
DWIDTH 6 0
BBX 5 13 1 0
BITMAP
F0
F0
00
D8
00
20
78
08
28
F8
88
98
78
ENDCHAR
STARTCHAR 01E0
ENCODING 480
SWIDTH 600 0
DWIDTH 10 0
BBX 9 14 1 0
BITMAP
3C00
0800
0800
0800
1800
1400
1400
2600
2200
7E00
4300
4100
C100
8180
ENDCHAR
STARTCHAR 01E1
ENCODING 481
SWIDTH 360 0
DWIDTH 6 0
BBX 5 13 1 0
BITMAP
F0
F0
00
60
00
20
78
08
28
F8
88
98
78
ENDCHAR
STARTCHAR 01E2
ENCODING 482
SWIDTH 720 0
DWIDTH 12 0
BBX 10 13 1 0
BITMAP
0780
0000
0FC0
1C00
1400
1400
2400
3F80
6400
4400
4400
C400
87C0
ENDCHAR
STARTCHAR 01E3
ENCODING 483
SWIDTH 720 0
DWIDTH 12 0
BBX 10 10 1 0
BITMAP
1E00
0000
2300
7F80
0840
2FC0
F800
8800
9CC0
7780
ENDCHAR
STARTCHAR 01E4
ENCODING 484
SWIDTH 660 0
DWIDTH 11 0
BBX 9 11 1 0
BITMAP
1C00
6600
4100
8000
8000
8F00
8F00
8380
C380
6200
3C00
ENDCHAR
STARTCHAR 01E5
ENCODING 485
SWIDTH 480 0
DWIDTH 8 0
BBX 9 11 0 -3
BITMAP
1900
7F00
4200
4200
6600
7C00
4000
3C00
FF80
FF80
7E00
ENDCHAR
STARTCHAR 01E6
ENCODING 486
SWIDTH 540 0
DWIDTH 9 0
BBX 8 14 1 0
BITMAP
24
18
00
1C
66
41
80
80
8F
8F
81
C1
62
3C
ENDCHAR
STARTCHAR 01E7
ENCODING 487
SWIDTH 480 0
DWIDTH 8 0
BBX 7 14 1 -3
BITMAP
48
30
30
32
FE
84
84
CC
F8
80
78
04
84
FC
ENDCHAR
STARTCHAR 01E8
ENCODING 488
SWIDTH 540 0
DWIDTH 9 0
BBX 7 14 1 0
BITMAP
48
28
10
84
8C
98
90
A0
E0
D0
98
88
84
86
ENDCHAR
STARTCHAR 01E9
ENCODING 489
SWIDTH 420 0
DWIDTH 7 0
BBX 5 14 1 0
BITMAP
08
50
20
80
80
80
80
90
A0
E0
E0
B0
90
88
ENDCHAR
STARTCHAR 01EA
ENCODING 490
SWIDTH 600 0
DWIDTH 10 0
BBX 9 14 1 -3
BITMAP
1C00
6600
4100
8100
8180
8080
8180
8180
C100
6200
3C00
0800
0800
0E00
ENDCHAR
STARTCHAR 01EB
ENCODING 491
SWIDTH 480 0
DWIDTH 8 0
BBX 6 11 1 -3
BITMAP
30
78
C4
84
84
84
CC
78
20
30
1C
ENDCHAR
STARTCHAR 01EC
ENCODING 492
SWIDTH 600 0
DWIDTH 10 0
BBX 9 16 1 -3
BITMAP
3C00
0000
1C00
6600
4100
8100
8180
8080
8180
8180
C100
6200
3C00
0800
0800
0E00
ENDCHAR
STARTCHAR 01ED
ENCODING 493
SWIDTH 480 0
DWIDTH 8 0
BBX 6 13 1 -3
BITMAP
78
00
30
78
C4
84
84
84
CC
78
20
30
1C
ENDCHAR
STARTCHAR 01EE
ENCODING 494
SWIDTH 480 0
DWIDTH 8 0
BBX 7 14 1 0
BITMAP
48
28
10
FE
02
04
0C
08
1C
02
02
82
C6
7C
ENDCHAR
STARTCHAR 01EF
ENCODING 495
SWIDTH 420 0
DWIDTH 7 0
BBX 6 14 1 -3
BITMAP
08
50
30
00
FC
18
10
30
18
08
0C
08
08
F0
ENDCHAR
STARTCHAR 01F0
ENCODING 496
SWIDTH 120 0
DWIDTH 2 0
BBX 4 14 -1 -3
BITMAP
80
50
20
00
20
20
20
20
20
20
20
20
20
E0
ENDCHAR
STARTCHAR 01F1
ENCODING 497
SWIDTH 1140 0
DWIDTH 19 0
BBX 18 11 1 0
BITMAP
FC3FC0
4E00C0
430180
410100
418300
408600
418400
418800
411800
461000
FC3FC0
ENDCHAR
STARTCHAR 01F2
ENCODING 498
SWIDTH 1020 0
DWIDTH 17 0
BBX 15 11 1 0
BITMAP
FC00
4E00
4300
4100
41BE
4086
4184
4188
4118
4610
FC3E
ENDCHAR
STARTCHAR 01F3
ENCODING 499
SWIDTH 840 0
DWIDTH 14 0
BBX 13 11 1 0
BITMAP
0400
0400
0400
3400
7CF8
C410
8430
8420
8440
CCC0
7CF8
ENDCHAR
STARTCHAR 01F4
ENCODING 500
SWIDTH 540 0
DWIDTH 9 0
BBX 8 14 1 0
BITMAP
08
10
00
1C
66
41
80
80
8F
8F
81
C1
62
3C
ENDCHAR
STARTCHAR 01F5
ENCODING 501
SWIDTH 480 0
DWIDTH 8 0
BBX 7 14 1 -3
BITMAP
18
10
20
32
FE
84
84
CC
F8
80
78
04
84
FC
ENDCHAR
STARTCHAR 01F6
ENCODING 502
SWIDTH 780 0
DWIDTH 13 0
BBX 12 11 1 0
BITMAP
8600
8600
8600
8600
8610
FE10
8610
8610
8210
8220
81E0
ENDCHAR
STARTCHAR 01F7
ENCODING 503
SWIDTH 420 0
DWIDTH 7 0
BBX 5 14 1 -3
BITMAP
F0
D8
88
88
88
90
E0
C0
80
80
80
80
80
80
ENDCHAR
STARTCHAR 01F8
ENCODING 504
SWIDTH 600 0
DWIDTH 10 0
BBX 8 14 1 0
BITMAP
10
08
00
81
C1
E1
A1
91
99
89
85
87
83
81
ENDCHAR
STARTCHAR 01F9
ENCODING 505
SWIDTH 480 0
DWIDTH 8 0
BBX 6 11 1 0
BITMAP
60
20
10
30
FC
C4
84
84
84
84
84
ENDCHAR
STARTCHAR 01FA
ENCODING 506
SWIDTH 600 0
DWIDTH 10 0
BBX 9 14 1 0
BITMAP
0800
0000
1C00
1400
1800
1400
1400
2600
2200
7E00
4300
4100
C100
8180
ENDCHAR
STARTCHAR 01FB
ENCODING 507
SWIDTH 360 0
DWIDTH 6 0
BBX 5 14 1 0
BITMAP
18
30
20
30
50
30
20
78
08
28
F8
88
98
78
ENDCHAR
STARTCHAR 01FC
ENCODING 508
SWIDTH 720 0
DWIDTH 12 0
BBX 10 14 1 0
BITMAP
0200
0400
0000
0FC0
1C00
1400
1400
2400
3F80
6400
4400
4400
C400
87C0
ENDCHAR
STARTCHAR 01FD
ENCODING 509
SWIDTH 720 0
DWIDTH 12 0
BBX 10 11 1 0
BITMAP
0600
0400
0800
2300
7F80
0840
2FC0
F800
8800
9CC0
7780
ENDCHAR
STARTCHAR 01FE
ENCODING 510
SWIDTH 600 0
DWIDTH 10 0
BBX 9 15 1 -1
BITMAP
0C00
0800
0000
1D80
6700
4300
8700
8D80
8880
9180
B180
E100
6200
FC00
8000
ENDCHAR
STARTCHAR 01FF
ENCODING 511
SWIDTH 480 0
DWIDTH 8 0
BBX 6 12 1 -1
BITMAP
18
10
20
34
7C
CC
94
B4
E4
CC
F8
80
ENDCHAR
STARTCHAR 0200
ENCODING 512
SWIDTH 600 0
DWIDTH 10 0
BBX 9 14 1 0
BITMAP
6800
2800
0000
0800
1800
1400
1400
2600
2200
7E00
4300
4100
C100
8180
ENDCHAR
STARTCHAR 0201
ENCODING 513
SWIDTH 360 0
DWIDTH 6 0
BBX 6 11 0 0
BITMAP
D0
48
20
10
3C
04
14
7C
44
4C
3C
ENDCHAR
STARTCHAR 0202
ENCODING 514
SWIDTH 600 0
DWIDTH 10 0
BBX 9 14 1 0
BITMAP
1C00
2600
0000
0800
1800
1400
1400
2600
2200
7E00
4300
4100
C100
8180
ENDCHAR
STARTCHAR 0203
ENCODING 515
SWIDTH 360 0
DWIDTH 6 0
BBX 5 11 1 0
BITMAP
60
D0
88
20
78
08
28
F8
88
98
78
ENDCHAR
STARTCHAR 0204
ENCODING 516
SWIDTH 480 0
DWIDTH 8 0
BBX 7 14 1 0
BITMAP
D0
48
00
FE
80
80
80
80
FC
80
80
80
80
FE
ENDCHAR
STARTCHAR 0205
ENCODING 517
SWIDTH 480 0
DWIDTH 8 0
BBX 6 11 1 0
BITMAP
50
28
04
30
78
C4
FC
80
80
CC
78
ENDCHAR
STARTCHAR 0206
ENCODING 518
SWIDTH 480 0
DWIDTH 8 0
BBX 7 14 1 0
BITMAP
38
48
00
FE
80
80
80
80
FC
80
80
80
80
FE
ENDCHAR
STARTCHAR 0207
ENCODING 519
SWIDTH 480 0
DWIDTH 8 0
BBX 6 11 1 0
BITMAP
30
48
48
30
78
C4
FC
80
80
CC
78
ENDCHAR
STARTCHAR 0208
ENCODING 520
SWIDTH 300 0
DWIDTH 5 0
BBX 4 14 0 0
BITMAP
B0
50
00
70
20
20
20
20
20
20
20
20
20
70
ENDCHAR
STARTCHAR 0209
ENCODING 521
SWIDTH 120 0
DWIDTH 2 0
BBX 5 11 -2 0
BITMAP
D0
48
20
00
10
10
10
10
10
10
10
ENDCHAR
STARTCHAR 020A
ENCODING 522
SWIDTH 300 0
DWIDTH 5 0
BBX 5 14 0 0
BITMAP
70
C8
00
70
20
20
20
20
20
20
20
20
20
70
ENDCHAR
STARTCHAR 020B
ENCODING 523
SWIDTH 120 0
DWIDTH 2 0
BBX 5 11 -1 0
BITMAP
60
D0
88
00
20
20
20
20
20
20
20
ENDCHAR
STARTCHAR 020C
ENCODING 524
SWIDTH 600 0
DWIDTH 10 0
BBX 9 14 1 0
BITMAP
6800
2800
0000
1C00
6600
4100
8100
8180
8080
8180
8180
C100
6200
3C00
ENDCHAR
STARTCHAR 020D
ENCODING 525
SWIDTH 480 0
DWIDTH 8 0
BBX 6 11 1 0
BITMAP
B0
50
28
30
78
C4
84
84
84
CC
78
ENDCHAR
STARTCHAR 020E
ENCODING 526
SWIDTH 600 0
DWIDTH 10 0
BBX 9 14 1 0
BITMAP
1C00
2400
0000
1C00
6600
4100
8100
8180
8080
8180
8180
C100
6200
3C00
ENDCHAR
STARTCHAR 020F
ENCODING 527
SWIDTH 480 0
DWIDTH 8 0
BBX 6 11 1 0
BITMAP
30
48
48
30
78
C4
84
84
84
CC
78
ENDCHAR
STARTCHAR 0210
ENCODING 528
SWIDTH 480 0
DWIDTH 8 0
BBX 7 14 1 0
BITMAP
B0
50
00
F0
9C
84
84
84
F8
98
88
8C
84
86
ENDCHAR
STARTCHAR 0211
ENCODING 529
SWIDTH 300 0
DWIDTH 5 0
BBX 5 11 0 0
BITMAP
B0
50
08
18
78
60
40
40
40
40
40
ENDCHAR
STARTCHAR 0212
ENCODING 530
SWIDTH 480 0
DWIDTH 8 0
BBX 7 14 1 0
BITMAP
70
48
00
F0
9C
84
84
84
F8
98
88
8C
84
86
ENDCHAR
STARTCHAR 0213
ENCODING 531
SWIDTH 300 0
DWIDTH 5 0
BBX 4 11 1 0
BITMAP
60
90
90
30
F0
C0
80
80
80
80
80
ENDCHAR
STARTCHAR 0214
ENCODING 532
SWIDTH 540 0
DWIDTH 9 0
BBX 8 14 1 0
BITMAP
48
28
00
81
81
81
81
81
81
81
81
83
46
3C
ENDCHAR
STARTCHAR 0215
ENCODING 533
SWIDTH 480 0
DWIDTH 8 0
BBX 6 11 1 0
BITMAP
B0
50
28
00
84
84
84
84
84
CC
7C
ENDCHAR
STARTCHAR 0216
ENCODING 534
SWIDTH 540 0
DWIDTH 9 0
BBX 8 14 1 0
BITMAP
38
24
00
81
81
81
81
81
81
81
81
83
46
3C
ENDCHAR
STARTCHAR 0217
ENCODING 535
SWIDTH 480 0
DWIDTH 8 0
BBX 6 11 1 0
BITMAP
30
48
48
00
84
84
84
84
84
CC
7C
ENDCHAR
STARTCHAR 0218
ENCODING 536
SWIDTH 480 0
DWIDTH 8 0
BBX 6 16 1 -5
BITMAP
38
4C
84
C0
60
38
0C
04
84
CC
78
00
30
30
10
20
ENDCHAR
STARTCHAR 0219
ENCODING 537
SWIDTH 360 0
DWIDTH 6 0
BBX 5 13 1 -5
BITMAP
60
F0
80
E0
30
18
98
70
00
60
20
20
40
ENDCHAR
STARTCHAR 021A
ENCODING 538
SWIDTH 480 0
DWIDTH 8 0
BBX 7 16 1 -5
BITMAP
FE
10
10
10
10
10
10
10
10
10
10
00
30
10
10
20
ENDCHAR
STARTCHAR 021B
ENCODING 539
SWIDTH 300 0
DWIDTH 5 0
BBX 4 15 1 -5
BITMAP
20
60
60
F0
60
60
60
60
60
70
00
60
60
20
40
ENDCHAR
STARTCHAR 021C
ENCODING 540
SWIDTH 480 0
DWIDTH 8 0
BBX 6 11 1 0
BITMAP
78
CC
04
04
0C
3C
E4
04
04
18
F0
ENDCHAR
STARTCHAR 021D
ENCODING 541
SWIDTH 480 0
DWIDTH 8 0
BBX 6 11 1 -3
BITMAP
30
FC
04
04
04
18
F4
04
04
0C
F0
ENDCHAR
STARTCHAR 021E
ENCODING 542
SWIDTH 480 0
DWIDTH 8 0
BBX 7 14 1 0
BITMAP
48
38
00
86
86
86
86
86
FE
86
86
86
86
86
ENDCHAR
STARTCHAR 021F
ENCODING 543
SWIDTH 480 0
DWIDTH 8 0
BBX 6 14 1 0
BITMAP
48
30
00
80
80
80
B0
FC
C4
84
84
84
84
84
ENDCHAR
STARTCHAR 0220
ENCODING 544
SWIDTH 540 0
DWIDTH 9 0
BBX 8 14 1 -3
BITMAP
BC
E6
C3
81
81
81
81
81
81
81
81
01
01
01
ENDCHAR
STARTCHAR 0221
ENCODING 545
SWIDTH 660 0
DWIDTH 11 0
BBX 10 14 1 -3
BITMAP
0400
0400
0400
3400
7C00
C400
8400
8440
84C0
CD40
7F80
0100
0100
0600
ENDCHAR
STARTCHAR 0222
ENCODING 546
SWIDTH 480 0
DWIDTH 8 0
BBX 6 11 1 0
BITMAP
84
84
C4
78
78
C4
84
84
84
CC
78
ENDCHAR
STARTCHAR 0223
ENCODING 547
SWIDTH 420 0
DWIDTH 7 0
BBX 6 11 1 0
BITMAP
88
8C
88
C8
78
D8
88
8C
88
C8
70
ENDCHAR
STARTCHAR 0224
ENCODING 548
SWIDTH 480 0
DWIDTH 8 0
BBX 7 14 1 -3
BITMAP
FE
02
04
0C
08
10
30
60
40
80
FE
02
02
0E
ENDCHAR
STARTCHAR 0225
ENCODING 549
SWIDTH 360 0
DWIDTH 6 0
BBX 5 10 1 -3
BITMAP
F8
10
30
60
40
80
F8
08
08
70
ENDCHAR
STARTCHAR 0226
ENCODING 550
SWIDTH 600 0
DWIDTH 10 0
BBX 9 14 1 0
BITMAP
0800
0800
0000
0800
1800
1400
1400
2600
2200
7E00
4300
4100
C100
8180
ENDCHAR
STARTCHAR 0227
ENCODING 551
SWIDTH 360 0
DWIDTH 6 0
BBX 5 10 1 0
BITMAP
60
00
20
78
08
28
F8
88
98
78
ENDCHAR
STARTCHAR 0228
ENCODING 552
SWIDTH 480 0
DWIDTH 8 0
BBX 7 14 1 -3
BITMAP
FE
80
80
80
80
FC
80
80
80
80
FE
10
08
38
ENDCHAR
STARTCHAR 0229
ENCODING 553
SWIDTH 480 0
DWIDTH 8 0
BBX 6 11 1 -3
BITMAP
30
78
C4
FC
80
80
CC
78
30
08
38
ENDCHAR
STARTCHAR 022A
ENCODING 554
SWIDTH 600 0
DWIDTH 10 0
BBX 9 14 1 0
BITMAP
3C00
2400
3600
1C00
6600
4100
8100
8180
8080
8180
8180
C100
6200
3C00
ENDCHAR
STARTCHAR 022B
ENCODING 555
SWIDTH 480 0
DWIDTH 8 0
BBX 6 13 1 0
BITMAP
78
78
00
68
00
30
78
C4
84
84
84
CC
78
ENDCHAR
STARTCHAR 022C
ENCODING 556
SWIDTH 600 0
DWIDTH 10 0
BBX 9 14 1 0
BITMAP
3C00
3200
4E00
1C00
6600
4100
8100
8180
8080
8180
8180
C100
6200
3C00
ENDCHAR
STARTCHAR 022D
ENCODING 557
SWIDTH 480 0
DWIDTH 8 0
BBX 6 13 1 0
BITMAP
78
00
44
B4
08
30
78
C4
84
84
84
CC
78
ENDCHAR
STARTCHAR 022E
ENCODING 558
SWIDTH 600 0
DWIDTH 10 0
BBX 9 14 1 0
BITMAP
0800
1800
0000
1C00
6600
4100
8100
8180
8080
8180
8180
C100
6200
3C00
ENDCHAR
STARTCHAR 022F
ENCODING 559
SWIDTH 480 0
DWIDTH 8 0
BBX 6 10 1 0
BITMAP
30
00
30
78
C4
84
84
84
CC
78
ENDCHAR
STARTCHAR 0230
ENCODING 560
SWIDTH 600 0
DWIDTH 10 0
BBX 9 14 1 0
BITMAP
3C00
0800
0800
1C00
6600
4100
8100
8180
8080
8180
8180
C100
6200
3C00
ENDCHAR
STARTCHAR 0231
ENCODING 561
SWIDTH 480 0
DWIDTH 8 0
BBX 6 13 1 0
BITMAP
78
78
00
30
00
30
78
C4
84
84
84
CC
78
ENDCHAR
STARTCHAR 0232
ENCODING 562
SWIDTH 600 0
DWIDTH 10 0
BBX 9 13 1 0
BITMAP
3C00
0000
8180
4300
6200
3600
1C00
1800
0800
0800
0800
0800
0800
ENDCHAR
STARTCHAR 0233
ENCODING 563
SWIDTH 480 0
DWIDTH 8 0
BBX 6 13 1 -3
BITMAP
78
00
00
84
44
48
68
38
30
30
30
20
60
ENDCHAR
STARTCHAR 0234
ENCODING 564
SWIDTH 360 0
DWIDTH 6 0
BBX 6 14 0 -3
BITMAP
40
40
40
40
40
40
40
44
5C
58
70
10
10
E0
ENDCHAR
STARTCHAR 0235
ENCODING 565
SWIDTH 660 0
DWIDTH 11 0
BBX 10 11 1 -3
BITMAP
3000
FC00
C400
8400
8440
84C0
8540
8780
0100
0100
0600
ENDCHAR
STARTCHAR 0236
ENCODING 566
SWIDTH 420 0
DWIDTH 7 0
BBX 6 12 1 -3
BITMAP
60
60
F0
60
60
60
6C
74
38
10
10
70
ENDCHAR
STARTCHAR 0237
ENCODING 567
SWIDTH 120 0
DWIDTH 2 0
BBX 3 10 -1 -3
BITMAP
20
20
20
20
20
20
20
20
20
E0
ENDCHAR
STARTCHAR 0238
ENCODING 568
SWIDTH 780 0
DWIDTH 13 0
BBX 12 11 1 0
BITMAP
0400
0400
0400
3580
7FE0
C620
8430
8430
8620
CE60
7DC0
ENDCHAR
STARTCHAR 0239
ENCODING 569
SWIDTH 780 0
DWIDTH 13 0
BBX 12 11 1 -4
BITMAP
3180
7FE0
C620
8430
8430
8620
CE60
7DC0
0400
0400
0400
ENDCHAR
STARTCHAR 023A
ENCODING 570
SWIDTH 600 0
DWIDTH 10 0
BBX 9 11 1 -1
BITMAP
0980
1900
1600
1600
2E00
2A00
7E00
7300
6100
C100
C180
ENDCHAR
STARTCHAR 023B
ENCODING 571
SWIDTH 540 0
DWIDTH 9 0
BBX 9 12 1 -1
BITMAP
1D80
6700
4300
8600
8C00
8800
9000
B000
E100
6200
FC00
8000
ENDCHAR
STARTCHAR 023C
ENCODING 572
SWIDTH 420 0
DWIDTH 7 0
BBX 6 9 1 0
BITMAP
34
7C
CC
90
B0
E0
CC
F8
80
ENDCHAR
STARTCHAR 023D
ENCODING 573
SWIDTH 540 0
DWIDTH 9 0
BBX 8 11 1 0
BITMAP
40
40
40
40
40
F0
40
40
40
40
7F
ENDCHAR
STARTCHAR 023E
ENCODING 574
SWIDTH 480 0
DWIDTH 8 0
BBX 9 12 0 -1
BITMAP
7F80
0B00
0A00
0C00
0C00
0800
1800
3800
6800
4800
C800
8000
ENDCHAR
STARTCHAR 023F
ENCODING 575
SWIDTH 360 0
DWIDTH 6 0
BBX 8 12 1 -4
BITMAP
20
F0
80
E0
30
18
98
70
10
08
0D
06
ENDCHAR
STARTCHAR 0240
ENCODING 576
SWIDTH 360 0
DWIDTH 6 0
BBX 7 11 1 -4
BITMAP
F8
10
30
60
40
80
E0
10
10
0E
06
ENDCHAR
STARTCHAR 0241
ENCODING 577
SWIDTH 480 0
DWIDTH 8 0
BBX 6 11 1 0
BITMAP
38
4C
84
84
04
04
0C
38
30
30
30
ENDCHAR
STARTCHAR 0242
ENCODING 578
SWIDTH 360 0
DWIDTH 6 0
BBX 4 8 1 0
BITMAP
60
F0
10
10
30
20
60
60
ENDCHAR
STARTCHAR 0243
ENCODING 579
SWIDTH 540 0
DWIDTH 9 0
BBX 8 11 1 0
BITMAP
7C
46
42
42
46
7E
43
F1
41
42
7C
ENDCHAR
STARTCHAR 0244
ENCODING 580
SWIDTH 660 0
DWIDTH 11 0
BBX 10 11 1 0
BITMAP
4080
4080
4080
4080
4080
FFC0
4080
4080
4180
6300
3E00
ENDCHAR
STARTCHAR 0245
ENCODING 581
SWIDTH 600 0
DWIDTH 10 0
BBX 9 11 1 0
BITMAP
0800
1800
1400
1400
2600
2200
6200
4300
4100
C100
8180
ENDCHAR
STARTCHAR 0246
ENCODING 582
SWIDTH 480 0
DWIDTH 8 0
BBX 9 12 0 -1
BITMAP
7F80
4300
4200
4400
4C00
7E00
5000
7000
6000
4000
FF00
8000
ENDCHAR
STARTCHAR 0247
ENCODING 583
SWIDTH 480 0
DWIDTH 8 0
BBX 6 9 1 0
BITMAP
34
7C
CC
FC
B0
E0
CC
F8
80
ENDCHAR
STARTCHAR 0248
ENCODING 584
SWIDTH 420 0
DWIDTH 7 0
BBX 6 11 1 0
BITMAP
10
10
10
10
10
3C
10
10
10
90
F0
ENDCHAR
STARTCHAR 0249
ENCODING 585
SWIDTH 300 0
DWIDTH 5 0
BBX 5 13 0 -3
BITMAP
30
00
00
30
30
30
78
30
30
30
30
30
E0
ENDCHAR
STARTCHAR 024A
ENCODING 586
SWIDTH 600 0
DWIDTH 10 0
BBX 11 14 1 -3
BITMAP
1C80
6680
4180
8180
8180
8080
8180
8180
C180
6280
3C80
0080
0080
00E0
ENDCHAR
STARTCHAR 024B
ENCODING 587
SWIDTH 480 0
DWIDTH 8 0
BBX 9 11 1 -3
BITMAP
3000
7C00
C400
8400
8400
8400
CC00
7C00
0400
0400
0380
ENDCHAR
STARTCHAR 024C
ENCODING 588
SWIDTH 600 0
DWIDTH 10 0
BBX 8 11 1 0
BITMAP
7C
46
42
42
42
FC
4C
44
42
42
41
ENDCHAR
STARTCHAR 024D
ENCODING 589
SWIDTH 360 0
DWIDTH 6 0
BBX 5 8 1 0
BITMAP
18
78
60
40
F0
40
40
40
ENDCHAR
STARTCHAR 024E
ENCODING 590
SWIDTH 600 0
DWIDTH 10 0
BBX 9 11 1 0
BITMAP
8180
4300
FF80
3600
1C00
1800
0800
0800
0800
0800
0800
ENDCHAR
STARTCHAR 024F
ENCODING 591
SWIDTH 480 0
DWIDTH 8 0
BBX 7 10 1 -3
BITMAP
84
44
48
FE
38
30
30
30
20
60
ENDCHAR
STARTCHAR 0250
ENCODING 592
SWIDTH 360 0
DWIDTH 6 0
BBX 5 8 1 0
BITMAP
60
F8
88
98
F0
80
90
70
ENDCHAR
STARTCHAR 0251
ENCODING 593
SWIDTH 480 0
DWIDTH 8 0
BBX 6 8 1 0
BITMAP
30
7C
C4
84
84
84
CC
7C
ENDCHAR
STARTCHAR 0252
ENCODING 594
SWIDTH 480 0
DWIDTH 8 0
BBX 6 8 1 0
BITMAP
30
F8
C4
84
84
84
CC
F8
ENDCHAR
STARTCHAR 0253
ENCODING 595
SWIDTH 480 0
DWIDTH 8 0
BBX 6 11 1 0
BITMAP
60
80
80
B0
F8
C4
84
84
84
CC
F8
ENDCHAR
STARTCHAR 0254
ENCODING 596
SWIDTH 420 0
DWIDTH 7 0
BBX 6 8 1 0
BITMAP
30
F8
8C
04
04
0C
C8
70
ENDCHAR
STARTCHAR 0255
ENCODING 597
SWIDTH 420 0
DWIDTH 7 0
BBX 6 11 1 -3
BITMAP
30
78
C4
80
80
8C
CC
78
10
10
70
ENDCHAR
STARTCHAR 0256
ENCODING 598
SWIDTH 480 0
DWIDTH 8 0
BBX 9 14 1 -3
BITMAP
0400
0400
0400
3400
7C00
C400
8400
8400
8400
CC00
7C00
0400
0400
0380
ENDCHAR
STARTCHAR 0257
ENCODING 599
SWIDTH 480 0
DWIDTH 8 0
BBX 9 11 1 0
BITMAP
0380
0600
0400
3400
7C00
C400
8400
8400
8400
CC00
7C00
ENDCHAR
STARTCHAR 0258
ENCODING 600
SWIDTH 480 0
DWIDTH 8 0
BBX 6 8 1 0
BITMAP
30
78
C4
FC
04
04
CC
78
ENDCHAR
STARTCHAR 0259
ENCODING 601
SWIDTH 480 0
DWIDTH 8 0
BBX 6 8 1 0
BITMAP
30
78
C4
04
FC
84
CC
78
ENDCHAR
STARTCHAR 025A
ENCODING 602
SWIDTH 660 0
DWIDTH 11 0
BBX 10 8 1 0
BITMAP
3000
7800
C400
0540
FF40
8580
CC00
7800
ENDCHAR
STARTCHAR 025B
ENCODING 603
SWIDTH 360 0
DWIDTH 6 0
BBX 5 8 1 0
BITMAP
60
F0
80
E0
E0
80
98
70
ENDCHAR
STARTCHAR 025C
ENCODING 604
SWIDTH 360 0
DWIDTH 6 0
BBX 5 8 1 0
BITMAP
60
F0
10
30
30
18
98
70
ENDCHAR
STARTCHAR 025D
ENCODING 605
SWIDTH 540 0
DWIDTH 9 0
BBX 8 8 1 0
BITMAP
60
F1
1D
36
30
18
98
70
ENDCHAR
STARTCHAR 025E
ENCODING 606
SWIDTH 420 0
DWIDTH 7 0
BBX 6 8 1 0
BITMAP
30
78
C8
98
98
8C
C8
78
ENDCHAR
STARTCHAR 025F
ENCODING 607
SWIDTH 300 0
DWIDTH 5 0
BBX 5 10 0 -3
BITMAP
20
20
20
20
20
78
20
20
20
E0
ENDCHAR
STARTCHAR 0260
ENCODING 608
SWIDTH 480 0
DWIDTH 8 0
BBX 8 14 1 -3
BITMAP
03
06
04
34
7C
C4
84
84
84
CC
7C
04
04
7C
ENDCHAR
STARTCHAR 0261
ENCODING 609
SWIDTH 480 0
DWIDTH 8 0
BBX 6 11 1 -3
BITMAP
30
7C
C4
84
84
84
CC
7C
04
04
7C
ENDCHAR
STARTCHAR 0262
ENCODING 610
SWIDTH 420 0
DWIDTH 7 0
BBX 6 8 1 0
BITMAP
30
78
C4
80
9C
84
CC
78
ENDCHAR
STARTCHAR 0263
ENCODING 611
SWIDTH 480 0
DWIDTH 8 0
BBX 6 10 1 -3
BITMAP
84
44
48
68
38
30
30
30
38
38
ENDCHAR
STARTCHAR 0264
ENCODING 612
SWIDTH 600 0
DWIDTH 10 0
BBX 9 8 1 0
BITMAP
6300
F780
1400
1800
0800
1C00
1400
1C00
ENDCHAR
STARTCHAR 0265
ENCODING 613
SWIDTH 480 0
DWIDTH 8 0
BBX 6 10 1 -4
BITMAP
84
84
84
84
84
CC
7C
04
04
04
ENDCHAR
STARTCHAR 0266
ENCODING 614
SWIDTH 480 0
DWIDTH 8 0
BBX 6 11 1 0
BITMAP
60
80
80
B0
FC
C4
84
84
84
84
84
ENDCHAR
STARTCHAR 0267
ENCODING 615
SWIDTH 480 0
DWIDTH 8 0
BBX 6 14 1 -3
BITMAP
60
80
80
B0
FC
C4
84
84
84
84
84
04
04
1C
ENDCHAR
STARTCHAR 0268
ENCODING 616
SWIDTH 300 0
DWIDTH 5 0
BBX 3 10 1 0
BITMAP
60
00
00
40
40
40
E0
40
40
40
ENDCHAR
STARTCHAR 0269
ENCODING 617
SWIDTH 240 0
DWIDTH 4 0
BBX 2 7 1 0
BITMAP
80
80
80
80
80
80
C0
ENDCHAR
STARTCHAR 026A
ENCODING 618
SWIDTH 300 0
DWIDTH 5 0
BBX 3 7 1 0
BITMAP
E0
40
40
40
40
40
E0
ENDCHAR
STARTCHAR 026B
ENCODING 619
SWIDTH 420 0
DWIDTH 7 0
BBX 5 11 1 0
BITMAP
20
20
20
20
20
E8
B8
20
20
20
38
ENDCHAR
STARTCHAR 026C
ENCODING 620
SWIDTH 420 0
DWIDTH 7 0
BBX 6 11 1 0
BITMAP
30
30
30
F0
BC
B8
F8
30
30
30
38
ENDCHAR
STARTCHAR 026D
ENCODING 621
SWIDTH 120 0
DWIDTH 2 0
BBX 3 14 1 -3
BITMAP
80
80
80
80
80
80
80
80
80
80
80
80
80
E0
ENDCHAR
STARTCHAR 026E
ENCODING 622
SWIDTH 480 0
DWIDTH 8 0
BBX 6 14 1 -3
BITMAP
80
80
80
80
FC
8C
88
98
8C
84
84
04
04
78
ENDCHAR
STARTCHAR 026F
ENCODING 623
SWIDTH 600 0
DWIDTH 10 0
BBX 8 7 1 0
BITMAP
99
99
99
99
99
9B
6F
ENDCHAR
STARTCHAR 0270
ENCODING 624
SWIDTH 600 0
DWIDTH 10 0
BBX 8 10 1 -4
BITMAP
99
99
99
99
99
9B
6F
01
01
01
ENDCHAR
STARTCHAR 0271
ENCODING 625
SWIDTH 600 0
DWIDTH 10 0
BBX 8 11 1 -3
BITMAP
26
FF
99
99
99
99
99
99
01
01
07
ENDCHAR
STARTCHAR 0272
ENCODING 626
SWIDTH 480 0
DWIDTH 8 0
BBX 8 11 -1 -3
BITMAP
0C
3F
31
21
21
21
21
21
20
20
E0
ENDCHAR
STARTCHAR 0273
ENCODING 627
SWIDTH 480 0
DWIDTH 8 0
BBX 9 11 1 -3
BITMAP
3000
FC00
C400
8400
8400
8400
8400
8400
0400
0400
0380
ENDCHAR
STARTCHAR 0274
ENCODING 628
SWIDTH 420 0
DWIDTH 7 0
BBX 6 7 1 0
BITMAP
C4
C4
A4
B4
9C
8C
8C
ENDCHAR
STARTCHAR 0275
ENCODING 629
SWIDTH 480 0
DWIDTH 8 0
BBX 6 8 1 0
BITMAP
30
78
C4
84
FC
84
CC
78
ENDCHAR
STARTCHAR 0276
ENCODING 630
SWIDTH 720 0
DWIDTH 12 0
BBX 10 8 1 0
BITMAP
3000
7FC0
C400
8400
8780
8400
CC00
7FC0
ENDCHAR
STARTCHAR 0277
ENCODING 631
SWIDTH 600 0
DWIDTH 10 0
BBX 8 8 1 0
BITMAP
3C
7F
81
81
99
99
D9
76
ENDCHAR
STARTCHAR 0278
ENCODING 632
SWIDTH 480 0
DWIDTH 8 0
BBX 6 15 1 -4
BITMAP
30
30
30
30
78
F4
B4
B4
B4
FC
78
30
30
30
10
ENDCHAR
STARTCHAR 0279
ENCODING 633
SWIDTH 300 0
DWIDTH 5 0
BBX 4 7 1 0
BITMAP
10
10
10
10
30
30
D0
ENDCHAR
STARTCHAR 027A
ENCODING 634
SWIDTH 300 0
DWIDTH 5 0
BBX 4 11 1 0
BITMAP
10
10
10
10
10
10
10
10
30
30
D0
ENDCHAR
STARTCHAR 027B
ENCODING 635
SWIDTH 300 0
DWIDTH 5 0
BBX 6 10 1 -3
BITMAP
10
10
10
10
30
30
D0
10
10
1C
ENDCHAR
STARTCHAR 027C
ENCODING 636
SWIDTH 300 0
DWIDTH 5 0
BBX 4 11 1 -4
BITMAP
30
F0
C0
80
80
80
80
80
80
80
80
ENDCHAR
STARTCHAR 027D
ENCODING 637
SWIDTH 300 0
DWIDTH 5 0
BBX 4 11 1 -3
BITMAP
30
F0
C0
80
80
80
80
80
80
80
E0
ENDCHAR
STARTCHAR 027E
ENCODING 638
SWIDTH 300 0
DWIDTH 5 0
BBX 3 8 1 0
BITMAP
60
E0
80
80
80
80
80
80
ENDCHAR
STARTCHAR 027F
ENCODING 639
SWIDTH 300 0
DWIDTH 5 0
BBX 4 12 1 -4
BITMAP
C0
E0
30
30
30
30
30
30
30
30
30
10
ENDCHAR
STARTCHAR 0280
ENCODING 640
SWIDTH 360 0
DWIDTH 6 0
BBX 5 7 1 0
BITMAP
F0
90
90
F0
B0
90
98
ENDCHAR
STARTCHAR 0281
ENCODING 641
SWIDTH 360 0
DWIDTH 6 0
BBX 5 7 1 0
BITMAP
98
90
E0
F0
90
90
E0
ENDCHAR
STARTCHAR 0282
ENCODING 642
SWIDTH 360 0
DWIDTH 6 0
BBX 5 11 1 -3
BITMAP
20
F0
80
E0
30
18
98
F0
80
80
E0
ENDCHAR
STARTCHAR 0283
ENCODING 643
SWIDTH 120 0
DWIDTH 2 0
BBX 5 14 -1 -3
BITMAP
18
20
20
20
20
20
20
20
20
20
20
20
20
E0
ENDCHAR
STARTCHAR 0284
ENCODING 644
SWIDTH 120 0
DWIDTH 2 0
BBX 5 14 -1 -3
BITMAP
18
20
20
20
20
20
20
20
20
20
F8
20
20
E0
ENDCHAR
STARTCHAR 0285
ENCODING 645
SWIDTH 300 0
DWIDTH 5 0
BBX 6 11 1 -3
BITMAP
C0
E0
30
30
30
30
30
30
30
30
1C
ENDCHAR
STARTCHAR 0286
ENCODING 646
SWIDTH 420 0
DWIDTH 7 0
BBX 7 14 0 -3
BITMAP
0E
18
10
10
10
10
10
10
10
10
78
D4
D4
70
ENDCHAR
STARTCHAR 0287
ENCODING 647
SWIDTH 300 0
DWIDTH 5 0
BBX 4 9 1 -2
BITMAP
C0
40
40
40
40
40
F0
40
40
ENDCHAR
STARTCHAR 0288
ENCODING 648
SWIDTH 300 0
DWIDTH 5 0
BBX 5 12 1 -3
BITMAP
60
60
F0
60
60
60
60
60
60
60
60
38
ENDCHAR
STARTCHAR 0289
ENCODING 649
SWIDTH 600 0
DWIDTH 10 0
BBX 9 7 1 0
BITMAP
4300
4300
4300
FF80
4300
2700
3F00
ENDCHAR
STARTCHAR 028A
ENCODING 650
SWIDTH 480 0
DWIDTH 8 0
BBX 6 7 1 0
BITMAP
CC
C4
84
84
84
CC
78
ENDCHAR
STARTCHAR 028B
ENCODING 651
SWIDTH 420 0
DWIDTH 7 0
BBX 6 8 1 0
BITMAP
10
98
4C
48
68
38
30
30
ENDCHAR
STARTCHAR 028C
ENCODING 652
SWIDTH 480 0
DWIDTH 8 0
BBX 6 7 1 0
BITMAP
30
38
68
48
4C
C4
84
ENDCHAR
STARTCHAR 028D
ENCODING 653
SWIDTH 600 0
DWIDTH 10 0
BBX 9 7 1 0
BITMAP
2200
7700
5500
5500
D500
9D80
8880
ENDCHAR
STARTCHAR 028E
ENCODING 654
SWIDTH 480 0
DWIDTH 8 0
BBX 6 11 1 0
BITMAP
0C
18
10
10
30
38
68
48
4C
C4
84
ENDCHAR
STARTCHAR 028F
ENCODING 655
SWIDTH 480 0
DWIDTH 8 0
BBX 6 7 1 0
BITMAP
CC
68
30
10
10
10
10
ENDCHAR
STARTCHAR 0290
ENCODING 656
SWIDTH 360 0
DWIDTH 6 0
BBX 7 10 1 -3
BITMAP
F8
10
30
60
40
80
F8
08
08
0E
ENDCHAR
STARTCHAR 0291
ENCODING 657
SWIDTH 420 0
DWIDTH 7 0
BBX 5 10 1 -3
BITMAP
F8
10
30
60
58
98
F0
10
10
E0
ENDCHAR
STARTCHAR 0292
ENCODING 658
SWIDTH 420 0
DWIDTH 7 0
BBX 6 10 1 -3
BITMAP
FC
18
10
30
18
08
0C
08
08
F0
ENDCHAR
STARTCHAR 0293
ENCODING 659
SWIDTH 420 0
DWIDTH 7 0
BBX 7 14 0 -7
BITMAP
7E
0C
08
18
0C
04
06
C4
C4
78
40
20
28
10
ENDCHAR
STARTCHAR 0294
ENCODING 660
SWIDTH 420 0
DWIDTH 7 0
BBX 5 11 1 0
BITMAP
70
D8
88
08
08
18
30
20
20
20
20
ENDCHAR
STARTCHAR 0295
ENCODING 661
SWIDTH 420 0
DWIDTH 7 0
BBX 5 11 1 0
BITMAP
70
D8
88
80
80
40
20
20
20
20
20
ENDCHAR
STARTCHAR 0296
ENCODING 662
SWIDTH 420 0
DWIDTH 7 0
BBX 6 11 1 0
BITMAP
20
20
20
20
30
10
08
08
8C
C8
78
ENDCHAR
STARTCHAR 0297
ENCODING 663
SWIDTH 480 0
DWIDTH 8 0
BBX 6 11 1 -3
BITMAP
30
78
C4
80
80
80
80
80
80
4C
78
ENDCHAR
STARTCHAR 0298
ENCODING 664
SWIDTH 480 0
DWIDTH 8 0
BBX 6 11 1 0
BITMAP
30
48
CC
84
84
B4
84
84
C4
48
38
ENDCHAR
STARTCHAR 0299
ENCODING 665
SWIDTH 360 0
DWIDTH 6 0
BBX 5 7 1 0
BITMAP
F0
88
F0
F8
88
98
F0
ENDCHAR
STARTCHAR 029A
ENCODING 666
SWIDTH 420 0
DWIDTH 7 0
BBX 6 8 1 0
BITMAP
60
F8
88
E8
EC
88
98
70
ENDCHAR
STARTCHAR 029B
ENCODING 667
SWIDTH 420 0
DWIDTH 7 0
BBX 8 11 1 0
BITMAP
03
04
04
34
7C
C4
80
9C
84
CC
78
ENDCHAR
STARTCHAR 029C
ENCODING 668
SWIDTH 420 0
DWIDTH 7 0
BBX 6 7 1 0
BITMAP
8C
8C
8C
FC
8C
8C
8C
ENDCHAR
STARTCHAR 029D
ENCODING 669
SWIDTH 420 0
DWIDTH 7 0
BBX 6 13 1 -3
BITMAP
30
00
00
30
30
30
30
30
30
78
B8
BC
E0
ENDCHAR
STARTCHAR 029E
ENCODING 670
SWIDTH 420 0
DWIDTH 7 0
BBX 6 10 1 -3
BITMAP
CC
6C
2C
1C
3C
2C
4C
0C
0C
0C
ENDCHAR
STARTCHAR 029F
ENCODING 671
SWIDTH 360 0
DWIDTH 6 0
BBX 4 7 1 0
BITMAP
80
80
80
80
80
80
F0
ENDCHAR
STARTCHAR 02A0
ENCODING 672
SWIDTH 480 0
DWIDTH 8 0
BBX 8 14 1 -4
BITMAP
03
06
04
34
7C
C4
84
84
84
CC
7C
04
04
04
ENDCHAR
STARTCHAR 02A1
ENCODING 673
SWIDTH 420 0
DWIDTH 7 0
BBX 5 11 1 0
BITMAP
70
D8
88
08
08
18
30
78
20
20
20
ENDCHAR
STARTCHAR 02A2
ENCODING 674
SWIDTH 420 0
DWIDTH 7 0
BBX 5 11 1 0
BITMAP
70
D8
88
80
80
40
20
78
20
20
20
ENDCHAR
STARTCHAR 02A3
ENCODING 675
SWIDTH 780 0
DWIDTH 13 0
BBX 11 11 1 0
BITMAP
0400
0400
0400
3400
7FE0
C460
8440
8480
8580
CD00
7FE0
ENDCHAR
STARTCHAR 02A4
ENCODING 676
SWIDTH 780 0
DWIDTH 13 0
BBX 11 14 1 -3
BITMAP
0400
0400
0400
3400
7FE0
C460
84C0
8480
8460
CC20
7C20
0020
0260
03C0
ENDCHAR
STARTCHAR 02A5
ENCODING 677
SWIDTH 780 0
DWIDTH 13 0
BBX 12 14 1 -3
BITMAP
0400
0400
0400
3400
7FE0
C460
8440
8480
85B0
CD50
7FE0
0040
0040
01C0
ENDCHAR
STARTCHAR 02A6
ENCODING 678
SWIDTH 600 0
DWIDTH 10 0
BBX 9 10 1 0
BITMAP
2000
6000
6200
FF00
6800
6E00
6300
6080
6180
7F00
ENDCHAR
STARTCHAR 02A7
ENCODING 679
SWIDTH 420 0
DWIDTH 7 0
BBX 8 14 1 -3
BITMAP
03
24
64
64
F4
64
64
64
64
64
7C
04
04
38
ENDCHAR
STARTCHAR 02A8
ENCODING 680
SWIDTH 660 0
DWIDTH 11 0
BBX 10 13 1 -3
BITMAP
2000
6000
6300
F780
6C40
6800
6800
68C0
6CC0
7F80
0100
0100
0700
ENDCHAR
STARTCHAR 02A9
ENCODING 681
SWIDTH 720 0
DWIDTH 12 0
BBX 10 14 1 -3
BITMAP
3800
6000
6000
6100
FFC0
6C40
6840
6840
6840
6840
6840
0040
0040
01C0
ENDCHAR
STARTCHAR 02AA
ENCODING 682
SWIDTH 480 0
DWIDTH 8 0
BBX 6 11 1 0
BITMAP
80
80
80
98
BC
A0
B0
8C
84
84
F8
ENDCHAR
STARTCHAR 02AB
ENCODING 683
SWIDTH 480 0
DWIDTH 8 0
BBX 7 11 1 0
BITMAP
80
80
80
80
BE
86
8C
88
90
B0
FE
ENDCHAR
STARTCHAR 02AC
ENCODING 684
SWIDTH 360 0
DWIDTH 6 0
BBX 5 8 1 0
BITMAP
A8
F0
50
50
A8
F0
D0
50
ENDCHAR
STARTCHAR 02AD
ENCODING 685
SWIDTH 420 0
DWIDTH 7 0
BBX 6 7 1 0
BITMAP
FC
8C
00
00
00
FC
8C
ENDCHAR
STARTCHAR 02AE
ENCODING 686
SWIDTH 600 0
DWIDTH 10 0
BBX 9 11 1 -4
BITMAP
C000
E080
3080
3080
3080
1180
1380
0E80
0080
0080
0080
ENDCHAR
STARTCHAR 02AF
ENCODING 687
SWIDTH 600 0
DWIDTH 10 0
BBX 11 11 1 -3
BITMAP
C000
E080
3080
3080
3080
1180
1380
0E80
0080
0080
00E0
ENDCHAR
STARTCHAR 02B0
ENCODING 688
SWIDTH 300 0
DWIDTH 5 0
BBX 3 6 1 7
BITMAP
80
80
E0
A0
A0
A0
ENDCHAR
STARTCHAR 02B1
ENCODING 689
SWIDTH 300 0
DWIDTH 5 0
BBX 3 6 1 7
BITMAP
C0
80
E0
A0
A0
A0
ENDCHAR
STARTCHAR 02B2
ENCODING 690
SWIDTH 180 0
DWIDTH 3 0
BBX 2 7 1 6
BITMAP
40
00
40
40
40
40
C0
ENDCHAR
STARTCHAR 02B3
ENCODING 691
SWIDTH 180 0
DWIDTH 3 0
BBX 2 4 1 7
BITMAP
C0
80
80
80
ENDCHAR
STARTCHAR 02B4
ENCODING 692
SWIDTH 180 0
DWIDTH 3 0
BBX 2 4 1 7
BITMAP
40
40
40
C0
ENDCHAR
STARTCHAR 02B5
ENCODING 693
SWIDTH 300 0
DWIDTH 5 0
BBX 3 5 1 6
BITMAP
40
40
40
C0
60
ENDCHAR
STARTCHAR 02B6
ENCODING 694
SWIDTH 240 0
DWIDTH 4 0
BBX 2 4 1 7
BITMAP
C0
C0
C0
C0
ENDCHAR
STARTCHAR 02B7
ENCODING 695
SWIDTH 360 0
DWIDTH 6 0
BBX 5 4 1 7
BITMAP
A8
F0
50
50
ENDCHAR
STARTCHAR 02B8
ENCODING 696
SWIDTH 300 0
DWIDTH 5 0
BBX 3 5 1 6
BITMAP
A0
A0
40
40
C0
ENDCHAR
STARTCHAR 02B9
ENCODING 697
SWIDTH 240 0
DWIDTH 4 0
BBX 2 5 1 7
BITMAP
40
C0
80
80
80
ENDCHAR
STARTCHAR 02BA
ENCODING 698
SWIDTH 360 0
DWIDTH 6 0
BBX 5 5 1 7
BITMAP
58
D0
90
A0
A0
ENDCHAR
STARTCHAR 02BB
ENCODING 699
SWIDTH 180 0
DWIDTH 3 0
BBX 3 4 0 6
BITMAP
20
C0
80
60
ENDCHAR
STARTCHAR 02BC
ENCODING 700
SWIDTH 180 0
DWIDTH 3 0
BBX 2 4 1 6
BITMAP
C0
C0
40
80
ENDCHAR
STARTCHAR 02BD
ENCODING 701
SWIDTH 180 0
DWIDTH 3 0
BBX 3 4 0 6
BITMAP
60
E0
80
40
ENDCHAR
STARTCHAR 02BE
ENCODING 702
SWIDTH 180 0
DWIDTH 3 0
BBX 1 3 1 8
BITMAP
80
80
80
ENDCHAR
STARTCHAR 02BF
ENCODING 703
SWIDTH 180 0
DWIDTH 3 0
BBX 1 3 1 8
BITMAP
80
80
80
ENDCHAR
STARTCHAR 02C0
ENCODING 704
SWIDTH 240 0
DWIDTH 4 0
BBX 3 6 1 7
BITMAP
E0
A0
20
40
40
40
ENDCHAR
STARTCHAR 02C1
ENCODING 705
SWIDTH 240 0
DWIDTH 4 0
BBX 3 6 1 7
BITMAP
E0
A0
80
40
40
40
ENDCHAR
STARTCHAR 02C2
ENCODING 706
SWIDTH 360 0
DWIDTH 6 0
BBX 5 6 1 3
BITMAP
10
30
E0
70
10
08
ENDCHAR
STARTCHAR 02C3
ENCODING 707
SWIDTH 360 0
DWIDTH 6 0
BBX 5 6 1 3
BITMAP
C0
60
78
60
40
80
ENDCHAR
STARTCHAR 02C4
ENCODING 708
SWIDTH 480 0
DWIDTH 8 0
BBX 6 4 1 4
BITMAP
30
38
78
84
ENDCHAR
STARTCHAR 02C5
ENCODING 709
SWIDTH 480 0
DWIDTH 8 0
BBX 6 4 1 4
BITMAP
CC
78
30
20
ENDCHAR
STARTCHAR 02C6
ENCODING 710
SWIDTH 300 0
DWIDTH 5 0
BBX 4 3 1 8
BITMAP
60
A0
10
ENDCHAR
STARTCHAR 02C7
ENCODING 711
SWIDTH 300 0
DWIDTH 5 0
BBX 4 3 1 8
BITMAP
10
A0
60
ENDCHAR
STARTCHAR 02C8
ENCODING 712
SWIDTH 120 0
DWIDTH 2 0
BBX 1 4 1 8
BITMAP
80
80
80
80
ENDCHAR
STARTCHAR 02C9
ENCODING 713
SWIDTH 300 0
DWIDTH 5 0
BBX 4 1 1 9
BITMAP
F0
ENDCHAR
STARTCHAR 02CA
ENCODING 714
SWIDTH 240 0
DWIDTH 4 0
BBX 2 2 1 8
BITMAP
40
80
ENDCHAR
STARTCHAR 02CB
ENCODING 715
SWIDTH 240 0
DWIDTH 4 0
BBX 3 3 1 8
BITMAP
C0
40
20
ENDCHAR
STARTCHAR 02CC
ENCODING 716
SWIDTH 120 0
DWIDTH 2 0
BBX 1 4 1 -5
BITMAP
80
80
80
80
ENDCHAR
STARTCHAR 02CD
ENCODING 717
SWIDTH 300 0
DWIDTH 5 0
BBX 4 1 1 -3
BITMAP
F0
ENDCHAR
STARTCHAR 02CE
ENCODING 718
SWIDTH 240 0
DWIDTH 4 0
BBX 2 2 1 -3
BITMAP
C0
40
ENDCHAR
STARTCHAR 02CF
ENCODING 719
SWIDTH 240 0
DWIDTH 4 0
BBX 2 2 1 -3
BITMAP
40
80
ENDCHAR
STARTCHAR 02D0
ENCODING 720
SWIDTH 240 0
DWIDTH 4 0
BBX 2 7 1 0
BITMAP
C0
80
00
00
00
40
C0
ENDCHAR
STARTCHAR 02D1
ENCODING 721
SWIDTH 240 0
DWIDTH 4 0
BBX 2 2 1 5
BITMAP
C0
80
ENDCHAR
STARTCHAR 02D2
ENCODING 722
SWIDTH 180 0
DWIDTH 3 0
BBX 1 3 1 4
BITMAP
80
80
80
ENDCHAR
STARTCHAR 02D3
ENCODING 723
SWIDTH 180 0
DWIDTH 3 0
BBX 1 3 1 4
BITMAP
80
80
80
ENDCHAR
STARTCHAR 02D4
ENCODING 724
SWIDTH 420 0
DWIDTH 7 0
BBX 6 3 1 5
BITMAP
20
20
FC
ENDCHAR
STARTCHAR 02D5
ENCODING 725
SWIDTH 420 0
DWIDTH 7 0
BBX 6 3 1 3
BITMAP
FC
20
20
ENDCHAR
STARTCHAR 02D6
ENCODING 726
SWIDTH 420 0
DWIDTH 7 0
BBX 6 5 1 3
BITMAP
20
20
FC
20
20
ENDCHAR
STARTCHAR 02D7
ENCODING 727
SWIDTH 420 0
DWIDTH 7 0
BBX 6 1 1 5
BITMAP
FC
ENDCHAR
STARTCHAR 02D8
ENCODING 728
SWIDTH 360 0
DWIDTH 6 0
BBX 4 3 1 8
BITMAP
90
D0
20
ENDCHAR
STARTCHAR 02D9
ENCODING 729
SWIDTH 180 0
DWIDTH 3 0
BBX 2 1 1 9
BITMAP
C0
ENDCHAR
STARTCHAR 02DA
ENCODING 730
SWIDTH 240 0
DWIDTH 4 0
BBX 3 3 1 8
BITMAP
C0
A0
C0
ENDCHAR
STARTCHAR 02DB
ENCODING 731
SWIDTH 300 0
DWIDTH 5 0
BBX 3 3 1 -2
BITMAP
80
80
E0
ENDCHAR
STARTCHAR 02DC
ENCODING 732
SWIDTH 420 0
DWIDTH 7 0
BBX 6 2 1 9
BITMAP
04
F8
ENDCHAR
STARTCHAR 02DD
ENCODING 733
SWIDTH 360 0
DWIDTH 6 0
BBX 5 3 1 8
BITMAP
58
90
20
ENDCHAR
STARTCHAR 02DE
ENCODING 734
SWIDTH 240 0
DWIDTH 4 0
BBX 4 3 0 2
BITMAP
10
90
60
ENDCHAR
STARTCHAR 02DF
ENCODING 735
SWIDTH 300 0
DWIDTH 5 0
BBX 3 3 1 8
BITMAP
A0
40
A0
ENDCHAR
STARTCHAR 02E0
ENCODING 736
SWIDTH 300 0
DWIDTH 5 0
BBX 3 5 1 6
BITMAP
A0
A0
40
40
60
ENDCHAR
STARTCHAR 02E1
ENCODING 737
SWIDTH 180 0
DWIDTH 3 0
BBX 1 6 1 7
BITMAP
80
80
80
80
80
80
ENDCHAR
STARTCHAR 02E2
ENCODING 738
SWIDTH 240 0
DWIDTH 4 0
BBX 2 4 1 7
BITMAP
C0
C0
C0
C0
ENDCHAR
STARTCHAR 02E3
ENCODING 739
SWIDTH 300 0
DWIDTH 5 0
BBX 4 4 1 7
BITMAP
A0
40
60
90
ENDCHAR
STARTCHAR 02E4
ENCODING 740
SWIDTH 240 0
DWIDTH 4 0
BBX 3 6 1 7
BITMAP
E0
A0
80
40
40
40
ENDCHAR
STARTCHAR 02E5
ENCODING 741
SWIDTH 300 0
DWIDTH 5 0
BBX 4 11 1 0
BITMAP
F0
10
10
10
10
10
10
10
10
10
10
ENDCHAR
STARTCHAR 02E6
ENCODING 742
SWIDTH 300 0
DWIDTH 5 0
BBX 4 11 1 0
BITMAP
10
10
10
F0
10
10
10
10
10
10
10
ENDCHAR
STARTCHAR 02E7
ENCODING 743
SWIDTH 300 0
DWIDTH 5 0
BBX 4 11 1 0
BITMAP
10
10
10
10
10
F0
10
10
10
10
10
ENDCHAR
STARTCHAR 02E8
ENCODING 744
SWIDTH 300 0
DWIDTH 5 0
BBX 4 11 1 0
BITMAP
10
10
10
10
10
10
10
F0
F0
10
10
ENDCHAR
STARTCHAR 02E9
ENCODING 745
SWIDTH 300 0
DWIDTH 5 0
BBX 4 11 1 0
BITMAP
10
10
10
10
10
10
10
10
10
10
F0
ENDCHAR
STARTCHAR 02EA
ENCODING 746
SWIDTH 300 0
DWIDTH 5 0
BBX 3 7 1 0
BITMAP
80
80
80
80
80
80
E0
ENDCHAR
STARTCHAR 02EB
ENCODING 747
SWIDTH 300 0
DWIDTH 5 0
BBX 3 7 1 0
BITMAP
80
80
80
E0
80
80
80
ENDCHAR
STARTCHAR 02EC
ENCODING 748
SWIDTH 300 0
DWIDTH 5 0
BBX 4 2 1 -3
BITMAP
90
60
ENDCHAR
STARTCHAR 02ED
ENCODING 749
SWIDTH 300 0
DWIDTH 5 0
BBX 4 2 1 9
BITMAP
F0
F0
ENDCHAR
STARTCHAR 02EE
ENCODING 750
SWIDTH 360 0
DWIDTH 6 0
BBX 5 4 1 6
BITMAP
D0
D8
48
90
ENDCHAR
STARTCHAR 02EF
ENCODING 751
SWIDTH 240 0
DWIDTH 4 0
BBX 3 2 1 -3
BITMAP
A0
40
ENDCHAR
STARTCHAR 02F0
ENCODING 752
SWIDTH 240 0
DWIDTH 4 0
BBX 3 2 1 -3
BITMAP
40
A0
ENDCHAR
STARTCHAR 02F1
ENCODING 753
SWIDTH 240 0
DWIDTH 4 0
BBX 2 3 1 -4
BITMAP
40
80
40
ENDCHAR
STARTCHAR 02F2
ENCODING 754
SWIDTH 240 0
DWIDTH 4 0
BBX 2 3 1 -4
BITMAP
80
40
80
ENDCHAR
STARTCHAR 02F3
ENCODING 755
SWIDTH 240 0
DWIDTH 4 0
BBX 3 2 1 -3
BITMAP
E0
E0
ENDCHAR
STARTCHAR 02F4
ENCODING 756
SWIDTH 240 0
DWIDTH 4 0
BBX 2 2 1 4
BITMAP
80
40
ENDCHAR
STARTCHAR 02F5
ENCODING 757
SWIDTH 360 0
DWIDTH 6 0
BBX 5 3 1 4
BITMAP
B0
50
08
ENDCHAR
STARTCHAR 02F6
ENCODING 758
SWIDTH 360 0
DWIDTH 6 0
BBX 5 3 1 4
BITMAP
78
50
A0
ENDCHAR
STARTCHAR 02F7
ENCODING 759
SWIDTH 420 0
DWIDTH 7 0
BBX 5 2 1 -3
BITMAP
E0
98
ENDCHAR
STARTCHAR 02F8
ENCODING 760
SWIDTH 180 0
DWIDTH 3 0
BBX 1 8 1 3
BITMAP
80
80
00
00
00
00
80
80
ENDCHAR
STARTCHAR 02F9
ENCODING 761
SWIDTH 300 0
DWIDTH 5 0
BBX 3 5 1 6
BITMAP
E0
80
80
80
80
ENDCHAR
STARTCHAR 02FA
ENCODING 762
SWIDTH 300 0
DWIDTH 5 0
BBX 3 5 1 6
BITMAP
E0
20
20
20
20
ENDCHAR
STARTCHAR 02FB
ENCODING 763
SWIDTH 300 0
DWIDTH 5 0
BBX 3 5 1 0
BITMAP
80
80
80
80
E0
ENDCHAR
STARTCHAR 02FC
ENCODING 764
SWIDTH 300 0
DWIDTH 5 0
BBX 3 5 1 0
BITMAP
20
20
20
20
E0
ENDCHAR
STARTCHAR 02FD
ENCODING 765
SWIDTH 300 0
DWIDTH 5 0
BBX 4 2 1 -2
BITMAP
90
F0
ENDCHAR
STARTCHAR 02FE
ENCODING 766
SWIDTH 300 0
DWIDTH 5 0
BBX 3 2 1 -2
BITMAP
80
E0
ENDCHAR
STARTCHAR 02FF
ENCODING 767
SWIDTH 480 0
DWIDTH 8 0
BBX 6 2 1 -2
BITMAP
FC
40
ENDCHAR
STARTCHAR 0300
ENCODING 768
SWIDTH 0 0
DWIDTH 0 0
BBX 3 3 -2 8
BITMAP
C0
40
20
ENDCHAR
STARTCHAR 0301
ENCODING 769
SWIDTH 0 0
DWIDTH 0 0
BBX 3 3 -1 8
BITMAP
60
40
80
ENDCHAR
STARTCHAR 0302
ENCODING 770
SWIDTH 0 0
DWIDTH 0 0
BBX 4 3 -2 8
BITMAP
60
60
90
ENDCHAR
STARTCHAR 0303
ENCODING 771
SWIDTH 0 0
DWIDTH 0 0
BBX 6 2 -3 9
BITMAP
44
BC
ENDCHAR
STARTCHAR 0304
ENCODING 772
SWIDTH 0 0
DWIDTH 0 0
BBX 4 1 -2 9
BITMAP
F0
ENDCHAR
STARTCHAR 0306
ENCODING 774
SWIDTH 0 0
DWIDTH 0 0
BBX 4 2 -2 8
BITMAP
90
F0
ENDCHAR
STARTCHAR 0307
ENCODING 775
SWIDTH 0 0
DWIDTH 0 0
BBX 2 1 -1 9
BITMAP
C0
ENDCHAR
STARTCHAR 0308
ENCODING 776
SWIDTH 0 0
DWIDTH 0 0
BBX 4 1 -2 9
BITMAP
F0
ENDCHAR
STARTCHAR 0309
ENCODING 777
SWIDTH 0 0
DWIDTH 0 0
BBX 4 3 -2 8
BITMAP
60
90
20
ENDCHAR
STARTCHAR 030A
ENCODING 778
SWIDTH 0 0
DWIDTH 0 0
BBX 2 3 -1 8
BITMAP
C0
C0
C0
ENDCHAR
STARTCHAR 030B
ENCODING 779
SWIDTH 0 0
DWIDTH 0 0
BBX 5 3 -2 8
BITMAP
68
50
80
ENDCHAR
STARTCHAR 030C
ENCODING 780
SWIDTH 0 0
DWIDTH 0 0
BBX 4 3 -2 8
BITMAP
90
60
60
ENDCHAR
STARTCHAR 030D
ENCODING 781
SWIDTH 0 0
DWIDTH 0 0
BBX 1 3 0 8
BITMAP
80
80
80
ENDCHAR
STARTCHAR 030E
ENCODING 782
SWIDTH 0 0
DWIDTH 0 0
BBX 2 4 -1 8
BITMAP
C0
C0
C0
C0
ENDCHAR
STARTCHAR 030F
ENCODING 783
SWIDTH 0 0
DWIDTH 0 0
BBX 5 3 -3 8
BITMAP
B0
50
08
ENDCHAR
STARTCHAR 0310
ENCODING 784
SWIDTH 0 0
DWIDTH 0 0
BBX 4 2 -2 9
BITMAP
F0
F0
ENDCHAR
STARTCHAR 0311
ENCODING 785
SWIDTH 0 0
DWIDTH 0 0
BBX 4 3 -2 8
BITMAP
60
90
90
ENDCHAR
STARTCHAR 0312
ENCODING 786
SWIDTH 0 0
DWIDTH 0 0
BBX 2 4 -1 9
BITMAP
80
80
C0
C0
ENDCHAR
STARTCHAR 0313
ENCODING 787
SWIDTH 0 0
DWIDTH 0 0
BBX 2 3 -1 8
BITMAP
C0
40
80
ENDCHAR
STARTCHAR 0314
ENCODING 788
SWIDTH 0 0
DWIDTH 0 0
BBX 2 3 -1 8
BITMAP
C0
80
80
ENDCHAR
STARTCHAR 0315
ENCODING 789
SWIDTH 0 0
DWIDTH 0 0
BBX 2 4 2 6
BITMAP
80
C0
40
80
ENDCHAR
STARTCHAR 0316
ENCODING 790
SWIDTH 0 0
DWIDTH 0 0
BBX 2 2 -1 -3
BITMAP
80
40
ENDCHAR
STARTCHAR 0317
ENCODING 791
SWIDTH 0 0
DWIDTH 0 0
BBX 2 2 -1 -3
BITMAP
40
80
ENDCHAR
STARTCHAR 0318
ENCODING 792
SWIDTH 0 0
DWIDTH 0 0
BBX 2 3 -2 -5
BITMAP
40
C0
40
ENDCHAR
STARTCHAR 0319
ENCODING 793
SWIDTH 0 0
DWIDTH 0 0
BBX 2 3 0 -5
BITMAP
80
C0
80
ENDCHAR
STARTCHAR 031A
ENCODING 794
SWIDTH 0 0
DWIDTH 0 0
BBX 4 4 -2 8
BITMAP
F0
10
10
10
ENDCHAR
STARTCHAR 031B
ENCODING 795
SWIDTH 0 0
DWIDTH 0 0
BBX 2 4 -1 4
BITMAP
C0
40
40
80
ENDCHAR
STARTCHAR 031C
ENCODING 796
SWIDTH 0 0
DWIDTH 0 0
BBX 2 3 -1 -3
BITMAP
40
80
C0
ENDCHAR
STARTCHAR 031D
ENCODING 797
SWIDTH 0 0
DWIDTH 0 0
BBX 4 2 -2 -3
BITMAP
40
F0
ENDCHAR
STARTCHAR 031E
ENCODING 798
SWIDTH 0 0
DWIDTH 0 0
BBX 4 2 -2 -5
BITMAP
F0
40
ENDCHAR
STARTCHAR 031F
ENCODING 799
SWIDTH 0 0
DWIDTH 0 0
BBX 4 3 -2 -5
BITMAP
40
F0
40
ENDCHAR
STARTCHAR 0320
ENCODING 800
SWIDTH 0 0
DWIDTH 0 0
BBX 4 1 -2 -3
BITMAP
F0
ENDCHAR
STARTCHAR 0321
ENCODING 801
SWIDTH 0 0
DWIDTH 0 0
BBX 3 5 -4 -3
BITMAP
20
20
20
20
E0
ENDCHAR
STARTCHAR 0322
ENCODING 802
SWIDTH 0 0
DWIDTH 0 0
BBX 3 5 -2 -3
BITMAP
80
80
80
80
E0
ENDCHAR
STARTCHAR 0323
ENCODING 803
SWIDTH 0 0
DWIDTH 0 0
BBX 2 2 -1 -3
BITMAP
C0
C0
ENDCHAR
STARTCHAR 0324
ENCODING 804
SWIDTH 0 0
DWIDTH 0 0
BBX 4 2 -2 -3
BITMAP
90
90
ENDCHAR
STARTCHAR 0325
ENCODING 805
SWIDTH 0 0
DWIDTH 0 0
BBX 2 2 -1 -3
BITMAP
C0
C0
ENDCHAR
STARTCHAR 0326
ENCODING 806
SWIDTH 0 0
DWIDTH 0 0
BBX 2 4 -1 -5
BITMAP
C0
C0
40
80
ENDCHAR
STARTCHAR 0327
ENCODING 807
SWIDTH 0 0
DWIDTH 0 0
BBX 3 3 -1 -3
BITMAP
80
60
C0
ENDCHAR
STARTCHAR 0328
ENCODING 808
SWIDTH 0 0
DWIDTH 0 0
BBX 4 3 -1 -2
BITMAP
80
C0
70
ENDCHAR
STARTCHAR 0329
ENCODING 809
SWIDTH 0 0
DWIDTH 0 0
BBX 1 3 0 -5
BITMAP
80
80
80
ENDCHAR
STARTCHAR 032A
ENCODING 810
SWIDTH 0 0
DWIDTH 0 0
BBX 4 2 -2 -3
BITMAP
F0
90
ENDCHAR
STARTCHAR 032B
ENCODING 811
SWIDTH 0 0
DWIDTH 0 0
BBX 6 2 -3 -3
BITMAP
84
F8
ENDCHAR
STARTCHAR 032C
ENCODING 812
SWIDTH 0 0
DWIDTH 0 0
BBX 4 2 -2 -3
BITMAP
90
60
ENDCHAR
STARTCHAR 032D
ENCODING 813
SWIDTH 0 0
DWIDTH 0 0
BBX 4 2 -2 -3
BITMAP
60
90
ENDCHAR
STARTCHAR 032E
ENCODING 814
SWIDTH 0 0
DWIDTH 0 0
BBX 4 2 -2 -3
BITMAP
90
F0
ENDCHAR
STARTCHAR 032F
ENCODING 815
SWIDTH 0 0
DWIDTH 0 0
BBX 4 2 -2 -3
BITMAP
F0
90
ENDCHAR
STARTCHAR 0330
ENCODING 816
SWIDTH 0 0
DWIDTH 0 0
BBX 6 2 -3 -3
BITMAP
64
98
ENDCHAR
STARTCHAR 0331
ENCODING 817
SWIDTH 0 0
DWIDTH 0 0
BBX 4 1 -2 -2
BITMAP
F0
ENDCHAR
STARTCHAR 0334
ENCODING 820
SWIDTH 0 0
DWIDTH 0 0
BBX 6 2 -3 3
BITMAP
44
BC
ENDCHAR
STARTCHAR 0335
ENCODING 821
SWIDTH 0 0
DWIDTH 0 0
BBX 4 1 -2 3
BITMAP
F0
ENDCHAR
STARTCHAR 0336
ENCODING 822
SWIDTH 0 0
DWIDTH 0 0
BBX 12 1 -6 3
BITMAP
FFF0
ENDCHAR
STARTCHAR 0337
ENCODING 823
SWIDTH 0 0
DWIDTH 0 0
BBX 6 9 -3 0
BITMAP
04
0C
18
10
30
60
40
80
80
ENDCHAR
STARTCHAR 0338
ENCODING 824
SWIDTH 0 0
DWIDTH 0 0
BBX 8 12 -4 -2
BITMAP
01
01
02
06
0C
08
18
30
20
40
C0
80
ENDCHAR
STARTCHAR 0339
ENCODING 825
SWIDTH 0 0
DWIDTH 0 0
BBX 2 3 -1 -3
BITMAP
80
40
C0
ENDCHAR
STARTCHAR 033A
ENCODING 826
SWIDTH 0 0
DWIDTH 0 0
BBX 4 2 -2 -3
BITMAP
90
F0
ENDCHAR
STARTCHAR 033B
ENCODING 827
SWIDTH 0 0
DWIDTH 0 0
BBX 4 3 -2 -4
BITMAP
F0
90
F0
ENDCHAR
STARTCHAR 033C
ENCODING 828
SWIDTH 0 0
DWIDTH 0 0
BBX 6 2 -3 -3
BITMAP
FC
A4
ENDCHAR
STARTCHAR 033D
ENCODING 829
SWIDTH 0 0
DWIDTH 0 0
BBX 4 3 -2 8
BITMAP
F0
60
F0
ENDCHAR
STARTCHAR 033E
ENCODING 830
SWIDTH 0 0
DWIDTH 0 0
BBX 2 6 -1 8
BITMAP
C0
80
80
40
40
80
ENDCHAR
STARTCHAR 0340
ENCODING 832
SWIDTH 0 0
DWIDTH 0 0
BBX 3 3 -2 8
BITMAP
C0
40
20
ENDCHAR
STARTCHAR 0341
ENCODING 833
SWIDTH 0 0
DWIDTH 0 0
BBX 3 3 -1 8
BITMAP
60
40
80
ENDCHAR
STARTCHAR 0342
ENCODING 834
SWIDTH 0 0
DWIDTH 0 0
BBX 6 2 -3 9
BITMAP
44
BC
ENDCHAR
STARTCHAR 0343
ENCODING 835
SWIDTH 0 0
DWIDTH 0 0
BBX 2 3 -1 8
BITMAP
C0
40
80
ENDCHAR
STARTCHAR 0344
ENCODING 836
SWIDTH 0 0
DWIDTH 0 0
BBX 4 3 -2 9
BITMAP
10
20
B0
ENDCHAR
STARTCHAR 0345
ENCODING 837
SWIDTH 0 0
DWIDTH 0 0
BBX 3 3 -1 -4
BITMAP
C0
C0
60
ENDCHAR
STARTCHAR 0346
ENCODING 838
SWIDTH 0 0
DWIDTH 0 0
BBX 4 2 -2 8
BITMAP
F0
90
ENDCHAR
STARTCHAR 0347
ENCODING 839
SWIDTH 0 0
DWIDTH 0 0
BBX 4 2 -2 -4
BITMAP
F0
F0
ENDCHAR
STARTCHAR 0348
ENCODING 840
SWIDTH 0 0
DWIDTH 0 0
BBX 2 4 -1 -5
BITMAP
C0
C0
C0
C0
ENDCHAR
STARTCHAR 0349
ENCODING 841
SWIDTH 0 0
DWIDTH 0 0
BBX 4 3 -2 -4
BITMAP
F0
10
10
ENDCHAR
STARTCHAR 034A
ENCODING 842
SWIDTH 0 0
DWIDTH 0 0
BBX 6 3 -3 8
BITMAP
10
F4
A8
ENDCHAR
STARTCHAR 034B
ENCODING 843
SWIDTH 0 0
DWIDTH 0 0
BBX 6 5 -3 8
BITMAP
30
30
F4
88
30
ENDCHAR
STARTCHAR 034C
ENCODING 844
SWIDTH 0 0
DWIDTH 0 0
BBX 6 4 -3 8
BITMAP
E4
98
E4
98
ENDCHAR
STARTCHAR 034D
ENCODING 845
SWIDTH 0 0
DWIDTH 0 0
BBX 6 3 -3 -4
BITMAP
48
FC
48
ENDCHAR
STARTCHAR 034E
ENCODING 846
SWIDTH 0 0
DWIDTH 0 0
BBX 2 3 -1 -4
BITMAP
80
C0
80
ENDCHAR
STARTCHAR 034F
ENCODING 847
SWIDTH 0 0
DWIDTH 0 0
BBX 0 0 0 0
BITMAP
ENDCHAR
STARTCHAR 0350
ENCODING 848
SWIDTH 0 0
DWIDTH 0 0
BBX 2 2 -1 9
BITMAP
80
C0
ENDCHAR
STARTCHAR 0351
ENCODING 849
SWIDTH 0 0
DWIDTH 0 0
BBX 2 3 -1 8
BITMAP
40
80
40
ENDCHAR
STARTCHAR 0352
ENCODING 850
SWIDTH 0 0
DWIDTH 0 0
BBX 4 3 -2 8
BITMAP
60
90
F0
ENDCHAR
STARTCHAR 0353
ENCODING 851
SWIDTH 0 0
DWIDTH 0 0
BBX 4 3 -2 -5
BITMAP
90
60
60
ENDCHAR
STARTCHAR 0354
ENCODING 852
SWIDTH 0 0
DWIDTH 0 0
BBX 2 3 -1 -4
BITMAP
40
80
40
ENDCHAR
STARTCHAR 0355
ENCODING 853
SWIDTH 0 0
DWIDTH 0 0
BBX 2 3 -1 -4
BITMAP
80
40
80
ENDCHAR
STARTCHAR 0356
ENCODING 854
SWIDTH 0 0
DWIDTH 0 0
BBX 5 3 -2 -4
BITMAP
90
F8
80
ENDCHAR
STARTCHAR 0357
ENCODING 855
SWIDTH 0 0
DWIDTH 0 0
BBX 2 3 -1 8
BITMAP
80
40
80
ENDCHAR
STARTCHAR 0358
ENCODING 856
SWIDTH 0 0
DWIDTH 0 0
BBX 2 1 1 9
BITMAP
C0
ENDCHAR
STARTCHAR 0359
ENCODING 857
SWIDTH 0 0
DWIDTH 0 0
BBX 4 4 -2 -5
BITMAP
D0
F0
F0
60
ENDCHAR
STARTCHAR 035A
ENCODING 858
SWIDTH 0 0
DWIDTH 0 0
BBX 4 2 -2 -3
BITMAP
F0
F0
ENDCHAR
STARTCHAR 035B
ENCODING 859
SWIDTH 0 0
DWIDTH 0 0
BBX 3 4 -1 9
BITMAP
40
E0
C0
80
ENDCHAR
STARTCHAR 035C
ENCODING 860
SWIDTH 0 0
DWIDTH 0 0
BBX 14 2 -7 -5
BITMAP
E01C
3FF0
ENDCHAR
STARTCHAR 035D
ENCODING 861
SWIDTH 0 0
DWIDTH 0 0
BBX 14 2 -7 12
BITMAP
E01C
3FF0
ENDCHAR
STARTCHAR 035E
ENCODING 862
SWIDTH 0 0
DWIDTH 0 0
BBX 14 1 -7 12
BITMAP
FFFC
ENDCHAR
STARTCHAR 035F
ENCODING 863
SWIDTH 0 0
DWIDTH 0 0
BBX 14 1 -7 -5
BITMAP
FFFC
ENDCHAR
STARTCHAR 0360
ENCODING 864
SWIDTH 0 0
DWIDTH 0 0
BBX 14 3 -7 11
BITMAP
7800
FF04
81F8
ENDCHAR
STARTCHAR 0361
ENCODING 865
SWIDTH 0 0
DWIDTH 0 0
BBX 14 3 -7 11
BITMAP
0780
7FF8
8004
ENDCHAR
STARTCHAR 0362
ENCODING 866
SWIDTH 0 0
DWIDTH 0 0
BBX 14 3 -7 -7
BITMAP
0010
FFFC
0018
ENDCHAR
STARTCHAR 0363
ENCODING 867
SWIDTH 0 0
DWIDTH 0 0
BBX 2 4 -1 8
BITMAP
C0
C0
C0
C0
ENDCHAR
STARTCHAR 0364
ENCODING 868
SWIDTH 0 0
DWIDTH 0 0
BBX 4 4 -2 8
BITMAP
60
F0
80
60
ENDCHAR
STARTCHAR 0365
ENCODING 869
SWIDTH 0 0
DWIDTH 0 0
BBX 1 3 -1 10
BITMAP
80
80
80
ENDCHAR
STARTCHAR 0366
ENCODING 870
SWIDTH 0 0
DWIDTH 0 0
BBX 4 4 -2 8
BITMAP
60
90
90
60
ENDCHAR
STARTCHAR 0367
ENCODING 871
SWIDTH 0 0
DWIDTH 0 0
BBX 4 4 -2 8
BITMAP
90
90
90
70
ENDCHAR
STARTCHAR 0368
ENCODING 872
SWIDTH 0 0
DWIDTH 0 0
BBX 3 4 -2 8
BITMAP
60
80
80
60
ENDCHAR
STARTCHAR 0369
ENCODING 873
SWIDTH 0 0
DWIDTH 0 0
BBX 4 6 -2 8
BITMAP
10
10
70
90
90
70
ENDCHAR
STARTCHAR 036A
ENCODING 874
SWIDTH 0 0
DWIDTH 0 0
BBX 4 6 -2 8
BITMAP
80
80
E0
90
90
90
ENDCHAR
STARTCHAR 036B
ENCODING 875
SWIDTH 0 0
DWIDTH 0 0
BBX 4 4 -2 8
BITMAP
F0
D0
D0
90
ENDCHAR
STARTCHAR 036C
ENCODING 876
SWIDTH 0 0
DWIDTH 0 0
BBX 2 4 -1 8
BITMAP
C0
80
80
80
ENDCHAR
STARTCHAR 036D
ENCODING 877
SWIDTH 0 0
DWIDTH 0 0
BBX 2 5 -1 8
BITMAP
80
C0
80
80
40
ENDCHAR
STARTCHAR 036E
ENCODING 878
SWIDTH 0 0
DWIDTH 0 0
BBX 4 4 -2 8
BITMAP
90
60
60
60
ENDCHAR
STARTCHAR 036F
ENCODING 879
SWIDTH 0 0
DWIDTH 0 0
BBX 4 4 -2 8
BITMAP
60
60
60
90
ENDCHAR
STARTCHAR 0370
ENCODING 880
SWIDTH 420 0
DWIDTH 7 0
BBX 5 11 1 0
BITMAP
80
80
80
80
80
F8
80
80
80
80
80
ENDCHAR
STARTCHAR 0371
ENCODING 881
SWIDTH 360 0
DWIDTH 6 0
BBX 5 7 1 0
BITMAP
C0
40
40
78
40
40
40
ENDCHAR
STARTCHAR 0372
ENCODING 882
SWIDTH 600 0
DWIDTH 10 0
BBX 9 11 1 0
BITMAP
FF80
8880
8880
8880
8880
8880
0800
0800
0800
0800
0800
ENDCHAR
STARTCHAR 0373
ENCODING 883
SWIDTH 480 0
DWIDTH 8 0
BBX 7 8 1 0
BITMAP
38
7C
96
92
92
10
10
18
ENDCHAR
STARTCHAR 0374
ENCODING 884
SWIDTH 240 0
DWIDTH 4 0
BBX 2 5 1 7
BITMAP
40
C0
80
80
80
ENDCHAR
STARTCHAR 0375
ENCODING 885
SWIDTH 240 0
DWIDTH 4 0
BBX 2 5 1 -1
BITMAP
40
40
40
C0
C0
ENDCHAR
STARTCHAR 0376
ENCODING 886
SWIDTH 600 0
DWIDTH 10 0
BBX 8 11 1 0
BITMAP
81
83
83
85
8D
99
91
A1
E1
C1
81
ENDCHAR
STARTCHAR 0377
ENCODING 887
SWIDTH 540 0
DWIDTH 9 0
BBX 7 7 1 0
BITMAP
8C
9C
94
A4
E4
C4
86
ENDCHAR
STARTCHAR 037A
ENCODING 890
SWIDTH 240 0
DWIDTH 4 0
BBX 2 3 1 -4
BITMAP
80
80
C0
ENDCHAR
STARTCHAR 037B
ENCODING 891
SWIDTH 420 0
DWIDTH 7 0
BBX 6 8 1 0
BITMAP
30
F8
8C
04
04
0C
C8
70
ENDCHAR
STARTCHAR 037C
ENCODING 892
SWIDTH 420 0
DWIDTH 7 0
BBX 6 8 1 0
BITMAP
30
78
C4
90
B0
80
CC
78
ENDCHAR
STARTCHAR 037D
ENCODING 893
SWIDTH 420 0
DWIDTH 7 0
BBX 6 8 1 0
BITMAP
30
F8
8C
24
34
0C
C8
70
ENDCHAR
STARTCHAR 037E
ENCODING 894
SWIDTH 180 0
DWIDTH 3 0
BBX 2 10 1 -3
BITMAP
80
C0
00
00
00
00
80
C0
40
40
ENDCHAR
STARTCHAR 037F
ENCODING 895
SWIDTH 360 0
DWIDTH 6 0
BBX 4 11 1 0
BITMAP
10
10
10
10
10
10
10
10
10
90
F0
ENDCHAR
STARTCHAR 0384
ENCODING 900
SWIDTH 240 0
DWIDTH 4 0
BBX 2 2 1 8
BITMAP
40
80
ENDCHAR
STARTCHAR 0385
ENCODING 901
SWIDTH 360 0
DWIDTH 6 0
BBX 4 3 1 9
BITMAP
10
20
D0
ENDCHAR
STARTCHAR 0386
ENCODING 902
SWIDTH 600 0
DWIDTH 10 0
BBX 9 11 1 0
BITMAP
4800
9800
1400
1400
2600
2200
7E00
4300
4100
C100
8180
ENDCHAR
STARTCHAR 0387
ENCODING 903
SWIDTH 180 0
DWIDTH 3 0
BBX 2 1 1 4
BITMAP
C0
ENDCHAR
STARTCHAR 0388
ENCODING 904
SWIDTH 720 0
DWIDTH 12 0
BBX 10 11 1 0
BITMAP
5FC0
9800
1800
1800
1800
1F80
1800
1800
1800
1800
1FC0
ENDCHAR
STARTCHAR 0389
ENCODING 905
SWIDTH 720 0
DWIDTH 12 0
BBX 10 11 1 0
BITMAP
5840
9840
1840
1840
1840
1FC0
1840
1840
1840
1840
1840
ENDCHAR
STARTCHAR 038A
ENCODING 906
SWIDTH 480 0
DWIDTH 8 0
BBX 7 11 1 0
BITMAP
5E
84
04
04
04
04
04
04
04
04
1E
ENDCHAR
STARTCHAR 038C
ENCODING 908
SWIDTH 720 0
DWIDTH 12 0
BBX 10 11 1 0
BITMAP
4F00
9980
30C0
2040
2040
6040
6040
2040
20C0
1180
0F00
ENDCHAR
STARTCHAR 038E
ENCODING 910
SWIDTH 780 0
DWIDTH 13 0
BBX 12 11 1 0
BITMAP
5830
8820
0460
06C0
0380
0100
0100
0100
0100
0100
0100
ENDCHAR
STARTCHAR 038F
ENCODING 911
SWIDTH 720 0
DWIDTH 12 0
BBX 11 11 1 0
BITMAP
4700
9980
1040
2040
2060
2020
2020
2060
3040
18C0
39E0
ENDCHAR
STARTCHAR 0390
ENCODING 912
SWIDTH 240 0
DWIDTH 4 0
BBX 5 12 -1 0
BITMAP
10
20
D8
00
00
20
20
20
20
20
20
30
ENDCHAR
STARTCHAR 0391
ENCODING 913
SWIDTH 600 0
DWIDTH 10 0
BBX 9 11 1 0
BITMAP
0800
1800
1400
1400
2600
2200
7E00
4300
4100
C100
8180
ENDCHAR
STARTCHAR 0392
ENCODING 914
SWIDTH 480 0
DWIDTH 8 0
BBX 7 11 1 0
BITMAP
F8
8C
84
84
8C
FC
84
86
86
8C
F8
ENDCHAR
STARTCHAR 0393
ENCODING 915
SWIDTH 480 0
DWIDTH 8 0
BBX 7 11 1 0
BITMAP
FE
80
80
80
80
80
80
80
80
80
80
ENDCHAR
STARTCHAR 0394
ENCODING 916
SWIDTH 600 0
DWIDTH 10 0
BBX 9 11 1 0
BITMAP
0800
1800
1400
1400
2600
2200
6200
4300
4100
C100
FF80
ENDCHAR
STARTCHAR 0395
ENCODING 917
SWIDTH 480 0
DWIDTH 8 0
BBX 7 11 1 0
BITMAP
FE
80
80
80
80
FC
80
80
80
80
FE
ENDCHAR
STARTCHAR 0396
ENCODING 918
SWIDTH 480 0
DWIDTH 8 0
BBX 7 11 1 0
BITMAP
FE
02
04
0C
08
10
30
60
40
80
FE
ENDCHAR
STARTCHAR 0397
ENCODING 919
SWIDTH 480 0
DWIDTH 8 0
BBX 7 11 1 0
BITMAP
86
86
86
86
86
FE
86
86
86
86
86
ENDCHAR
STARTCHAR 0398
ENCODING 920
SWIDTH 600 0
DWIDTH 10 0
BBX 9 11 1 0
BITMAP
1C00
6600
4100
8100
8180
BC80
8180
8180
C100
6200
3C00
ENDCHAR
STARTCHAR 0399
ENCODING 921
SWIDTH 300 0
DWIDTH 5 0
BBX 3 11 1 0
BITMAP
E0
40
40
40
40
40
40
40
40
40
E0
ENDCHAR
STARTCHAR 039A
ENCODING 922
SWIDTH 540 0
DWIDTH 9 0
BBX 7 11 1 0
BITMAP
84
8C
98
90
A0
E0
D0
98
88
84
86
ENDCHAR
STARTCHAR 039B
ENCODING 923
SWIDTH 600 0
DWIDTH 10 0
BBX 9 11 1 0
BITMAP
0800
1800
1400
1400
2600
2200
6200
4300
4100
C100
8180
ENDCHAR
STARTCHAR 039C
ENCODING 924
SWIDTH 600 0
DWIDTH 10 0
BBX 9 11 1 0
BITMAP
8080
C180
C180
C380
E280
A280
A680
B480
9480
9C80
8880
ENDCHAR
STARTCHAR 039D
ENCODING 925
SWIDTH 600 0
DWIDTH 10 0
BBX 8 11 1 0
BITMAP
81
C1
E1
A1
91
99
89
85
87
83
81
ENDCHAR
STARTCHAR 039E
ENCODING 926
SWIDTH 480 0
DWIDTH 8 0
BBX 7 11 1 0
BITMAP
FE
00
00
00
00
7C
00
00
00
00
FE
ENDCHAR
STARTCHAR 039F
ENCODING 927
SWIDTH 600 0
DWIDTH 10 0
BBX 9 11 1 0
BITMAP
1C00
6600
4100
8100
8180
8080
8180
8180
C100
6200
3C00
ENDCHAR
STARTCHAR 03A0
ENCODING 928
SWIDTH 480 0
DWIDTH 8 0
BBX 7 11 1 0
BITMAP
FE
86
86
86
86
86
86
86
86
86
86
ENDCHAR
STARTCHAR 03A1
ENCODING 929
SWIDTH 480 0
DWIDTH 8 0
BBX 6 11 1 0
BITMAP
F0
9C
84
84
84
F8
80
80
80
80
80
ENDCHAR
STARTCHAR 03A3
ENCODING 931
SWIDTH 480 0
DWIDTH 8 0
BBX 7 11 1 0
BITMAP
FE
80
40
60
20
10
30
60
40
80
FE
ENDCHAR
STARTCHAR 03A4
ENCODING 932
SWIDTH 480 0
DWIDTH 8 0
BBX 7 11 1 0
BITMAP
FE
10
10
10
10
10
10
10
10
10
10
ENDCHAR
STARTCHAR 03A5
ENCODING 933
SWIDTH 600 0
DWIDTH 10 0
BBX 9 11 1 0
BITMAP
8180
4300
6200
3600
1C00
1800
0800
0800
0800
0800
0800
ENDCHAR
STARTCHAR 03A6
ENCODING 934
SWIDTH 540 0
DWIDTH 9 0
BBX 8 11 1 0
BITMAP
3C
18
18
7E
9B
99
9B
7E
3C
18
3C
ENDCHAR
STARTCHAR 03A7
ENCODING 935
SWIDTH 600 0
DWIDTH 10 0
BBX 9 11 1 0
BITMAP
8180
4300
6200
3600
1C00
1800
1C00
3400
2200
4300
C100
ENDCHAR
STARTCHAR 03A8
ENCODING 936
SWIDTH 540 0
DWIDTH 9 0
BBX 8 11 1 0
BITMAP
99
99
99
9B
5A
7C
18
18
18
18
18
ENDCHAR
STARTCHAR 03A9
ENCODING 937
SWIDTH 600 0
DWIDTH 10 0
BBX 9 11 1 0
BITMAP
1C00
6600
4100
8100
8180
8080
8180
8180
C100
6200
E780
ENDCHAR
STARTCHAR 03AA
ENCODING 938
SWIDTH 300 0
DWIDTH 5 0
BBX 5 14 0 0
BITMAP
50
D8
00
70
20
20
20
20
20
20
20
20
20
70
ENDCHAR
STARTCHAR 03AB
ENCODING 939
SWIDTH 600 0
DWIDTH 10 0
BBX 9 14 1 0
BITMAP
2400
3600
0000
8180
4300
6200
3600
1C00
1800
0800
0800
0800
0800
0800
ENDCHAR
STARTCHAR 03AC
ENCODING 940
SWIDTH 540 0
DWIDTH 9 0
BBX 8 11 1 0
BITMAP
0C
08
10
30
7B
C6
86
86
86
CE
7B
ENDCHAR
STARTCHAR 03AD
ENCODING 941
SWIDTH 360 0
DWIDTH 6 0
BBX 5 11 1 0
BITMAP
30
20
40
60
F0
80
E0
E0
80
98
70
ENDCHAR
STARTCHAR 03AE
ENCODING 942
SWIDTH 480 0
DWIDTH 8 0
BBX 6 14 1 -4
BITMAP
18
10
20
30
FC
C4
84
84
84
84
84
04
04
04
ENDCHAR
STARTCHAR 03AF
ENCODING 943
SWIDTH 240 0
DWIDTH 4 0
BBX 3 11 0 0
BITMAP
60
40
80
00
40
40
40
40
40
40
60
ENDCHAR
STARTCHAR 03B0
ENCODING 944
SWIDTH 480 0
DWIDTH 8 0
BBX 6 12 1 0
BITMAP
08
10
68
00
00
84
84
84
84
84
CC
78
ENDCHAR
STARTCHAR 03B1
ENCODING 945
SWIDTH 540 0
DWIDTH 9 0
BBX 8 8 1 0
BITMAP
30
7B
C6
86
86
86
CE
7B
ENDCHAR
STARTCHAR 03B2
ENCODING 946
SWIDTH 420 0
DWIDTH 7 0
BBX 6 14 1 -4
BITMAP
70
D8
88
88
98
98
8C
84
84
CC
F8
80
80
80
ENDCHAR
STARTCHAR 03B3
ENCODING 947
SWIDTH 480 0
DWIDTH 8 0
BBX 7 11 1 -3
BITMAP
80
C6
44
64
28
28
38
10
38
28
38
ENDCHAR
STARTCHAR 03B4
ENCODING 948
SWIDTH 480 0
DWIDTH 8 0
BBX 6 11 1 0
BITMAP
18
2C
20
30
78
CC
84
84
84
CC
78
ENDCHAR
STARTCHAR 03B5
ENCODING 949
SWIDTH 360 0
DWIDTH 6 0
BBX 5 8 1 0
BITMAP
60
F0
80
E0
E0
80
98
70
ENDCHAR
STARTCHAR 03B6
ENCODING 950
SWIDTH 420 0
DWIDTH 7 0
BBX 5 14 1 -3
BITMAP
F8
60
C0
80
80
80
80
80
C0
40
38
08
08
38
ENDCHAR
STARTCHAR 03B7
ENCODING 951
SWIDTH 480 0
DWIDTH 8 0
BBX 6 11 1 -4
BITMAP
30
FC
C4
84
84
84
84
84
04
04
04
ENDCHAR
STARTCHAR 03B8
ENCODING 952
SWIDTH 480 0
DWIDTH 8 0
BBX 6 11 1 0
BITMAP
30
48
CC
84
84
FC
84
84
C4
48
38
ENDCHAR
STARTCHAR 03B9
ENCODING 953
SWIDTH 240 0
DWIDTH 4 0
BBX 2 7 1 0
BITMAP
80
80
80
80
80
80
C0
ENDCHAR
STARTCHAR 03BA
ENCODING 954
SWIDTH 420 0
DWIDTH 7 0
BBX 5 7 1 0
BITMAP
90
A0
E0
E0
B0
90
88
ENDCHAR
STARTCHAR 03BB
ENCODING 955
SWIDTH 480 0
DWIDTH 8 0
BBX 6 11 1 0
BITMAP
C0
20
20
10
30
38
68
48
4C
C4
84
ENDCHAR
STARTCHAR 03BC
ENCODING 956
SWIDTH 480 0
DWIDTH 8 0
BBX 6 10 1 -4
BITMAP
84
84
84
84
84
CC
FC
80
80
80
ENDCHAR
STARTCHAR 03BD
ENCODING 957
SWIDTH 420 0
DWIDTH 7 0
BBX 6 8 1 0
BITMAP
10
98
4C
48
68
38
30
30
ENDCHAR
STARTCHAR 03BE
ENCODING 958
SWIDTH 420 0
DWIDTH 7 0
BBX 5 14 1 -3
BITMAP
F8
60
C0
80
60
70
C0
80
80
C0
78
08
08
38
ENDCHAR
STARTCHAR 03BF
ENCODING 959
SWIDTH 480 0
DWIDTH 8 0
BBX 6 8 1 0
BITMAP
30
78
C4
84
84
84
CC
78
ENDCHAR
STARTCHAR 03C0
ENCODING 960
SWIDTH 480 0
DWIDTH 8 0
BBX 6 7 1 0
BITMAP
FC
4C
4C
4C
4C
CC
8C
ENDCHAR
STARTCHAR 03C1
ENCODING 961
SWIDTH 480 0
DWIDTH 8 0
BBX 6 11 1 -4
BITMAP
30
78
C4
84
84
84
CC
F8
80
80
80
ENDCHAR
STARTCHAR 03C2
ENCODING 962
SWIDTH 420 0
DWIDTH 7 0
BBX 5 10 1 -3
BITMAP
78
C0
80
80
80
C0
78
08
08
38
ENDCHAR
STARTCHAR 03C3
ENCODING 963
SWIDTH 480 0
DWIDTH 8 0
BBX 7 7 1 0
BITMAP
7E
C4
84
84
84
CC
78
ENDCHAR
STARTCHAR 03C4
ENCODING 964
SWIDTH 360 0
DWIDTH 6 0
BBX 5 7 1 0
BITMAP
F8
20
20
20
20
20
30
ENDCHAR
STARTCHAR 03C5
ENCODING 965
SWIDTH 480 0
DWIDTH 8 0
BBX 6 7 1 0
BITMAP
84
84
84
84
84
CC
78
ENDCHAR
STARTCHAR 03C6
ENCODING 966
SWIDTH 540 0
DWIDTH 9 0
BBX 8 11 1 -4
BITMAP
6E
D9
99
99
9B
5E
3C
18
18
18
08
ENDCHAR
STARTCHAR 03C7
ENCODING 967
SWIDTH 360 0
DWIDTH 6 0
BBX 5 10 1 -3
BITMAP
98
50
50
70
20
20
70
50
D0
98
ENDCHAR
STARTCHAR 03C8
ENCODING 968
SWIDTH 480 0
DWIDTH 8 0
BBX 6 11 1 -4
BITMAP
B4
B4
B4
B4
B4
FC
78
30
30
30
10
ENDCHAR
STARTCHAR 03C9
ENCODING 969
SWIDTH 600 0
DWIDTH 10 0
BBX 8 8 1 0
BITMAP
02
43
81
81
99
99
D9
76
ENDCHAR
STARTCHAR 03CA
ENCODING 970
SWIDTH 240 0
DWIDTH 4 0
BBX 5 10 -1 0
BITMAP
D8
00
00
20
20
20
20
20
20
30
ENDCHAR
STARTCHAR 03CB
ENCODING 971
SWIDTH 480 0
DWIDTH 8 0
BBX 6 10 1 0
BITMAP
68
00
00
84
84
84
84
84
CC
78
ENDCHAR
STARTCHAR 03CC
ENCODING 972
SWIDTH 480 0
DWIDTH 8 0
BBX 6 11 1 0
BITMAP
18
10
20
30
78
C4
84
84
84
CC
78
ENDCHAR
STARTCHAR 03CD
ENCODING 973
SWIDTH 480 0
DWIDTH 8 0
BBX 6 11 1 0
BITMAP
18
10
20
00
84
84
84
84
84
CC
78
ENDCHAR
STARTCHAR 03CE
ENCODING 974
SWIDTH 600 0
DWIDTH 10 0
BBX 8 11 1 0
BITMAP
0C
08
10
02
43
81
81
99
99
D9
76
ENDCHAR
STARTCHAR 03CF
ENCODING 975
SWIDTH 540 0
DWIDTH 9 0
BBX 7 14 1 -3
BITMAP
84
8C
98
90
A0
E0
D0
98
88
84
86
0C
18
10
ENDCHAR
STARTCHAR 03D0
ENCODING 976
SWIDTH 420 0
DWIDTH 7 0
BBX 6 11 1 0
BITMAP
70
D8
88
88
98
98
8C
84
84
CC
78
ENDCHAR
STARTCHAR 03D1
ENCODING 977
SWIDTH 600 0
DWIDTH 10 0
BBX 9 11 1 0
BITMAP
0C00
1600
1200
1300
C980
6F00
6100
2300
2200
3200
1C00
ENDCHAR
STARTCHAR 03D2
ENCODING 978
SWIDTH 540 0
DWIDTH 9 0
BBX 8 11 1 0
BITMAP
C3
66
38
18
10
10
10
10
10
10
10
ENDCHAR
STARTCHAR 03D3
ENCODING 979
SWIDTH 780 0
DWIDTH 13 0
BBX 11 11 1 0
BITMAP
5860
8CC0
0280
0300
0100
0100
0100
0100
0100
0100
0100
ENDCHAR
STARTCHAR 03D4
ENCODING 980
SWIDTH 540 0
DWIDTH 9 0
BBX 8 14 1 0
BITMAP
24
6C
00
C3
66
38
18
10
10
10
10
10
10
10
ENDCHAR
STARTCHAR 03D5
ENCODING 981
SWIDTH 480 0
DWIDTH 8 0
BBX 6 15 1 -4
BITMAP
30
30
30
30
78
F4
B4
B4
B4
FC
78
30
30
30
10
ENDCHAR
STARTCHAR 03D6
ENCODING 982
SWIDTH 600 0
DWIDTH 10 0
BBX 8 7 1 0
BITMAP
FF
81
81
99
99
D9
76
ENDCHAR
STARTCHAR 03D7
ENCODING 983
SWIDTH 600 0
DWIDTH 10 0
BBX 9 11 1 -3
BITMAP
C180
E380
3600
3E00
3E00
3600
3600
E380
0080
0080
0180
ENDCHAR
STARTCHAR 03D8
ENCODING 984
SWIDTH 600 0
DWIDTH 10 0
BBX 9 14 1 -3
BITMAP
1C00
6600
4100
8100
8180
8080
8180
8180
C100
6200
3C00
0800
0800
0800
ENDCHAR
STARTCHAR 03D9
ENCODING 985
SWIDTH 480 0
DWIDTH 8 0
BBX 6 12 1 -4
BITMAP
30
78
C4
84
84
84
CC
78
30
30
30
10
ENDCHAR
STARTCHAR 03DA
ENCODING 986
SWIDTH 540 0
DWIDTH 9 0
BBX 8 14 1 -3
BITMAP
3C
66
C1
80
80
80
C0
60
38
0C
02
43
62
3E
ENDCHAR
STARTCHAR 03DB
ENCODING 987
SWIDTH 480 0
DWIDTH 8 0
BBX 6 11 1 -3
BITMAP
30
78
C4
80
80
80
C0
78
08
08
38
ENDCHAR
STARTCHAR 03DC
ENCODING 988
SWIDTH 480 0
DWIDTH 8 0
BBX 7 11 1 0
BITMAP
FE
80
80
80
F8
80
80
80
80
80
80
ENDCHAR
STARTCHAR 03DD
ENCODING 989
SWIDTH 360 0
DWIDTH 6 0
BBX 5 10 1 -4
BITMAP
F8
80
80
F8
80
80
80
80
80
80
ENDCHAR
STARTCHAR 03DE
ENCODING 990
SWIDTH 480 0
DWIDTH 8 0
BBX 6 11 1 0
BITMAP
C0
60
20
60
40
7C
08
08
18
18
0C
ENDCHAR
STARTCHAR 03DF
ENCODING 991
SWIDTH 360 0
DWIDTH 6 0
BBX 5 11 1 0
BITMAP
20
20
40
40
C0
F8
10
10
30
20
20
ENDCHAR
STARTCHAR 03E0
ENCODING 992
SWIDTH 540 0
DWIDTH 9 0
BBX 8 11 1 0
BITMAP
38
66
8E
1B
33
67
CD
19
22
46
0C
ENDCHAR
STARTCHAR 03E1
ENCODING 993
SWIDTH 360 0
DWIDTH 6 0
BBX 5 11 1 -3
BITMAP
40
F0
10
38
68
88
18
68
58
10
30
ENDCHAR
STARTCHAR 03E2
ENCODING 994
SWIDTH 780 0
DWIDTH 13 0
BBX 12 14 1 -3
BITMAP
8430
8430
8430
8430
8430
8430
8430
8430
8630
CE70
79F0
0830
1E20
13C0
ENDCHAR
STARTCHAR 03E3
ENCODING 995
SWIDTH 600 0
DWIDTH 10 0
BBX 9 10 0 -3
BITMAP
4C80
4C80
4C80
4C80
4C80
4C80
3B80
2080
7980
8F00
ENDCHAR
STARTCHAR 03E4
ENCODING 996
SWIDTH 420 0
DWIDTH 7 0
BBX 6 11 1 0
BITMAP
24
44
84
84
84
84
4C
3C
04
04
04
ENDCHAR
STARTCHAR 03E5
ENCODING 997
SWIDTH 420 0
DWIDTH 7 0
BBX 6 11 1 -4
BITMAP
20
64
C4
84
84
84
CC
7C
04
04
04
ENDCHAR
STARTCHAR 03E6
ENCODING 998
SWIDTH 420 0
DWIDTH 7 0
BBX 6 11 1 0
BITMAP
80
80
80
B0
F8
8C
84
84
04
0C
18
ENDCHAR
STARTCHAR 03E7
ENCODING 999
SWIDTH 600 0
DWIDTH 10 0
BBX 9 11 1 0
BITMAP
0C00
1600
1200
1300
0980
0F00
0100
2300
2200
7200
DC00
ENDCHAR
STARTCHAR 03E8
ENCODING 1000
SWIDTH 480 0
DWIDTH 8 0
BBX 6 11 1 0
BITMAP
38
4C
C4
04
18
70
C0
80
84
CC
78
ENDCHAR
STARTCHAR 03E9
ENCODING 1001
SWIDTH 360 0
DWIDTH 6 0
BBX 5 8 1 0
BITMAP
20
F0
10
30
C0
80
98
70
ENDCHAR
STARTCHAR 03EA
ENCODING 1002
SWIDTH 720 0
DWIDTH 12 0
BBX 10 11 1 0
BITMAP
2180
3300
1A00
0C00
0C00
0E00
1200
3100
6180
4080
FFC0
ENDCHAR
STARTCHAR 03EB
ENCODING 1003
SWIDTH 480 0
DWIDTH 8 0
BBX 7 7 1 0
BITMAP
6C
38
38
28
4C
C6
FE
ENDCHAR
STARTCHAR 03EC
ENCODING 1004
SWIDTH 480 0
DWIDTH 8 0
BBX 7 12 1 0
BITMAP
02
3E
78
C0
B0
F8
C4
84
84
84
CC
78
ENDCHAR
STARTCHAR 03ED
ENCODING 1005
SWIDTH 480 0
DWIDTH 8 0
BBX 6 11 1 0
BITMAP
04
38
60
F0
F8
C4
84
84
84
CC
78
ENDCHAR
STARTCHAR 03EE
ENCODING 1006
SWIDTH 480 0
DWIDTH 8 0
BBX 7 11 1 0
BITMAP
10
10
FE
10
10
10
10
10
10
10
10
ENDCHAR
STARTCHAR 03EF
ENCODING 1007
SWIDTH 360 0
DWIDTH 6 0
BBX 5 11 1 0
BITMAP
20
20
20
20
F8
20
20
20
20
20
20
ENDCHAR
STARTCHAR 03F0
ENCODING 1008
SWIDTH 600 0
DWIDTH 10 0
BBX 9 8 1 0
BITMAP
C180
E380
3600
3E00
3E00
3600
3600
E380
ENDCHAR
STARTCHAR 03F1
ENCODING 1009
SWIDTH 480 0
DWIDTH 8 0
BBX 6 11 1 -3
BITMAP
30
78
C4
84
84
84
CC
F8
80
80
7C
ENDCHAR
STARTCHAR 03F2
ENCODING 1010
SWIDTH 420 0
DWIDTH 7 0
BBX 6 8 1 0
BITMAP
30
78
C4
80
80
80
CC
78
ENDCHAR
STARTCHAR 03F3
ENCODING 1011
SWIDTH 120 0
DWIDTH 2 0
BBX 3 13 -1 -3
BITMAP
20
00
00
20
20
20
20
20
20
20
20
20
E0
ENDCHAR
STARTCHAR 03F4
ENCODING 1012
SWIDTH 600 0
DWIDTH 10 0
BBX 9 11 1 0
BITMAP
1C00
6600
4100
8100
8180
FF80
8180
8180
C100
6200
3C00
ENDCHAR
STARTCHAR 03F5
ENCODING 1013
SWIDTH 420 0
DWIDTH 7 0
BBX 6 8 1 0
BITMAP
30
78
C4
80
F0
80
CC
78
ENDCHAR
STARTCHAR 03F6
ENCODING 1014
SWIDTH 420 0
DWIDTH 7 0
BBX 6 8 1 0
BITMAP
30
F8
8C
04
3C
0C
C8
78
ENDCHAR
STARTCHAR 03F7
ENCODING 1015
SWIDTH 480 0
DWIDTH 8 0
BBX 6 11 1 0
BITMAP
80
80
80
F8
84
84
84
FC
80
80
80
ENDCHAR
STARTCHAR 03F8
ENCODING 1016
SWIDTH 480 0
DWIDTH 8 0
BBX 6 14 1 -4
BITMAP
80
80
80
B0
F8
C4
84
84
84
CC
F8
80
80
80
ENDCHAR
STARTCHAR 03F9
ENCODING 1017
SWIDTH 540 0
DWIDTH 9 0
BBX 8 11 1 0
BITMAP
1C
66
41
80
80
80
80
80
C1
62
3C
ENDCHAR
STARTCHAR 03FA
ENCODING 1018
SWIDTH 600 0
DWIDTH 10 0
BBX 9 11 1 0
BITMAP
8180
C380
E280
B680
9C80
9880
8080
8080
8080
8080
8080
ENDCHAR
STARTCHAR 03FB
ENCODING 1019
SWIDTH 480 0
DWIDTH 8 0
BBX 7 10 1 -4
BITMAP
86
C6
CE
EE
BE
B6
B6
80
80
80
ENDCHAR
STARTCHAR 03FC
ENCODING 1020
SWIDTH 480 0
DWIDTH 8 0
BBX 7 11 0 -4
BITMAP
18
3C
62
42
42
42
66
7C
40
E0
40
ENDCHAR
STARTCHAR 03FD
ENCODING 1021
SWIDTH 540 0
DWIDTH 9 0
BBX 8 11 1 0
BITMAP
38
66
82
03
01
01
01
01
82
C6
7C
ENDCHAR
STARTCHAR 03FE
ENCODING 1022
SWIDTH 540 0
DWIDTH 9 0
BBX 8 11 1 0
BITMAP
1C
66
41
80
80
98
80
80
C1
62
3C
ENDCHAR
STARTCHAR 03FF
ENCODING 1023
SWIDTH 540 0
DWIDTH 9 0
BBX 8 11 1 0
BITMAP
38
66
82
03
01
11
11
01
82
C6
7C
ENDCHAR
STARTCHAR 0400
ENCODING 1024
SWIDTH 480 0
DWIDTH 8 0
BBX 7 14 1 0
BITMAP
20
10
00
FE
80
80
80
80
FC
80
80
80
80
FE
ENDCHAR
STARTCHAR 0401
ENCODING 1025
SWIDTH 480 0
DWIDTH 8 0
BBX 7 14 1 0
BITMAP
48
68
00
FE
80
80
80
80
FC
80
80
80
80
FE
ENDCHAR
STARTCHAR 0402
ENCODING 1026
SWIDTH 600 0
DWIDTH 10 0
BBX 9 11 1 0
BITMAP
FE00
1000
1000
1600
1F00
1180
1080
1080
1180
1100
1200
ENDCHAR
STARTCHAR 0403
ENCODING 1027
SWIDTH 480 0
DWIDTH 8 0
BBX 7 14 1 0
BITMAP
18
10
00
FE
80
80
80
80
80
80
80
80
80
80
ENDCHAR
STARTCHAR 0404
ENCODING 1028
SWIDTH 540 0
DWIDTH 9 0
BBX 8 11 1 0
BITMAP
1C
66
41
80
80
FC
80
80
C1
62
3C
ENDCHAR
STARTCHAR 0405
ENCODING 1029
SWIDTH 480 0
DWIDTH 8 0
BBX 6 11 1 0
BITMAP
38
4C
84
C0
60
38
0C
04
84
CC
78
ENDCHAR
STARTCHAR 0406
ENCODING 1030
SWIDTH 300 0
DWIDTH 5 0
BBX 3 11 1 0
BITMAP
E0
40
40
40
40
40
40
40
40
40
E0
ENDCHAR
STARTCHAR 0407
ENCODING 1031
SWIDTH 300 0
DWIDTH 5 0
BBX 5 14 0 0
BITMAP
50
D8
00
70
20
20
20
20
20
20
20
20
20
70
ENDCHAR
STARTCHAR 0408
ENCODING 1032
SWIDTH 360 0
DWIDTH 6 0
BBX 4 11 1 0
BITMAP
10
10
10
10
10
10
10
10
10
90
F0
ENDCHAR
STARTCHAR 0409
ENCODING 1033
SWIDTH 840 0
DWIDTH 14 0
BBX 13 11 1 0
BITMAP
7E00
4200
4200
4200
4200
43F0
4210
4208
4218
C210
83E0
ENDCHAR
STARTCHAR 040A
ENCODING 1034
SWIDTH 840 0
DWIDTH 14 0
BBX 12 11 1 0
BITMAP
8600
8600
8600
8600
8600
FFE0
8610
8610
8610
8630
87E0
ENDCHAR
STARTCHAR 040B
ENCODING 1035
SWIDTH 600 0
DWIDTH 10 0
BBX 9 11 1 0
BITMAP
FE00
1000
1000
1600
1F00
1880
1080
1080
1080
1080
1080
ENDCHAR
STARTCHAR 040C
ENCODING 1036
SWIDTH 480 0
DWIDTH 8 0
BBX 7 14 1 0
BITMAP
08
10
00
84
88
90
90
90
E0
F0
98
88
84
86
ENDCHAR
STARTCHAR 040D
ENCODING 1037
SWIDTH 480 0
DWIDTH 8 0
BBX 7 14 1 0
BITMAP
20
10
00
86
86
86
86
8E
96
A6
C6
86
86
86
ENDCHAR
STARTCHAR 040E
ENCODING 1038
SWIDTH 540 0
DWIDTH 9 0
BBX 7 14 1 0
BITMAP
22
1C
00
42
62
26
24
34
1C
18
18
18
90
F0
ENDCHAR
STARTCHAR 040F
ENCODING 1039
SWIDTH 480 0
DWIDTH 8 0
BBX 7 13 1 -2
BITMAP
86
86
86
86
86
86
86
86
86
86
FE
10
10
ENDCHAR
STARTCHAR 0410
ENCODING 1040
SWIDTH 600 0
DWIDTH 10 0
BBX 9 11 1 0
BITMAP
0800
1800
1400
1400
2600
2200
7E00
4300
4100
C100
8180
ENDCHAR
STARTCHAR 0411
ENCODING 1041
SWIDTH 480 0
DWIDTH 8 0
BBX 7 11 1 0
BITMAP
FC
80
80
80
80
FC
84
86
86
8C
F8
ENDCHAR
STARTCHAR 0412
ENCODING 1042
SWIDTH 480 0
DWIDTH 8 0
BBX 7 11 1 0
BITMAP
F8
8C
84
84
8C
FC
84
86
86
8C
F8
ENDCHAR
STARTCHAR 0413
ENCODING 1043
SWIDTH 480 0
DWIDTH 8 0
BBX 7 11 1 0
BITMAP
FE
80
80
80
80
80
80
80
80
80
80
ENDCHAR
STARTCHAR 0414
ENCODING 1044
SWIDTH 660 0
DWIDTH 11 0
BBX 10 13 1 -2
BITMAP
3F00
2100
2100
2100
2100
2100
2100
2100
2100
2100
FFC0
80C0
80C0
ENDCHAR
STARTCHAR 0415
ENCODING 1045
SWIDTH 480 0
DWIDTH 8 0
BBX 7 11 1 0
BITMAP
FE
80
80
80
80
FC
80
80
80
80
FE
ENDCHAR
STARTCHAR 0416
ENCODING 1046
SWIDTH 900 0
DWIDTH 15 0
BBX 13 11 1 0
BITMAP
4210
6230
3260
1240
1240
1FC0
1740
3260
2220
4210
C218
ENDCHAR
STARTCHAR 0417
ENCODING 1047
SWIDTH 480 0
DWIDTH 8 0
BBX 7 11 1 0
BITMAP
38
6C
C6
06
0C
1C
06
02
82
C6
7C
ENDCHAR
STARTCHAR 0418
ENCODING 1048
SWIDTH 480 0
DWIDTH 8 0
BBX 7 11 1 0
BITMAP
86
86
86
86
8E
96
A6
C6
86
86
86
ENDCHAR
STARTCHAR 0419
ENCODING 1049
SWIDTH 480 0
DWIDTH 8 0
BBX 7 14 1 0
BITMAP
48
38
00
86
86
86
86
8E
96
A6
C6
86
86
86
ENDCHAR
STARTCHAR 041A
ENCODING 1050
SWIDTH 480 0
DWIDTH 8 0
BBX 7 11 1 0
BITMAP
84
88
90
90
90
E0
F0
98
88
84
86
ENDCHAR
STARTCHAR 041B
ENCODING 1051
SWIDTH 480 0
DWIDTH 8 0
BBX 7 11 1 0
BITMAP
7E
42
42
42
42
42
42
42
42
C2
82
ENDCHAR
STARTCHAR 041C
ENCODING 1052
SWIDTH 600 0
DWIDTH 10 0
BBX 9 11 1 0
BITMAP
8080
C180
C180
C380
E280
A280
A680
B480
9480
9C80
8880
ENDCHAR
STARTCHAR 041D
ENCODING 1053
SWIDTH 480 0
DWIDTH 8 0
BBX 7 11 1 0
BITMAP
86
86
86
86
86
FE
86
86
86
86
86
ENDCHAR
STARTCHAR 041E
ENCODING 1054
SWIDTH 600 0
DWIDTH 10 0
BBX 9 11 1 0
BITMAP
1C00
6600
4100
8100
8180
8080
8180
8180
C100
6200
3C00
ENDCHAR
STARTCHAR 041F
ENCODING 1055
SWIDTH 480 0
DWIDTH 8 0
BBX 7 11 1 0
BITMAP
FE
86
86
86
86
86
86
86
86
86
86
ENDCHAR
STARTCHAR 0420
ENCODING 1056
SWIDTH 480 0
DWIDTH 8 0
BBX 6 11 1 0
BITMAP
F0
9C
84
84
84
F8
80
80
80
80
80
ENDCHAR
STARTCHAR 0421
ENCODING 1057
SWIDTH 540 0
DWIDTH 9 0
BBX 8 11 1 0
BITMAP
1C
66
41
80
80
80
80
80
C1
62
3C
ENDCHAR
STARTCHAR 0422
ENCODING 1058
SWIDTH 480 0
DWIDTH 8 0
BBX 7 11 1 0
BITMAP
FE
10
10
10
10
10
10
10
10
10
10
ENDCHAR
STARTCHAR 0423
ENCODING 1059
SWIDTH 540 0
DWIDTH 9 0
BBX 7 11 1 0
BITMAP
42
62
26
24
34
1C
18
18
18
90
F0
ENDCHAR
STARTCHAR 0424
ENCODING 1060
SWIDTH 600 0
DWIDTH 10 0
BBX 8 11 1 0
BITMAP
18
18
3E
FF
99
99
99
DB
7E
18
18
ENDCHAR
STARTCHAR 0425
ENCODING 1061
SWIDTH 600 0
DWIDTH 10 0
BBX 9 11 1 0
BITMAP
8180
4300
6200
3600
1C00
1800
1C00
3400
2200
4300
C100
ENDCHAR
STARTCHAR 0426
ENCODING 1062
SWIDTH 540 0
DWIDTH 9 0
BBX 8 13 1 -2
BITMAP
86
86
86
86
86
86
86
86
86
86
FF
01
01
ENDCHAR
STARTCHAR 0427
ENCODING 1063
SWIDTH 480 0
DWIDTH 8 0
BBX 7 11 1 0
BITMAP
82
82
82
82
82
46
3E
02
02
02
02
ENDCHAR
STARTCHAR 0428
ENCODING 1064
SWIDTH 720 0
DWIDTH 12 0
BBX 11 11 1 0
BITMAP
8460
8460
8460
8460
8460
8460
8460
8460
8460
8460
FFE0
ENDCHAR
STARTCHAR 0429
ENCODING 1065
SWIDTH 780 0
DWIDTH 13 0
BBX 12 13 1 -2
BITMAP
8460
8460
8460
8460
8460
8460
8460
8460
8460
8460
FFF0
0010
0010
ENDCHAR
STARTCHAR 042A
ENCODING 1066
SWIDTH 600 0
DWIDTH 10 0
BBX 9 11 1 0
BITMAP
E000
2000
2000
2000
2000
3F00
2180
2080
2080
2180
3F00
ENDCHAR
STARTCHAR 042B
ENCODING 1067
SWIDTH 600 0
DWIDTH 10 0
BBX 9 11 1 0
BITMAP
8080
8080
8080
8080
8080
FC80
8480
8680
8680
8C80
F880
ENDCHAR
STARTCHAR 042C
ENCODING 1068
SWIDTH 480 0
DWIDTH 8 0
BBX 7 11 1 0
BITMAP
80
80
80
80
80
FC
84
86
86
8C
F8
ENDCHAR
STARTCHAR 042D
ENCODING 1069
SWIDTH 540 0
DWIDTH 9 0
BBX 8 11 1 0
BITMAP
38
66
82
03
01
3F
01
01
82
C6
7C
ENDCHAR
STARTCHAR 042E
ENCODING 1070
SWIDTH 780 0
DWIDTH 13 0
BBX 11 11 1 0
BITMAP
8700
8CC0
9040
9020
B020
E020
B020
9020
9060
88C0
8780
ENDCHAR
STARTCHAR 042F
ENCODING 1071
SWIDTH 480 0
DWIDTH 8 0
BBX 7 11 1 0
BITMAP
1E
72
42
42
42
3E
32
22
62
42
C2
ENDCHAR
STARTCHAR 0430
ENCODING 1072
SWIDTH 360 0
DWIDTH 6 0
BBX 5 8 1 0
BITMAP
20
78
08
28
F8
88
98
78
ENDCHAR
STARTCHAR 0431
ENCODING 1073
SWIDTH 480 0
DWIDTH 8 0
BBX 6 11 1 0
BITMAP
04
38
60
F0
F8
C4
84
84
84
CC
78
ENDCHAR
STARTCHAR 0432
ENCODING 1074
SWIDTH 360 0
DWIDTH 6 0
BBX 5 7 1 0
BITMAP
F0
88
F0
F8
88
98
F0
ENDCHAR
STARTCHAR 0433
ENCODING 1075
SWIDTH 360 0
DWIDTH 6 0
BBX 5 7 1 0
BITMAP
F8
80
80
80
80
80
80
ENDCHAR
STARTCHAR 0434
ENCODING 1076
SWIDTH 540 0
DWIDTH 9 0
BBX 8 9 1 -2
BITMAP
3E
22
22
22
22
22
FF
81
81
ENDCHAR
STARTCHAR 0435
ENCODING 1077
SWIDTH 480 0
DWIDTH 8 0
BBX 6 8 1 0
BITMAP
30
78
C4
FC
80
80
CC
78
ENDCHAR
STARTCHAR 0436
ENCODING 1078
SWIDTH 660 0
DWIDTH 11 0
BBX 10 8 1 0
BITMAP
4080
6D80
2D00
2D00
3F00
6D80
CC80
8C40
ENDCHAR
STARTCHAR 0437
ENCODING 1079
SWIDTH 360 0
DWIDTH 6 0
BBX 5 8 1 0
BITMAP
60
F0
10
30
30
18
98
70
ENDCHAR
STARTCHAR 0438
ENCODING 1080
SWIDTH 420 0
DWIDTH 7 0
BBX 6 7 1 0
BITMAP
8C
8C
9C
AC
CC
8C
8C
ENDCHAR
STARTCHAR 0439
ENCODING 1081
SWIDTH 420 0
DWIDTH 7 0
BBX 6 11 1 0
BITMAP
88
58
20
00
8C
8C
9C
AC
CC
8C
8C
ENDCHAR
STARTCHAR 043A
ENCODING 1082
SWIDTH 420 0
DWIDTH 7 0
BBX 6 8 1 0
BITMAP
08
98
B0
A0
E0
90
98
8C
ENDCHAR
STARTCHAR 043B
ENCODING 1083
SWIDTH 480 0
DWIDTH 8 0
BBX 6 7 1 0
BITMAP
7C
44
44
44
44
C4
84
ENDCHAR
STARTCHAR 043C
ENCODING 1084
SWIDTH 480 0
DWIDTH 8 0
BBX 7 7 1 0
BITMAP
86
C6
CE
EE
BE
B6
B6
ENDCHAR
STARTCHAR 043D
ENCODING 1085
SWIDTH 420 0
DWIDTH 7 0
BBX 6 7 1 0
BITMAP
8C
8C
8C
FC
8C
8C
8C
ENDCHAR
STARTCHAR 043E
ENCODING 1086
SWIDTH 480 0
DWIDTH 8 0
BBX 6 8 1 0
BITMAP
30
78
C4
84
84
84
CC
78
ENDCHAR
STARTCHAR 043F
ENCODING 1087
SWIDTH 420 0
DWIDTH 7 0
BBX 6 7 1 0
BITMAP
FC
8C
8C
8C
8C
8C
8C
ENDCHAR
STARTCHAR 0440
ENCODING 1088
SWIDTH 480 0
DWIDTH 8 0
BBX 6 11 1 -4
BITMAP
30
F8
C4
84
84
84
CC
F8
80
80
80
ENDCHAR
STARTCHAR 0441
ENCODING 1089
SWIDTH 420 0
DWIDTH 7 0
BBX 6 8 1 0
BITMAP
30
78
C4
80
80
80
CC
78
ENDCHAR
STARTCHAR 0442
ENCODING 1090
SWIDTH 360 0
DWIDTH 6 0
BBX 5 7 1 0
BITMAP
F8
20
20
20
20
20
20
ENDCHAR
STARTCHAR 0443
ENCODING 1091
SWIDTH 480 0
DWIDTH 8 0
BBX 6 10 1 -3
BITMAP
84
44
48
68
38
30
30
30
20
60
ENDCHAR
STARTCHAR 0444
ENCODING 1092
SWIDTH 600 0
DWIDTH 10 0
BBX 8 15 1 -4
BITMAP
18
18
18
3E
7F
99
99
99
99
D9
7E
18
18
18
08
ENDCHAR
STARTCHAR 0445
ENCODING 1093
SWIDTH 480 0
DWIDTH 8 0
BBX 6 7 1 0
BITMAP
CC
68
30
30
38
4C
C4
ENDCHAR
STARTCHAR 0446
ENCODING 1094
SWIDTH 480 0
DWIDTH 8 0
BBX 7 9 1 -2
BITMAP
8C
8C
8C
8C
8C
8C
FE
02
02
ENDCHAR
STARTCHAR 0447
ENCODING 1095
SWIDTH 360 0
DWIDTH 6 0
BBX 5 7 1 0
BITMAP
88
88
C8
78
08
08
08
ENDCHAR
STARTCHAR 0448
ENCODING 1096
SWIDTH 540 0
DWIDTH 9 0
BBX 8 7 1 0
BITMAP
93
93
93
93
93
93
FF
ENDCHAR
STARTCHAR 0449
ENCODING 1097
SWIDTH 600 0
DWIDTH 10 0
BBX 9 9 1 -2
BITMAP
9300
9300
9300
9300
9300
9300
FF80
0080
0080
ENDCHAR
STARTCHAR 044A
ENCODING 1098
SWIDTH 480 0
DWIDTH 8 0
BBX 7 7 1 0
BITMAP
E0
20
3C
3E
22
22
3C
ENDCHAR
STARTCHAR 044B
ENCODING 1099
SWIDTH 480 0
DWIDTH 8 0
BBX 7 7 1 0
BITMAP
82
82
E2
F2
9A
9A
F2
ENDCHAR
STARTCHAR 044C
ENCODING 1100
SWIDTH 360 0
DWIDTH 6 0
BBX 5 7 1 0
BITMAP
80
80
E0
F0
98
98
F0
ENDCHAR
STARTCHAR 044D
ENCODING 1101
SWIDTH 420 0
DWIDTH 7 0
BBX 6 8 1 0
BITMAP
30
F8
8C
04
3C
0C
C8
78
ENDCHAR
STARTCHAR 044E
ENCODING 1102
SWIDTH 600 0
DWIDTH 10 0
BBX 9 8 1 0
BITMAP
0400
9F00
9100
B180
E080
B180
9100
8E00
ENDCHAR
STARTCHAR 044F
ENCODING 1103
SWIDTH 360 0
DWIDTH 6 0
BBX 5 7 1 0
BITMAP
78
48
48
78
68
48
C8
ENDCHAR
STARTCHAR 0450
ENCODING 1104
SWIDTH 480 0
DWIDTH 8 0
BBX 6 11 1 0
BITMAP
60
20
10
30
78
C4
FC
80
80
CC
78
ENDCHAR
STARTCHAR 0451
ENCODING 1105
SWIDTH 480 0
DWIDTH 8 0
BBX 6 10 1 0
BITMAP
68
00
30
78
C4
FC
80
80
CC
78
ENDCHAR
STARTCHAR 0452
ENCODING 1106
SWIDTH 540 0
DWIDTH 9 0
BBX 8 14 1 -3
BITMAP
60
60
F0
6C
7E
63
61
61
61
61
61
01
01
0E
ENDCHAR
STARTCHAR 0453
ENCODING 1107
SWIDTH 360 0
DWIDTH 6 0
BBX 5 11 1 0
BITMAP
30
20
40
00
F8
80
80
80
80
80
80
ENDCHAR
STARTCHAR 0454
ENCODING 1108
SWIDTH 420 0
DWIDTH 7 0
BBX 6 8 1 0
BITMAP
30
78
C4
80
F0
80
CC
78
ENDCHAR
STARTCHAR 0455
ENCODING 1109
SWIDTH 360 0
DWIDTH 6 0
BBX 5 8 1 0
BITMAP
60
F0
80
E0
30
18
98
70
ENDCHAR
STARTCHAR 0456
ENCODING 1110
SWIDTH 120 0
DWIDTH 2 0
BBX 1 10 1 0
BITMAP
80
00
00
80
80
80
80
80
80
80
ENDCHAR
STARTCHAR 0457
ENCODING 1111
SWIDTH 120 0
DWIDTH 2 0
BBX 5 10 -1 0
BITMAP
D8
00
00
20
20
20
20
20
20
20
ENDCHAR
STARTCHAR 0458
ENCODING 1112
SWIDTH 120 0
DWIDTH 2 0
BBX 3 13 -1 -3
BITMAP
20
00
00
20
20
20
20
20
20
20
20
20
E0
ENDCHAR
STARTCHAR 0459
ENCODING 1113
SWIDTH 660 0
DWIDTH 11 0
BBX 10 7 1 0
BITMAP
7C00
4400
4780
47C0
4440
C4C0
8780
ENDCHAR
STARTCHAR 045A
ENCODING 1114
SWIDTH 600 0
DWIDTH 10 0
BBX 9 7 1 0
BITMAP
8C00
8C00
8F00
FF80
8C80
8C80
8F00
ENDCHAR
STARTCHAR 045B
ENCODING 1115
SWIDTH 540 0
DWIDTH 9 0
BBX 8 11 1 0
BITMAP
40
E0
E0
58
7E
62
42
43
43
43
43
ENDCHAR
STARTCHAR 045C
ENCODING 1116
SWIDTH 420 0
DWIDTH 7 0
BBX 6 11 1 0
BITMAP
10
20
00
08
98
B0
A0
E0
90
98
8C
ENDCHAR
STARTCHAR 045D
ENCODING 1117
SWIDTH 420 0
DWIDTH 7 0
BBX 6 11 1 0
BITMAP
40
20
10
00
8C
8C
9C
AC
CC
8C
8C
ENDCHAR
STARTCHAR 045E
ENCODING 1118
SWIDTH 480 0
DWIDTH 8 0
BBX 6 14 1 -3
BITMAP
48
68
10
00
84
44
48
68
38
30
30
30
20
60
ENDCHAR
STARTCHAR 045F
ENCODING 1119
SWIDTH 420 0
DWIDTH 7 0
BBX 6 9 1 -2
BITMAP
8C
8C
8C
8C
8C
8C
FC
20
20
ENDCHAR
STARTCHAR 0460
ENCODING 1120
SWIDTH 900 0
DWIDTH 15 0
BBX 14 11 1 0
BITMAP
820C
820C
820C
820C
820C
8208
8208
4308
6710
3CB0
1860
ENDCHAR
STARTCHAR 0461
ENCODING 1121
SWIDTH 720 0
DWIDTH 12 0
BBX 10 7 1 0
BITMAP
8840
8840
8840
8840
CCC0
7F80
3300
ENDCHAR
STARTCHAR 0462
ENCODING 1122
SWIDTH 660 0
DWIDTH 11 0
BBX 9 11 1 0
BITMAP
1000
1000
FE00
1000
1000
1F00
1080
1080
1080
1180
1F00
ENDCHAR
STARTCHAR 0463
ENCODING 1123
SWIDTH 480 0
DWIDTH 8 0
BBX 7 11 1 0
BITMAP
20
20
20
20
F8
20
38
3C
26
24
3C
ENDCHAR
STARTCHAR 0464
ENCODING 1124
SWIDTH 720 0
DWIDTH 12 0
BBX 10 11 1 0
BITMAP
8700
8CC0
9040
B000
A000
FF00
A000
B000
9040
98C0
8F80
ENDCHAR
STARTCHAR 0465
ENCODING 1125
SWIDTH 600 0
DWIDTH 10 0
BBX 8 8 1 0
BITMAP
04
9F
91
B0
FC
B0
91
8E
ENDCHAR
STARTCHAR 0466
ENCODING 1126
SWIDTH 600 0
DWIDTH 10 0
BBX 9 11 1 0
BITMAP
0800
1800
1400
1400
2600
2200
7E00
4B00
4900
C900
8980
ENDCHAR
STARTCHAR 0467
ENCODING 1127
SWIDTH 480 0
DWIDTH 8 0
BBX 6 7 1 0
BITMAP
30
38
68
78
7C
D4
94
ENDCHAR
STARTCHAR 0468
ENCODING 1128
SWIDTH 780 0
DWIDTH 13 0
BBX 11 11 1 0
BITMAP
8200
8300
8500
8500
8C80
F880
8FC0
9A40
9240
9260
B220
ENDCHAR
STARTCHAR 0469
ENCODING 1129
SWIDTH 600 0
DWIDTH 10 0
BBX 8 7 1 0
BITMAP
8C
8C
9E
FE
9E
AD
AD
ENDCHAR
STARTCHAR 046A
ENCODING 1130
SWIDTH 540 0
DWIDTH 9 0
BBX 8 11 1 0
BITMAP
FF
C3
46
24
38
3C
7E
9B
99
99
99
ENDCHAR
STARTCHAR 046B
ENCODING 1131
SWIDTH 480 0
DWIDTH 8 0
BBX 6 7 1 0
BITMAP
FC
68
30
78
F4
B4
B4
ENDCHAR
STARTCHAR 046C
ENCODING 1132
SWIDTH 720 0
DWIDTH 12 0
BBX 11 11 1 0
BITMAP
BFE0
90C0
9880
8D80
8700
FF00
9AC0
9240
B240
A240
A240
ENDCHAR
STARTCHAR 046D
ENCODING 1133
SWIDTH 600 0
DWIDTH 10 0
BBX 9 7 1 0
BITMAP
9F00
8A00
8E00
FF00
9500
B580
A480
ENDCHAR
STARTCHAR 046E
ENCODING 1134
SWIDTH 480 0
DWIDTH 8 0
BBX 7 15 1 -3
BITMAP
28
38
6C
C6
06
0C
1C
06
02
02
06
78
80
80
7C
ENDCHAR
STARTCHAR 046F
ENCODING 1135
SWIDTH 360 0
DWIDTH 6 0
BBX 5 12 1 -3
BITMAP
D0
60
F0
10
30
30
18
18
F0
80
90
F0
ENDCHAR
STARTCHAR 0470
ENCODING 1136
SWIDTH 660 0
DWIDTH 11 0
BBX 9 11 1 0
BITMAP
8880
C980
4900
4900
6900
3F00
3C00
0800
0800
0800
0800
ENDCHAR
STARTCHAR 0471
ENCODING 1137
SWIDTH 660 0
DWIDTH 11 0
BBX 9 14 1 -4
BITMAP
0800
0800
0800
0800
8980
4900
4900
6900
2900
2B00
3E00
0800
0800
0800
ENDCHAR
STARTCHAR 0472
ENCODING 1138
SWIDTH 600 0
DWIDTH 10 0
BBX 9 11 1 0
BITMAP
1C00
6600
4100
8100
8180
FF80
8180
8180
C100
6200
3C00
ENDCHAR
STARTCHAR 0473
ENCODING 1139
SWIDTH 480 0
DWIDTH 8 0
BBX 6 8 1 0
BITMAP
30
78
C4
84
FC
84
CC
78
ENDCHAR
STARTCHAR 0474
ENCODING 1140
SWIDTH 720 0
DWIDTH 12 0
BBX 11 11 1 0
BITMAP
80E0
C1A0
4100
4300
6200
2200
2600
3400
1400
1C00
0800
ENDCHAR
STARTCHAR 0475
ENCODING 1141
SWIDTH 540 0
DWIDTH 9 0
BBX 9 8 1 0
BITMAP
0300
8780
4400
4800
6800
3800
3000
3000
ENDCHAR
STARTCHAR 0476
ENCODING 1142
SWIDTH 720 0
DWIDTH 12 0
BBX 11 14 1 0
BITMAP
1400
1200
0000
80E0
C1A0
4100
4300
6200
2200
2600
3400
1400
1C00
0800
ENDCHAR
STARTCHAR 0477
ENCODING 1143
SWIDTH 540 0
DWIDTH 9 0
BBX 9 11 1 0
BITMAP
6800
2400
1000
0300
8780
4400
4800
6800
3800
3000
3000
ENDCHAR
STARTCHAR 0478
ENCODING 1144
SWIDTH 1080 0
DWIDTH 18 0
BBX 16 14 1 -3
BITMAP
1C00
6600
4100
8100
81A1
80B3
8192
8192
C11E
620C
3C0C
0008
0008
0038
ENDCHAR
STARTCHAR 0479
ENCODING 1145
SWIDTH 780 0
DWIDTH 13 0
BBX 11 11 1 -3
BITMAP
2000
7420
9660
9A40
9A40
99C0
D180
7180
0180
0100
0700
ENDCHAR
STARTCHAR 047A
ENCODING 1146
SWIDTH 780 0
DWIDTH 13 0
BBX 12 12 1 0
BITMAP
0F00
37C0
6060
C030
8010
8010
8010
8030
4020
36C0
1F80
0600
ENDCHAR
STARTCHAR 047B
ENCODING 1147
SWIDTH 540 0
DWIDTH 9 0
BBX 8 9 1 -1
BITMAP
18
7E
C3
81
81
83
5E
3C
18
ENDCHAR
STARTCHAR 047C
ENCODING 1148
SWIDTH 1080 0
DWIDTH 18 0
BBX 16 14 1 0
BITMAP
0380
02C0
0020
118C
6086
4083
8101
8001
8001
8181
8181
C1C3
6266
3C3C
ENDCHAR
STARTCHAR 047D
ENCODING 1149
SWIDTH 780 0
DWIDTH 13 0
BBX 12 13 1 0
BITMAP
0400
1F00
1180
0600
0600
2280
64E0
C020
8030
8430
8620
CE60
79C0
ENDCHAR
STARTCHAR 047E
ENCODING 1150
SWIDTH 900 0
DWIDTH 15 0
BBX 14 14 1 0
BITMAP
7FF0
6210
0200
820C
800C
800C
820C
820C
8208
8208
4308
6710
3CB0
1860
ENDCHAR
STARTCHAR 047F
ENCODING 1151
SWIDTH 720 0
DWIDTH 12 0
BBX 10 11 1 0
BITMAP
7F80
4C80
4C80
0C00
8040
8840
8840
8840
CCC0
7F80
3300
ENDCHAR
STARTCHAR 0480
ENCODING 1152
SWIDTH 540 0
DWIDTH 9 0
BBX 8 14 1 -3
BITMAP
1C
66
41
80
80
80
80
80
C0
60
38
08
08
08
ENDCHAR
STARTCHAR 0481
ENCODING 1153
SWIDTH 420 0
DWIDTH 7 0
BBX 6 12 1 -4
BITMAP
30
78
C4
80
80
80
C0
70
30
30
30
10
ENDCHAR
STARTCHAR 0482
ENCODING 1154
SWIDTH 600 0
DWIDTH 10 0
BBX 9 10 1 -3
BITMAP
0400
2400
1C00
0F80
0800
9800
F000
1E00
3200
2000
ENDCHAR
STARTCHAR 0483
ENCODING 1155
SWIDTH 0 0
DWIDTH 0 0
BBX 6 4 -3 8
BITMAP
0C
0C
F8
C0
ENDCHAR
STARTCHAR 0484
ENCODING 1156
SWIDTH 0 0
DWIDTH 0 0
BBX 3 3 0 8
BITMAP
E0
20
20
ENDCHAR
STARTCHAR 0485
ENCODING 1157
SWIDTH 0 0
DWIDTH 0 0
BBX 2 3 -1 8
BITMAP
C0
80
80
ENDCHAR
STARTCHAR 0486
ENCODING 1158
SWIDTH 0 0
DWIDTH 0 0
BBX 2 3 -1 8
BITMAP
C0
40
80
ENDCHAR
STARTCHAR 0487
ENCODING 1159
SWIDTH 0 0
DWIDTH 0 0
BBX 6 3 -3 8
BITMAP
70
D8
0C
ENDCHAR
STARTCHAR 0488
ENCODING 1160
SWIDTH 840 0
DWIDTH 14 0
BBX 13 14 1 -2
BITMAP
0200
1A80
2020
2020
C010
8010
8008
8008
0000
C018
0000
6020
1A80
0200
ENDCHAR
STARTCHAR 0489
ENCODING 1161
SWIDTH 1020 0
DWIDTH 17 0
BBX 15 14 2 -2
BITMAP
0600
2240
1040
001C
4010
0000
0004
800A
0000
4000
4018
0000
1260
3220
ENDCHAR
STARTCHAR 048A
ENCODING 1162
SWIDTH 480 0
DWIDTH 8 0
BBX 7 16 1 -3
BITMAP
48
38
00
86
86
86
86
8E
96
A6
C6
86
86
86
02
04
ENDCHAR
STARTCHAR 048B
ENCODING 1163
SWIDTH 420 0
DWIDTH 7 0
BBX 6 14 1 -3
BITMAP
88
58
20
00
8C
8C
9C
AC
CC
8C
8C
04
08
08
ENDCHAR
STARTCHAR 048C
ENCODING 1164
SWIDTH 540 0
DWIDTH 9 0
BBX 8 11 1 0
BITMAP
40
40
E0
40
40
7E
43
41
43
42
7C
ENDCHAR
STARTCHAR 048D
ENCODING 1165
SWIDTH 420 0
DWIDTH 7 0
BBX 6 9 1 0
BITMAP
40
40
E0
40
70
78
4C
4C
78
ENDCHAR
STARTCHAR 048E
ENCODING 1166
SWIDTH 480 0
DWIDTH 8 0
BBX 6 11 1 0
BITMAP
F0
9C
84
94
9C
FC
84
80
80
80
80
ENDCHAR
STARTCHAR 048F
ENCODING 1167
SWIDTH 480 0
DWIDTH 8 0
BBX 6 11 1 -4
BITMAP
30
F8
C4
84
84
94
CC
FC
80
80
80
ENDCHAR
STARTCHAR 0490
ENCODING 1168
SWIDTH 480 0
DWIDTH 8 0
BBX 7 13 1 0
BITMAP
06
06
FE
80
80
80
80
80
80
80
80
80
80
ENDCHAR
STARTCHAR 0491
ENCODING 1169
SWIDTH 360 0
DWIDTH 6 0
BBX 5 10 1 0
BITMAP
18
18
18
F8
80
80
80
80
80
80
ENDCHAR
STARTCHAR 0492
ENCODING 1170
SWIDTH 540 0
DWIDTH 9 0
BBX 8 11 1 0
BITMAP
7F
40
40
40
40
F0
40
40
40
40
40
ENDCHAR
STARTCHAR 0493
ENCODING 1171
SWIDTH 420 0
DWIDTH 7 0
BBX 6 7 1 0
BITMAP
7C
40
40
F0
40
40
40
ENDCHAR
STARTCHAR 0494
ENCODING 1172
SWIDTH 480 0
DWIDTH 8 0
BBX 7 14 1 -3
BITMAP
FE
80
80
B0
FC
C4
84
84
84
84
84
04
04
1C
ENDCHAR
STARTCHAR 0495
ENCODING 1173
SWIDTH 360 0
DWIDTH 6 0
BBX 5 10 1 -3
BITMAP
F8
80
F0
90
90
90
90
10
10
70
ENDCHAR
STARTCHAR 0496
ENCODING 1174
SWIDTH 900 0
DWIDTH 15 0
BBX 13 13 1 -2
BITMAP
4210
6230
3260
1240
1240
1FC0
1740
3260
2220
4210
C218
0008
0008
ENDCHAR
STARTCHAR 0497
ENCODING 1175
SWIDTH 660 0
DWIDTH 11 0
BBX 10 10 1 -2
BITMAP
4080
6D80
2D00
2D00
3F00
6D80
CC80
8C40
0040
0040
ENDCHAR
STARTCHAR 0498
ENCODING 1176
SWIDTH 480 0
DWIDTH 8 0
BBX 7 13 1 -2
BITMAP
38
6C
C6
06
0C
1C
06
02
82
C6
7C
10
10
ENDCHAR
STARTCHAR 0499
ENCODING 1177
SWIDTH 360 0
DWIDTH 6 0
BBX 5 10 1 -2
BITMAP
60
F0
10
30
30
18
98
70
20
20
ENDCHAR
STARTCHAR 049A
ENCODING 1178
SWIDTH 480 0
DWIDTH 8 0
BBX 7 13 1 -2
BITMAP
84
88
90
90
90
E0
F0
98
88
84
86
02
02
ENDCHAR
STARTCHAR 049B
ENCODING 1179
SWIDTH 420 0
DWIDTH 7 0
BBX 6 10 1 -2
BITMAP
08
98
B0
A0
E0
90
98
8C
04
04
ENDCHAR
STARTCHAR 049C
ENCODING 1180
SWIDTH 480 0
DWIDTH 8 0
BBX 7 11 1 0
BITMAP
84
88
90
90
D0
E0
F0
D8
88
84
86
ENDCHAR
STARTCHAR 049D
ENCODING 1181
SWIDTH 420 0
DWIDTH 7 0
BBX 6 8 1 0
BITMAP
08
98
F0
E0
E0
D0
98
8C
ENDCHAR
STARTCHAR 049E
ENCODING 1182
SWIDTH 480 0
DWIDTH 8 0
BBX 8 11 0 0
BITMAP
42
F4
F8
48
48
70
78
4C
44
42
43
ENDCHAR
STARTCHAR 049F
ENCODING 1183
SWIDTH 420 0
DWIDTH 7 0
BBX 7 10 0 0
BITMAP
40
F0
F4
4C
58
50
70
48
4C
46
ENDCHAR
STARTCHAR 04A0
ENCODING 1184
SWIDTH 660 0
DWIDTH 11 0
BBX 9 11 1 0
BITMAP
E180
2300
2200
2200
2600
3C00
3400
2200
2300
2180
2080
ENDCHAR
STARTCHAR 04A1
ENCODING 1185
SWIDTH 540 0
DWIDTH 9 0
BBX 8 8 1 0
BITMAP
02
E6
24
2C
3C
26
22
21
ENDCHAR
STARTCHAR 04A2
ENCODING 1186
SWIDTH 540 0
DWIDTH 9 0
BBX 8 13 1 -2
BITMAP
86
86
86
86
86
FE
86
86
86
86
87
01
01
ENDCHAR
STARTCHAR 04A3
ENCODING 1187
SWIDTH 480 0
DWIDTH 8 0
BBX 7 9 1 -2
BITMAP
8C
8C
8C
FC
8C
8C
8E
02
02
ENDCHAR
STARTCHAR 04A4
ENCODING 1188
SWIDTH 840 0
DWIDTH 14 0
BBX 12 11 1 0
BITMAP
87F0
8600
8600
8600
8600
FE00
8600
8600
8600
8600
8600
ENDCHAR
STARTCHAR 04A5
ENCODING 1189
SWIDTH 600 0
DWIDTH 10 0
BBX 9 7 1 0
BITMAP
8F80
8C00
8C00
FC00
8C00
8C00
8C00
ENDCHAR
STARTCHAR 04A6
ENCODING 1190
SWIDTH 780 0
DWIDTH 13 0
BBX 12 14 1 -3
BITMAP
FE00
8600
8600
8700
87C0
8660
8620
8620
8630
8630
8620
0020
0840
07C0
ENDCHAR
STARTCHAR 04A7
ENCODING 1191
SWIDTH 600 0
DWIDTH 10 0
BBX 9 10 1 -3
BITMAP
FC00
8C00
8C00
8F00
8D80
8C80
8C80
0080
1980
0F00
ENDCHAR
STARTCHAR 04A8
ENCODING 1192
SWIDTH 720 0
DWIDTH 12 0
BBX 10 11 1 0
BITMAP
1300
6580
4C80
8880
88C0
88C0
8880
8C80
C580
6740
3FC0
ENDCHAR
STARTCHAR 04A9
ENCODING 1193
SWIDTH 600 0
DWIDTH 10 0
BBX 8 8 1 0
BITMAP
2C
7E
D2
92
92
92
DF
7F
ENDCHAR
STARTCHAR 04AA
ENCODING 1194
SWIDTH 540 0
DWIDTH 9 0
BBX 8 13 1 -2
BITMAP
1C
66
41
80
80
80
80
80
C1
62
3C
08
08
ENDCHAR
STARTCHAR 04AB
ENCODING 1195
SWIDTH 420 0
DWIDTH 7 0
BBX 6 10 1 -2
BITMAP
30
78
C4
80
80
80
CC
78
30
30
ENDCHAR
STARTCHAR 04AC
ENCODING 1196
SWIDTH 480 0
DWIDTH 8 0
BBX 7 13 1 -2
BITMAP
FE
10
10
10
10
10
10
10
10
10
18
08
08
ENDCHAR
STARTCHAR 04AD
ENCODING 1197
SWIDTH 360 0
DWIDTH 6 0
BBX 5 9 1 -2
BITMAP
F8
20
20
20
20
20
30
10
10
ENDCHAR
STARTCHAR 04AE
ENCODING 1198
SWIDTH 600 0
DWIDTH 10 0
BBX 9 11 1 0
BITMAP
8180
4300
6200
3600
1C00
1800
0800
0800
0800
0800
0800
ENDCHAR
STARTCHAR 04AF
ENCODING 1199
SWIDTH 480 0
DWIDTH 8 0
BBX 6 10 1 -4
BITMAP
84
44
48
68
38
30
30
10
10
10
ENDCHAR
STARTCHAR 04B0
ENCODING 1200
SWIDTH 600 0
DWIDTH 10 0
BBX 9 11 1 0
BITMAP
8180
4300
6200
3600
1C00
1800
0800
7E00
0800
0800
0800
ENDCHAR
STARTCHAR 04B1
ENCODING 1201
SWIDTH 480 0
DWIDTH 8 0
BBX 6 10 1 -4
BITMAP
84
44
48
68
38
30
30
FC
10
10
ENDCHAR
STARTCHAR 04B2
ENCODING 1202
SWIDTH 600 0
DWIDTH 10 0
BBX 9 13 1 -2
BITMAP
8180
4300
6200
3600
1C00
1800
1C00
3400
2200
4300
C180
0080
0080
ENDCHAR
STARTCHAR 04B3
ENCODING 1203
SWIDTH 480 0
DWIDTH 8 0
BBX 7 9 1 -2
BITMAP
CC
68
30
30
38
4C
C6
02
02
ENDCHAR
STARTCHAR 04B4
ENCODING 1204
SWIDTH 720 0
DWIDTH 12 0
BBX 11 13 1 -2
BITMAP
FE80
1080
1080
1080
1080
1080
1080
1080
1080
1080
1FE0
0060
0060
ENDCHAR
STARTCHAR 04B5
ENCODING 1205
SWIDTH 600 0
DWIDTH 10 0
BBX 9 9 1 -2
BITMAP
FA00
2200
2200
2200
2200
2200
3F80
0180
0180
ENDCHAR
STARTCHAR 04B6
ENCODING 1206
SWIDTH 600 0
DWIDTH 10 0
BBX 8 13 1 -2
BITMAP
82
82
82
82
42
7E
02
02
02
02
03
01
01
ENDCHAR
STARTCHAR 04B7
ENCODING 1207
SWIDTH 480 0
DWIDTH 8 0
BBX 6 9 1 -2
BITMAP
88
88
C8
78
08
08
0C
04
04
ENDCHAR
STARTCHAR 04B8
ENCODING 1208
SWIDTH 480 0
DWIDTH 8 0
BBX 7 11 1 0
BITMAP
82
82
82
82
9A
5E
3E
1A
1A
02
02
ENDCHAR
STARTCHAR 04B9
ENCODING 1209
SWIDTH 360 0
DWIDTH 6 0
BBX 5 7 1 0
BITMAP
88
A8
E8
78
28
08
08
ENDCHAR
STARTCHAR 04BA
ENCODING 1210
SWIDTH 480 0
DWIDTH 8 0
BBX 7 11 1 0
BITMAP
80
80
80
80
F8
CC
86
82
82
82
82
ENDCHAR
STARTCHAR 04BB
ENCODING 1211
SWIDTH 480 0
DWIDTH 8 0
BBX 6 11 1 0
BITMAP
80
80
80
B0
FC
C4
84
84
84
84
84
ENDCHAR
STARTCHAR 04BC
ENCODING 1212
SWIDTH 780 0
DWIDTH 13 0
BBX 12 11 1 0
BITMAP
0380
0660
0820
9830
9010
FFF0
1000
1800
0800
0C60
07C0
ENDCHAR
STARTCHAR 04BD
ENCODING 1213
SWIDTH 600 0
DWIDTH 10 0
BBX 9 8 1 0
BITMAP
0600
8F00
9180
FF80
1000
1000
1980
0F00
ENDCHAR
STARTCHAR 04BE
ENCODING 1214
SWIDTH 780 0
DWIDTH 13 0
BBX 12 13 1 -2
BITMAP
0380
0660
0820
9830
9010
FFF0
1000
1800
0800
0C60
07C0
0100
0100
ENDCHAR
STARTCHAR 04BF
ENCODING 1215
SWIDTH 600 0
DWIDTH 10 0
BBX 9 10 1 -2
BITMAP
0600
8F00
9180
FF80
1000
1000
1980
0F00
0600
0600
ENDCHAR
STARTCHAR 04C0
ENCODING 1216
SWIDTH 300 0
DWIDTH 5 0
BBX 3 11 1 0
BITMAP
E0
40
40
40
40
40
40
40
40
40
E0
ENDCHAR
STARTCHAR 04C1
ENCODING 1217
SWIDTH 900 0
DWIDTH 15 0
BBX 13 14 1 0
BITMAP
0880
0700
0000
4210
6230
3260
1240
1240
1FC0
1740
3260
2220
4210
C218
ENDCHAR
STARTCHAR 04C2
ENCODING 1218
SWIDTH 660 0
DWIDTH 11 0
BBX 10 11 1 0
BITMAP
1200
1600
0000
4080
6D80
2D00
2D00
3F00
6D80
CC80
8C40
ENDCHAR
STARTCHAR 04C3
ENCODING 1219
SWIDTH 480 0
DWIDTH 8 0
BBX 8 14 -1 -3
BITMAP
21
22
24
24
26
3A
31
21
21
21
21
03
C2
7C
ENDCHAR
STARTCHAR 04C4
ENCODING 1220
SWIDTH 360 0
DWIDTH 6 0
BBX 6 11 0 -3
BITMAP
04
4C
58
50
78
48
4C
4C
0C
88
F8
ENDCHAR
STARTCHAR 04C5
ENCODING 1221
SWIDTH 480 0
DWIDTH 8 0
BBX 7 13 1 -3
BITMAP
7E
42
42
42
42
42
42
42
42
C2
82
02
02
ENDCHAR
STARTCHAR 04C6
ENCODING 1222
SWIDTH 480 0
DWIDTH 8 0
BBX 7 10 1 -3
BITMAP
7C
44
44
44
44
C4
84
06
04
04
ENDCHAR
STARTCHAR 04C7
ENCODING 1223
SWIDTH 480 0
DWIDTH 8 0
BBX 7 14 1 -3
BITMAP
86
86
86
86
86
FE
86
86
86
86
86
06
06
1C
ENDCHAR
STARTCHAR 04C8
ENCODING 1224
SWIDTH 420 0
DWIDTH 7 0
BBX 6 10 1 -3
BITMAP
8C
8C
8C
FC
8C
8C
8C
0C
08
38
ENDCHAR
STARTCHAR 04C9
ENCODING 1225
SWIDTH 480 0
DWIDTH 8 0
BBX 7 13 1 -3
BITMAP
86
86
86
86
86
FE
86
86
86
86
86
02
04
ENDCHAR
STARTCHAR 04CA
ENCODING 1226
SWIDTH 420 0
DWIDTH 7 0
BBX 6 10 1 -3
BITMAP
8C
8C
8C
FC
8C
8C
8C
04
08
08
ENDCHAR
STARTCHAR 04CB
ENCODING 1227
SWIDTH 600 0
DWIDTH 10 0
BBX 7 13 1 -2
BITMAP
82
82
82
82
42
7E
02
02
02
02
06
04
04
ENDCHAR
STARTCHAR 04CC
ENCODING 1228
SWIDTH 360 0
DWIDTH 6 0
BBX 5 9 1 -2
BITMAP
88
88
C8
78
08
08
18
10
10
ENDCHAR
STARTCHAR 04CD
ENCODING 1229
SWIDTH 600 0
DWIDTH 10 0
BBX 9 13 1 -3
BITMAP
8080
C180
C180
C380
E280
A280
A680
B480
9480
9C80
8880
0080
0080
ENDCHAR
STARTCHAR 04CE
ENCODING 1230
SWIDTH 480 0
DWIDTH 8 0
BBX 7 10 1 -3
BITMAP
86
C6
CE
EE
BE
B6
B6
02
04
04
ENDCHAR
STARTCHAR 04CF
ENCODING 1231
SWIDTH 120 0
DWIDTH 2 0
BBX 1 11 1 0
BITMAP
80
80
80
80
80
80
80
80
80
80
80
ENDCHAR
STARTCHAR 04D0
ENCODING 1232
SWIDTH 600 0
DWIDTH 10 0
BBX 9 14 1 0
BITMAP
2200
1C00
0000
0800
1800
1400
1400
2600
2200
7E00
4300
4100
C100
8180
ENDCHAR
STARTCHAR 04D1
ENCODING 1233
SWIDTH 360 0
DWIDTH 6 0
BBX 5 11 1 0
BITMAP
88
D0
20
20
78
08
28
F8
88
98
78
ENDCHAR
STARTCHAR 04D2
ENCODING 1234
SWIDTH 600 0
DWIDTH 10 0
BBX 9 14 1 0
BITMAP
3400
3600
0000
0800
1800
1400
1400
2600
2200
7E00
4300
4100
C100
8180
ENDCHAR
STARTCHAR 04D3
ENCODING 1235
SWIDTH 360 0
DWIDTH 6 0
BBX 5 10 1 0
BITMAP
D8
00
20
78
08
28
F8
88
98
78
ENDCHAR
STARTCHAR 04D4
ENCODING 1236
SWIDTH 720 0
DWIDTH 12 0
BBX 10 11 1 0
BITMAP
0FC0
1C00
1400
1400
2400
3F80
6400
4400
4400
C400
87C0
ENDCHAR
STARTCHAR 04D5
ENCODING 1237
SWIDTH 720 0
DWIDTH 12 0
BBX 10 8 1 0
BITMAP
2300
7F80
0840
2FC0
F800
8800
9CC0
7780
ENDCHAR
STARTCHAR 04D6
ENCODING 1238
SWIDTH 480 0
DWIDTH 8 0
BBX 7 14 1 0
BITMAP
48
38
00
FE
80
80
80
80
FC
80
80
80
80
FE
ENDCHAR
STARTCHAR 04D7
ENCODING 1239
SWIDTH 480 0
DWIDTH 8 0
BBX 6 11 1 0
BITMAP
48
68
10
30
78
C4
FC
80
80
CC
78
ENDCHAR
STARTCHAR 04D8
ENCODING 1240
SWIDTH 600 0
DWIDTH 10 0
BBX 9 11 1 0
BITMAP
1C00
6600
0100
0100
0180
FF80
8180
8180
C100
6200
3C00
ENDCHAR
STARTCHAR 04D9
ENCODING 1241
SWIDTH 480 0
DWIDTH 8 0
BBX 6 8 1 0
BITMAP
30
78
C4
04
FC
84
CC
78
ENDCHAR
STARTCHAR 04DA
ENCODING 1242
SWIDTH 600 0
DWIDTH 10 0
BBX 9 14 1 0
BITMAP
2400
3600
0000
1C00
6600
0100
0100
0180
FF80
8180
8180
C100
6200
3C00
ENDCHAR
STARTCHAR 04DB
ENCODING 1243
SWIDTH 480 0
DWIDTH 8 0
BBX 6 10 1 0
BITMAP
68
00
30
78
C4
04
FC
84
CC
78
ENDCHAR
STARTCHAR 04DC
ENCODING 1244
SWIDTH 900 0
DWIDTH 15 0
BBX 13 14 1 0
BITMAP
0500
0D80
0000
4210
6230
3260
1240
1240
1FC0
1740
3260
2220
4210
C218
ENDCHAR
STARTCHAR 04DD
ENCODING 1245
SWIDTH 660 0
DWIDTH 11 0
BBX 10 10 1 0
BITMAP
1600
0000
4080
6D80
2D00
2D00
3F00
6D80
CC80
8C40
ENDCHAR
STARTCHAR 04DE
ENCODING 1246
SWIDTH 480 0
DWIDTH 8 0
BBX 8 14 0 0
BITMAP
24
34
00
3C
66
42
02
06
1E
02
03
C3
62
3C
ENDCHAR
STARTCHAR 04DF
ENCODING 1247
SWIDTH 360 0
DWIDTH 6 0
BBX 5 10 1 0
BITMAP
D8
00
60
F0
10
30
30
18
98
70
ENDCHAR
STARTCHAR 04E0
ENCODING 1248
SWIDTH 480 0
DWIDTH 8 0
BBX 7 11 1 0
BITMAP
FE
02
04
0C
08
1C
02
02
82
C6
7C
ENDCHAR
STARTCHAR 04E1
ENCODING 1249
SWIDTH 420 0
DWIDTH 7 0
BBX 6 10 1 -3
BITMAP
FC
18
10
30
18
08
0C
08
08
F0
ENDCHAR
STARTCHAR 04E2
ENCODING 1250
SWIDTH 480 0
DWIDTH 8 0
BBX 7 13 1 0
BITMAP
78
00
86
86
86
86
8E
96
A6
C6
86
86
86
ENDCHAR
STARTCHAR 04E3
ENCODING 1251
SWIDTH 420 0
DWIDTH 7 0
BBX 6 10 1 0
BITMAP
78
00
00
8C
8C
9C
AC
CC
8C
8C
ENDCHAR
STARTCHAR 04E4
ENCODING 1252
SWIDTH 480 0
DWIDTH 8 0
BBX 7 14 1 0
BITMAP
48
68
00
86
86
86
86
8E
96
A6
C6
86
86
86
ENDCHAR
STARTCHAR 04E5
ENCODING 1253
SWIDTH 420 0
DWIDTH 7 0
BBX 6 10 1 0
BITMAP
D8
00
00
8C
8C
9C
AC
CC
8C
8C
ENDCHAR
STARTCHAR 04E6
ENCODING 1254
SWIDTH 600 0
DWIDTH 10 0
BBX 9 14 1 0
BITMAP
2400
3600
0000
1C00
6600
4100
8100
8180
8080
8180
8180
C100
6200
3C00
ENDCHAR
STARTCHAR 04E7
ENCODING 1255
SWIDTH 480 0
DWIDTH 8 0
BBX 6 10 1 0
BITMAP
68
00
30
78
C4
84
84
84
CC
78
ENDCHAR
STARTCHAR 04E8
ENCODING 1256
SWIDTH 600 0
DWIDTH 10 0
BBX 9 11 1 0
BITMAP
1C00
6600
4100
8100
8180
FF80
8180
8180
C100
6200
3C00
ENDCHAR
STARTCHAR 04E9
ENCODING 1257
SWIDTH 480 0
DWIDTH 8 0
BBX 6 8 1 0
BITMAP
30
78
C4
84
FC
84
CC
78
ENDCHAR
STARTCHAR 04EA
ENCODING 1258
SWIDTH 600 0
DWIDTH 10 0
BBX 9 14 1 0
BITMAP
2400
3600
0000
1C00
6600
4100
8100
8180
FF80
8180
8180
C100
6200
3C00
ENDCHAR
STARTCHAR 04EB
ENCODING 1259
SWIDTH 480 0
DWIDTH 8 0
BBX 6 10 1 0
BITMAP
68
00
30
78
C4
84
FC
84
CC
78
ENDCHAR
STARTCHAR 04EC
ENCODING 1260
SWIDTH 540 0
DWIDTH 9 0
BBX 8 14 1 0
BITMAP
24
2C
00
38
66
82
03
01
3F
01
01
82
C6
7C
ENDCHAR
STARTCHAR 04ED
ENCODING 1261
SWIDTH 420 0
DWIDTH 7 0
BBX 6 10 1 0
BITMAP
58
00
30
F8
8C
04
3C
0C
C8
78
ENDCHAR
STARTCHAR 04EE
ENCODING 1262
SWIDTH 540 0
DWIDTH 9 0
BBX 7 13 1 0
BITMAP
3C
00
42
62
26
24
34
1C
18
18
18
90
F0
ENDCHAR
STARTCHAR 04EF
ENCODING 1263
SWIDTH 480 0
DWIDTH 8 0
BBX 6 13 1 -3
BITMAP
78
00
00
84
44
48
68
38
30
30
30
20
60
ENDCHAR
STARTCHAR 04F0
ENCODING 1264
SWIDTH 540 0
DWIDTH 9 0
BBX 7 14 1 0
BITMAP
24
36
00
42
62
26
24
34
1C
18
18
18
90
F0
ENDCHAR
STARTCHAR 04F1
ENCODING 1265
SWIDTH 480 0
DWIDTH 8 0
BBX 6 13 1 -3
BITMAP
6C
00
00
84
44
48
68
38
30
30
30
20
60
ENDCHAR
STARTCHAR 04F2
ENCODING 1266
SWIDTH 540 0
DWIDTH 9 0
BBX 7 14 1 0
BITMAP
1A
14
00
42
62
26
24
34
1C
18
18
18
90
F0
ENDCHAR
STARTCHAR 04F3
ENCODING 1267
SWIDTH 480 0
DWIDTH 8 0
BBX 6 14 1 -3
BITMAP
14
28
00
00
84
44
48
68
38
30
30
30
20
60
ENDCHAR
STARTCHAR 04F4
ENCODING 1268
SWIDTH 480 0
DWIDTH 8 0
BBX 7 14 1 0
BITMAP
28
6C
00
82
82
82
82
82
46
3E
02
02
02
02
ENDCHAR
STARTCHAR 04F5
ENCODING 1269
SWIDTH 360 0
DWIDTH 6 0
BBX 5 10 1 0
BITMAP
D8
00
00
88
88
C8
78
08
08
08
ENDCHAR
STARTCHAR 04F6
ENCODING 1270
SWIDTH 480 0
DWIDTH 8 0
BBX 7 13 1 -2
BITMAP
FE
80
80
80
80
80
80
80
80
80
C0
40
40
ENDCHAR
STARTCHAR 04F7
ENCODING 1271
SWIDTH 360 0
DWIDTH 6 0
BBX 5 9 1 -2
BITMAP
F8
80
80
80
80
80
C0
40
40
ENDCHAR
STARTCHAR 04F8
ENCODING 1272
SWIDTH 600 0
DWIDTH 10 0
BBX 9 14 1 0
BITMAP
2400
3600
0000
8080
8080
8080
8080
8080
FC80
8480
8680
8680
8C80
F880
ENDCHAR
STARTCHAR 04F9
ENCODING 1273
SWIDTH 480 0
DWIDTH 8 0
BBX 7 10 1 0
BITMAP
6C
00
00
82
82
E2
F2
9A
9A
F2
ENDCHAR
STARTCHAR 04FA
ENCODING 1274
SWIDTH 540 0
DWIDTH 9 0
BBX 8 14 1 -3
BITMAP
7F
40
40
40
40
F0
40
40
40
40
60
20
20
E0
ENDCHAR
STARTCHAR 04FB
ENCODING 1275
SWIDTH 420 0
DWIDTH 7 0
BBX 6 10 1 -3
BITMAP
7C
40
40
F0
40
40
60
20
20
E0
ENDCHAR
STARTCHAR 04FC
ENCODING 1276
SWIDTH 600 0
DWIDTH 10 0
BBX 9 14 1 -3
BITMAP
8180
4300
6200
3600
1C00
1800
1C00
3400
2200
4300
C100
0080
0080
0180
ENDCHAR
STARTCHAR 04FD
ENCODING 1277
SWIDTH 480 0
DWIDTH 8 0
BBX 7 10 1 -3
BITMAP
CC
68
30
30
38
4C
C4
06
06
0C
ENDCHAR
STARTCHAR 04FE
ENCODING 1278
SWIDTH 600 0
DWIDTH 10 0
BBX 9 11 1 0
BITMAP
8180
4300
6200
3600
1C00
FF00
1C00
3400
2200
4300
C100
ENDCHAR
STARTCHAR 04FF
ENCODING 1279
SWIDTH 480 0
DWIDTH 8 0
BBX 6 7 1 0
BITMAP
CC
68
30
FC
38
4C
C4
ENDCHAR
STARTCHAR 0500
ENCODING 1280
SWIDTH 480 0
DWIDTH 8 0
BBX 7 11 1 0
BITMAP
02
02
02
3A
7E
C6
82
82
82
C6
7E
ENDCHAR
STARTCHAR 0501
ENCODING 1281
SWIDTH 480 0
DWIDTH 8 0
BBX 6 11 1 0
BITMAP
04
04
04
34
7C
C4
84
84
84
CC
7C
ENDCHAR
STARTCHAR 0502
ENCODING 1282
SWIDTH 780 0
DWIDTH 13 0
BBX 11 11 1 0
BITMAP
0200
0200
0200
3A00
7E00
C600
82E0
8240
8240
C6C0
7F80
ENDCHAR
STARTCHAR 0503
ENCODING 1283
SWIDTH 720 0
DWIDTH 12 0
BBX 11 11 1 0
BITMAP
0400
0400
0400
3400
7C00
C400
85E0
84C0
84C0
CE80
7B80
ENDCHAR
STARTCHAR 0504
ENCODING 1284
SWIDTH 780 0
DWIDTH 13 0
BBX 11 11 1 0
BITMAP
7800
CC00
8400
0400
0C00
3C00
04E0
0640
0240
02C0
0380
ENDCHAR
STARTCHAR 0505
ENCODING 1285
SWIDTH 600 0
DWIDTH 10 0
BBX 9 8 1 0
BITMAP
6000
F000
1000
7780
7300
1300
1A00
0E00
ENDCHAR
STARTCHAR 0506
ENCODING 1286
SWIDTH 540 0
DWIDTH 9 0
BBX 8 13 1 -2
BITMAP
78
CC
84
04
0C
3C
04
06
02
02
03
01
01
ENDCHAR
STARTCHAR 0507
ENCODING 1287
SWIDTH 420 0
DWIDTH 7 0
BBX 6 10 1 -2
BITMAP
60
F0
10
70
70
10
10
1C
0C
0C
ENDCHAR
STARTCHAR 0508
ENCODING 1288
SWIDTH 780 0
DWIDTH 13 0
BBX 12 11 1 0
BITMAP
7E00
4200
4200
4200
4200
4200
42F0
4240
4240
C240
81C0
ENDCHAR
STARTCHAR 0509
ENCODING 1289
SWIDTH 720 0
DWIDTH 12 0
BBX 11 7 1 0
BITMAP
7C00
4400
45E0
44C0
44C0
C680
8380
ENDCHAR
STARTCHAR 050A
ENCODING 1290
SWIDTH 720 0
DWIDTH 12 0
BBX 11 11 1 0
BITMAP
8600
8600
8600
8600
8600
FE00
87E0
8640
8640
82C0
8380
ENDCHAR
STARTCHAR 050B
ENCODING 1291
SWIDTH 660 0
DWIDTH 11 0
BBX 10 7 1 0
BITMAP
8C00
8C00
8FC0
FC80
8C80
8D80
8700
ENDCHAR
STARTCHAR 050C
ENCODING 1292
SWIDTH 660 0
DWIDTH 11 0
BBX 9 11 1 0
BITMAP
1C00
6600
4100
8000
8000
8380
8380
8100
C100
6200
3C00
ENDCHAR
STARTCHAR 050D
ENCODING 1293
SWIDTH 480 0
DWIDTH 8 0
BBX 7 8 1 0
BITMAP
30
78
C4
80
9E
84
CC
78
ENDCHAR
STARTCHAR 050E
ENCODING 1294
SWIDTH 600 0
DWIDTH 10 0
BBX 8 11 1 0
BITMAP
FE
10
10
10
10
10
17
12
12
12
1C
ENDCHAR
STARTCHAR 050F
ENCODING 1295
SWIDTH 540 0
DWIDTH 9 0
BBX 7 7 1 0
BITMAP
F8
20
2E
24
24
24
38
ENDCHAR
STARTCHAR 0510
ENCODING 1296
SWIDTH 480 0
DWIDTH 8 0
BBX 8 11 0 0
BITMAP
3C
66
42
40
60
38
40
C0
C3
62
3C
ENDCHAR
STARTCHAR 0511
ENCODING 1297
SWIDTH 360 0
DWIDTH 6 0
BBX 5 8 1 0
BITMAP
60
F0
80
E0
E0
80
98
70
ENDCHAR
STARTCHAR 0512
ENCODING 1298
SWIDTH 480 0
DWIDTH 8 0
BBX 7 14 1 -3
BITMAP
7E
42
42
42
42
42
42
42
42
C2
82
02
02
0E
ENDCHAR
STARTCHAR 0513
ENCODING 1299
SWIDTH 480 0
DWIDTH 8 0
BBX 6 10 1 -3
BITMAP
7C
44
44
44
44
C4
84
04
04
1C
ENDCHAR
STARTCHAR 0514
ENCODING 1300
SWIDTH 840 0
DWIDTH 14 0
BBX 13 11 1 0
BITMAP
7818
4430
4620
4360
41C0
4080
41C0
4340
4220
C430
8C10
ENDCHAR
STARTCHAR 0515
ENCODING 1301
SWIDTH 660 0
DWIDTH 11 0
BBX 10 7 1 0
BITMAP
7880
4580
4700
4300
4700
CD80
88C0
ENDCHAR
STARTCHAR 0516
ENCODING 1302
SWIDTH 600 0
DWIDTH 10 0
BBX 9 11 1 0
BITMAP
F080
9D00
8700
8600
8400
FC00
8400
8600
8200
8100
8180
ENDCHAR
STARTCHAR 0517
ENCODING 1303
SWIDTH 600 0
DWIDTH 10 0
BBX 9 11 1 -4
BITMAP
3000
F980
C700
8600
8600
8600
CD00
F980
8000
8000
8000
ENDCHAR
STARTCHAR 0518
ENCODING 1304
SWIDTH 840 0
DWIDTH 14 0
BBX 13 11 1 0
BITMAP
3FF8
6200
4200
4200
6200
3FF0
3200
2200
6200
4200
C3F8
ENDCHAR
STARTCHAR 0519
ENCODING 1305
SWIDTH 720 0
DWIDTH 12 0
BBX 10 8 1 0
BITMAP
0300
7F80
4C40
7FC0
3800
6800
4CC0
C780
ENDCHAR
STARTCHAR 051A
ENCODING 1306
SWIDTH 600 0
DWIDTH 10 0
BBX 10 12 1 -1
BITMAP
1C00
6600
4100
8100
8180
8080
8180
9980
D500
6200
3E00
01C0
ENDCHAR
STARTCHAR 051B
ENCODING 1307
SWIDTH 480 0
DWIDTH 8 0
BBX 6 11 1 -4
BITMAP
30
7C
C4
84
84
84
CC
7C
04
04
04
ENDCHAR
STARTCHAR 051C
ENCODING 1308
SWIDTH 840 0
DWIDTH 14 0
BBX 13 11 1 0
BITMAP
8218
8610
C610
4730
4D20
4920
69A0
28E0
38C0
30C0
10C0
ENDCHAR
STARTCHAR 051D
ENCODING 1309
SWIDTH 600 0
DWIDTH 10 0
BBX 9 7 1 0
BITMAP
8880
DD80
5500
5500
7500
6700
2200
ENDCHAR
STARTCHAR 051E
ENCODING 1310
SWIDTH 480 0
DWIDTH 8 0
BBX 7 11 1 0
BITMAP
94
98
9C
94
90
E0
F0
98
88
84
86
ENDCHAR
STARTCHAR 051F
ENCODING 1311
SWIDTH 420 0
DWIDTH 7 0
BBX 6 8 1 0
BITMAP
08
B8
B0
A8
E0
90
98
8C
ENDCHAR
STARTCHAR 0520
ENCODING 1312
SWIDTH 780 0
DWIDTH 13 0
BBX 12 14 1 -3
BITMAP
7E00
4200
4200
4380
43C0
4220
4230
4210
4210
C210
8210
0830
0C60
07C0
ENDCHAR
STARTCHAR 0521
ENCODING 1313
SWIDTH 660 0
DWIDTH 11 0
BBX 10 10 1 -3
BITMAP
7C00
4400
4400
4780
44C0
C440
8440
0040
08C0
0780
ENDCHAR
STARTCHAR 0522
ENCODING 1314
SWIDTH 780 0
DWIDTH 13 0
BBX 12 14 1 -3
BITMAP
8600
8600
8600
8700
87C0
FE60
8620
8620
8630
8630
8620
0020
0840
07C0
ENDCHAR
STARTCHAR 0523
ENCODING 1315
SWIDTH 600 0
DWIDTH 10 0
BBX 9 10 1 -3
BITMAP
8C00
8C00
8C00
FF00
8D80
8C80
8C80
0080
1980
0F00
ENDCHAR
STARTCHAR 0524
ENCODING 1316
SWIDTH 540 0
DWIDTH 9 0
BBX 8 13 1 -2
BITMAP
FE
86
86
86
86
86
86
86
86
86
87
01
01
ENDCHAR
STARTCHAR 0525
ENCODING 1317
SWIDTH 480 0
DWIDTH 8 0
BBX 7 9 1 -2
BITMAP
FC
8C
8C
8C
8C
8C
8E
02
02
ENDCHAR
STARTCHAR 0526
ENCODING 1318
SWIDTH 600 0
DWIDTH 10 0
BBX 8 13 1 -2
BITMAP
80
80
80
80
F8
CC
86
82
82
82
83
01
01
ENDCHAR
STARTCHAR 0527
ENCODING 1319
SWIDTH 540 0
DWIDTH 9 0
BBX 8 13 1 -2
BITMAP
80
80
80
B0
FC
C4
84
84
84
84
87
03
03
ENDCHAR
STARTCHAR 0528
ENCODING 1320
SWIDTH 480 0
DWIDTH 8 0
BBX 9 14 -1 -3
BITMAP
2180
2180
2180
2180
2180
3F80
2180
2180
2180
2180
2180
2000
2000
E000
ENDCHAR
STARTCHAR 0529
ENCODING 1321
SWIDTH 420 0
DWIDTH 7 0
BBX 8 10 -1 -3
BITMAP
23
23
23
3F
23
23
23
20
20
E0
ENDCHAR
STARTCHAR 052A
ENCODING 1322
SWIDTH 1140 0
DWIDTH 19 0
BBX 17 13 1 -2
BITMAP
3F3180
213300
213200
213200
213600
21FC00
21F600
213200
213300
213180
FFF080
80C000
80C000
ENDCHAR
STARTCHAR 052B
ENCODING 1323
SWIDTH 960 0
DWIDTH 16 0
BBX 15 10 1 -2
BITMAP
0004
3E4C
2250
2250
23F0
2248
224C
FF46
8100
8100
ENDCHAR
STARTCHAR 052C
ENCODING 1324
SWIDTH 660 0
DWIDTH 11 0
BBX 10 13 1 -2
BITMAP
4100
4300
4700
4500
6900
3900
1F00
2100
6100
C100
FFC0
80C0
80C0
ENDCHAR
STARTCHAR 052D
ENCODING 1325
SWIDTH 540 0
DWIDTH 9 0
BBX 8 9 1 -2
BITMAP
66
2A
3E
3E
22
62
FF
81
81
ENDCHAR
STARTCHAR 052E
ENCODING 1326
SWIDTH 600 0
DWIDTH 10 0
BBX 8 13 1 -2
BITMAP
7E
42
42
42
42
42
42
42
42
C2
83
01
01
ENDCHAR
STARTCHAR 052F
ENCODING 1327
SWIDTH 540 0
DWIDTH 9 0
BBX 8 9 1 -2
BITMAP
7C
44
44
44
44
C4
87
03
03
ENDCHAR
STARTCHAR 0531
ENCODING 1329
SWIDTH 720 0
DWIDTH 12 0
BBX 11 11 1 0
BITMAP
8100
8100
8100
8100
8100
8100
8180
8140
8320
4620
3C20
ENDCHAR
STARTCHAR 0532
ENCODING 1330
SWIDTH 420 0
DWIDTH 7 0
BBX 6 11 1 0
BITMAP
70
D8
88
80
80
FC
80
80
80
80
80
ENDCHAR
STARTCHAR 0533
ENCODING 1331
SWIDTH 600 0
DWIDTH 10 0
BBX 9 11 1 0
BITMAP
7C00
C400
8400
8400
C400
7F80
0400
0400
0400
0400
0400
ENDCHAR
STARTCHAR 0534
ENCODING 1332
SWIDTH 600 0
DWIDTH 10 0
BBX 8 11 1 0
BITMAP
70
D8
88
0C
0F
0D
0C
0C
0C
0C
0C
ENDCHAR
STARTCHAR 0535
ENCODING 1333
SWIDTH 540 0
DWIDTH 9 0
BBX 8 11 1 0
BITMAP
80
80
80
80
FF
80
80
81
83
46
3C
ENDCHAR
STARTCHAR 0536
ENCODING 1334
SWIDTH 540 0
DWIDTH 9 0
BBX 8 11 1 0
BITMAP
38
66
42
42
42
7E
1E
04
8C
98
FF
ENDCHAR
STARTCHAR 0537
ENCODING 1335
SWIDTH 480 0
DWIDTH 8 0
BBX 7 11 1 0
BITMAP
80
80
80
80
FE
80
80
80
80
80
FE
ENDCHAR
STARTCHAR 0538
ENCODING 1336
SWIDTH 420 0
DWIDTH 7 0
BBX 6 11 1 0
BITMAP
70
D8
88
80
80
80
80
80
80
80
FC
ENDCHAR
STARTCHAR 0539
ENCODING 1337
SWIDTH 480 0
DWIDTH 8 0
BBX 7 11 1 0
BITMAP
70
D8
88
8C
BE
AC
B8
80
80
80
80
ENDCHAR
STARTCHAR 053A
ENCODING 1338
SWIDTH 540 0
DWIDTH 9 0
BBX 7 11 1 0
BITMAP
04
04
04
04
04
7E
C4
84
84
C4
7C
ENDCHAR
STARTCHAR 053B
ENCODING 1339
SWIDTH 420 0
DWIDTH 7 0
BBX 5 11 1 0
BITMAP
80
80
80
E0
F0
90
98
88
80
80
80
ENDCHAR
STARTCHAR 053C
ENCODING 1340
SWIDTH 480 0
DWIDTH 8 0
BBX 7 11 1 0
BITMAP
80
80
80
80
80
80
80
80
80
80
FE
ENDCHAR
STARTCHAR 053D
ENCODING 1341
SWIDTH 600 0
DWIDTH 10 0
BBX 9 11 1 0
BITMAP
8000
8000
8000
B000
F880
8880
8880
8880
8780
8300
8000
ENDCHAR
STARTCHAR 053E
ENCODING 1342
SWIDTH 780 0
DWIDTH 13 0
BBX 12 11 1 0
BITMAP
8000
FFE0
FFF0
30D0
2040
6040
6040
2040
2040
1180
0F00
ENDCHAR
STARTCHAR 053F
ENCODING 1343
SWIDTH 480 0
DWIDTH 8 0
BBX 7 11 1 0
BITMAP
80
80
82
82
82
46
3E
02
02
02
02
ENDCHAR
STARTCHAR 0540
ENCODING 1344
SWIDTH 480 0
DWIDTH 8 0
BBX 7 13 1 -2
BITMAP
10
30
20
70
18
08
10
30
20
40
FE
02
06
ENDCHAR
STARTCHAR 0541
ENCODING 1345
SWIDTH 480 0
DWIDTH 8 0
BBX 7 11 1 0
BITMAP
78
CC
84
84
84
7C
34
0C
C8
B2
FC
ENDCHAR
STARTCHAR 0542
ENCODING 1346
SWIDTH 600 0
DWIDTH 10 0
BBX 8 11 1 0
BITMAP
70
D8
88
0C
0C
0C
0C
0C
0C
0C
0F
ENDCHAR
STARTCHAR 0543
ENCODING 1347
SWIDTH 480 0
DWIDTH 8 0
BBX 7 11 1 0
BITMAP
1C
E6
40
A0
90
88
84
86
82
82
FE
ENDCHAR
STARTCHAR 0544
ENCODING 1348
SWIDTH 720 0
DWIDTH 12 0
BBX 11 11 1 0
BITMAP
8180
81C0
8160
8120
8100
8100
8100
8100
8300
4600
3C00
ENDCHAR
STARTCHAR 0545
ENCODING 1349
SWIDTH 540 0
DWIDTH 9 0
BBX 8 11 1 0
BITMAP
3C
66
C3
02
06
FE
03
01
81
C2
7C
ENDCHAR
STARTCHAR 0546
ENCODING 1350
SWIDTH 720 0
DWIDTH 12 0
BBX 11 11 1 0
BITMAP
F000
1000
1000
1000
1000
1000
1000
1020
1060
18C0
0F80
ENDCHAR
STARTCHAR 0547
ENCODING 1351
SWIDTH 600 0
DWIDTH 10 0
BBX 9 11 1 0
BITMAP
6000
BB00
6E00
4000
4000
4000
4000
4000
6080
3100
1E00
ENDCHAR
STARTCHAR 0548
ENCODING 1352
SWIDTH 540 0
DWIDTH 9 0
BBX 8 11 1 0
BITMAP
3C
66
C3
81
81
81
81
81
81
81
81
ENDCHAR
STARTCHAR 0549
ENCODING 1353
SWIDTH 540 0
DWIDTH 9 0
BBX 8 11 1 0
BITMAP
38
66
42
42
42
7E
1E
04
CC
7C
07
ENDCHAR
STARTCHAR 054A
ENCODING 1354
SWIDTH 540 0
DWIDTH 9 0
BBX 8 11 1 0
BITMAP
3C
7E
DB
99
19
19
19
19
01
01
01
ENDCHAR
STARTCHAR 054B
ENCODING 1355
SWIDTH 540 0
DWIDTH 9 0
BBX 8 11 1 0
BITMAP
38
66
42
42
42
7A
0E
0C
8C
98
FF
ENDCHAR
STARTCHAR 054C
ENCODING 1356
SWIDTH 720 0
DWIDTH 12 0
BBX 11 11 1 0
BITMAP
3C00
6600
C300
8100
81C0
8160
8120
8120
8100
8100
8100
ENDCHAR
STARTCHAR 054D
ENCODING 1357
SWIDTH 540 0
DWIDTH 9 0
BBX 8 11 1 0
BITMAP
81
81
81
81
81
81
81
81
83
46
3C
ENDCHAR
STARTCHAR 054E
ENCODING 1358
SWIDTH 780 0
DWIDTH 13 0
BBX 12 11 1 0
BITMAP
0400
0400
0400
0400
8400
CC00
7C00
0400
0400
0400
07F0
ENDCHAR
STARTCHAR 054F
ENCODING 1359
SWIDTH 480 0
DWIDTH 8 0
BBX 6 11 1 0
BITMAP
38
4C
84
C0
60
38
0C
04
84
CC
78
ENDCHAR
STARTCHAR 0550
ENCODING 1360
SWIDTH 420 0
DWIDTH 7 0
BBX 5 11 1 0
BITMAP
70
D8
88
80
80
80
80
80
80
80
80
ENDCHAR
STARTCHAR 0551
ENCODING 1361
SWIDTH 540 0
DWIDTH 9 0
BBX 8 11 1 0
BITMAP
3C
66
C3
C2
66
FE
03
01
81
C2
7C
ENDCHAR
STARTCHAR 0552
ENCODING 1362
SWIDTH 480 0
DWIDTH 8 0
BBX 7 11 1 0
BITMAP
80
80
80
80
FE
80
80
80
80
80
80
ENDCHAR
STARTCHAR 0553
ENCODING 1363
SWIDTH 540 0
DWIDTH 9 0
BBX 8 11 1 0
BITMAP
18
18
18
7E
9B
99
9B
7E
3C
18
18
ENDCHAR
STARTCHAR 0554
ENCODING 1364
SWIDTH 540 0
DWIDTH 9 0
BBX 8 11 1 0
BITMAP
1C
26
42
43
62
7E
58
40
FE
FE
40
ENDCHAR
STARTCHAR 0555
ENCODING 1365
SWIDTH 600 0
DWIDTH 10 0
BBX 9 11 1 0
BITMAP
1C00
6600
4100
8100
8180
8080
8180
8180
C100
6200
3C00
ENDCHAR
STARTCHAR 0556
ENCODING 1366
SWIDTH 600 0
DWIDTH 10 0
BBX 9 11 1 0
BITMAP
1800
3800
4800
3800
1E00
0900
0980
8880
8980
4B00
3E00
ENDCHAR
STARTCHAR 0559
ENCODING 1369
SWIDTH 180 0
DWIDTH 3 0
BBX 3 4 0 6
BITMAP
20
C0
80
60
ENDCHAR
STARTCHAR 055A
ENCODING 1370
SWIDTH 180 0
DWIDTH 3 0
BBX 2 4 1 6
BITMAP
C0
C0
40
80
ENDCHAR
STARTCHAR 055B
ENCODING 1371
SWIDTH 240 0
DWIDTH 4 0
BBX 2 2 1 8
BITMAP
40
80
ENDCHAR
STARTCHAR 055C
ENCODING 1372
SWIDTH 420 0
DWIDTH 7 0
BBX 6 2 1 9
BITMAP
04
F8
ENDCHAR
STARTCHAR 055D
ENCODING 1373
SWIDTH 240 0
DWIDTH 4 0
BBX 3 3 1 8
BITMAP
C0
40
20
ENDCHAR
STARTCHAR 055E
ENCODING 1374
SWIDTH 420 0
DWIDTH 7 0
BBX 6 5 1 6
BITMAP
38
CC
84
1C
18
ENDCHAR
STARTCHAR 055F
ENCODING 1375
SWIDTH 360 0
DWIDTH 6 0
BBX 5 3 1 8
BITMAP
80
F8
F8
ENDCHAR
STARTCHAR 0560
ENCODING 1376
SWIDTH 600 0
DWIDTH 10 0
BBX 8 8 1 0
BITMAP
26
FF
99
99
99
99
99
99
ENDCHAR
STARTCHAR 0561
ENCODING 1377
SWIDTH 600 0
DWIDTH 10 0
BBX 8 7 1 0
BITMAP
99
99
99
99
99
9B
6F
ENDCHAR
STARTCHAR 0562
ENCODING 1378
SWIDTH 480 0
DWIDTH 8 0
BBX 6 11 1 -4
BITMAP
30
FC
C4
84
84
84
80
FC
80
80
80
ENDCHAR
STARTCHAR 0563
ENCODING 1379
SWIDTH 600 0
DWIDTH 10 0
BBX 9 11 1 -4
BITMAP
3000
7C00
C400
8400
8400
8400
CC00
7F80
0400
0400
0400
ENDCHAR
STARTCHAR 0564
ENCODING 1380
SWIDTH 600 0
DWIDTH 10 0
BBX 9 11 1 -4
BITMAP
3000
FC00
C400
8400
8400
8400
8400
8780
0400
0400
0400
ENDCHAR
STARTCHAR 0565
ENCODING 1381
SWIDTH 480 0
DWIDTH 8 0
BBX 6 11 1 0
BITMAP
80
80
FC
80
80
84
84
84
84
CC
7C
ENDCHAR
STARTCHAR 0566
ENCODING 1382
SWIDTH 480 0
DWIDTH 8 0
BBX 10 11 1 -3
BITMAP
3000
7C00
C400
8400
8400
8400
CC00
7C00
0400
0400
07C0
ENDCHAR
STARTCHAR 0567
ENCODING 1383
SWIDTH 360 0
DWIDTH 6 0
BBX 4 11 1 0
BITMAP
80
80
80
80
F0
80
80
80
80
80
F0
ENDCHAR
STARTCHAR 0568
ENCODING 1384
SWIDTH 480 0
DWIDTH 8 0
BBX 6 11 1 -3
BITMAP
30
FC
C4
84
84
84
84
84
80
80
FC
ENDCHAR
STARTCHAR 0569
ENCODING 1385
SWIDTH 540 0
DWIDTH 9 0
BBX 8 11 1 -4
BITMAP
30
FC
C4
84
8F
9F
94
9C
80
80
80
ENDCHAR
STARTCHAR 056A
ENCODING 1386
SWIDTH 480 0
DWIDTH 8 0
BBX 7 11 1 0
BITMAP
04
04
04
3E
7E
C4
84
84
84
CC
78
ENDCHAR
STARTCHAR 056B
ENCODING 1387
SWIDTH 480 0
DWIDTH 8 0
BBX 6 14 1 -4
BITMAP
80
80
80
B0
FC
C4
84
84
84
84
84
80
80
80
ENDCHAR
STARTCHAR 056C
ENCODING 1388
SWIDTH 360 0
DWIDTH 6 0
BBX 4 10 1 -3
BITMAP
80
80
80
80
80
80
80
80
80
F0
ENDCHAR
STARTCHAR 056D
ENCODING 1389
SWIDTH 540 0
DWIDTH 9 0
BBX 8 14 1 -4
BITMAP
80
80
80
E0
F3
93
93
93
93
9B
8F
80
80
80
ENDCHAR
STARTCHAR 056E
ENCODING 1390
SWIDTH 480 0
DWIDTH 8 0
BBX 6 11 1 0
BITMAP
20
60
20
3C
7C
C4
84
84
84
CC
78
ENDCHAR
STARTCHAR 056F
ENCODING 1391
SWIDTH 480 0
DWIDTH 8 0
BBX 6 14 1 -4
BITMAP
80
80
80
80
84
84
84
84
84
CC
7C
04
04
04
ENDCHAR
STARTCHAR 0570
ENCODING 1392
SWIDTH 480 0
DWIDTH 8 0
BBX 6 11 1 0
BITMAP
80
80
80
B0
FC
C4
84
84
84
84
84
ENDCHAR
STARTCHAR 0571
ENCODING 1393
SWIDTH 480 0
DWIDTH 8 0
BBX 7 11 1 0
BITMAP
40
C0
60
20
40
F8
C8
8C
84
CC
7A
ENDCHAR
STARTCHAR 0572
ENCODING 1394
SWIDTH 480 0
DWIDTH 8 0
BBX 10 11 1 -3
BITMAP
3000
FC00
C400
8400
8400
8400
8400
8400
0400
0400
07C0
ENDCHAR
STARTCHAR 0573
ENCODING 1395
SWIDTH 600 0
DWIDTH 10 0
BBX 8 11 1 0
BITMAP
0E
13
21
20
60
7C
E6
42
62
27
3D
ENDCHAR
STARTCHAR 0574
ENCODING 1396
SWIDTH 480 0
DWIDTH 8 0
BBX 8 11 1 0
BITMAP
0E
0B
18
08
8C
84
84
84
84
CC
7C
ENDCHAR
STARTCHAR 0575
ENCODING 1397
SWIDTH 120 0
DWIDTH 2 0
BBX 3 10 -1 -3
BITMAP
20
20
20
20
20
20
20
20
20
E0
ENDCHAR
STARTCHAR 0576
ENCODING 1398
SWIDTH 600 0
DWIDTH 10 0
BBX 9 11 1 0
BITMAP
E000
2000
2000
2000
2080
2080
2080
2080
3180
1380
1E80
ENDCHAR
STARTCHAR 0577
ENCODING 1399
SWIDTH 420 0
DWIDTH 7 0
BBX 6 11 1 -3
BITMAP
30
F8
88
0C
08
18
30
40
C0
80
FC
ENDCHAR
STARTCHAR 0578
ENCODING 1400
SWIDTH 480 0
DWIDTH 8 0
BBX 6 8 1 0
BITMAP
30
FC
C4
84
84
84
84
84
ENDCHAR
STARTCHAR 0579
ENCODING 1401
SWIDTH 420 0
DWIDTH 7 0
BBX 6 11 1 -3
BITMAP
10
30
60
C0
60
30
30
40
C0
80
FC
ENDCHAR
STARTCHAR 057A
ENCODING 1402
SWIDTH 600 0
DWIDTH 10 0
BBX 8 10 1 -4
BITMAP
99
99
99
99
99
9B
6F
01
01
01
ENDCHAR
STARTCHAR 057B
ENCODING 1403
SWIDTH 420 0
DWIDTH 7 0
BBX 6 11 1 -3
BITMAP
30
F8
88
8C
88
D8
70
40
C0
80
FC
ENDCHAR
STARTCHAR 057C
ENCODING 1404
SWIDTH 480 0
DWIDTH 8 0
BBX 7 8 1 0
BITMAP
30
F8
C4
84
84
84
8C
8E
ENDCHAR
STARTCHAR 057D
ENCODING 1405
SWIDTH 480 0
DWIDTH 8 0
BBX 6 7 1 0
BITMAP
84
84
84
84
84
CC
7C
ENDCHAR
STARTCHAR 057E
ENCODING 1406
SWIDTH 480 0
DWIDTH 8 0
BBX 10 14 1 -3
BITMAP
0400
0400
0400
0400
8400
8400
8400
8400
8400
CC00
7C00
0400
0400
07C0
ENDCHAR
STARTCHAR 057F
ENCODING 1407
SWIDTH 780 0
DWIDTH 13 0
BBX 12 8 1 0
BITMAP
00C0
87E0
8620
8430
8430
8430
CC30
7C30
ENDCHAR
STARTCHAR 0580
ENCODING 1408
SWIDTH 480 0
DWIDTH 8 0
BBX 6 11 1 -4
BITMAP
30
FC
C4
84
84
84
84
84
80
80
80
ENDCHAR
STARTCHAR 0581
ENCODING 1409
SWIDTH 480 0
DWIDTH 8 0
BBX 6 11 1 -3
BITMAP
30
7C
C4
84
84
84
CC
7C
04
04
7C
ENDCHAR
STARTCHAR 0582
ENCODING 1410
SWIDTH 360 0
DWIDTH 6 0
BBX 4 7 1 0
BITMAP
80
80
80
80
80
80
F0
ENDCHAR
STARTCHAR 0583
ENCODING 1411
SWIDTH 780 0
DWIDTH 13 0
BBX 12 14 1 -4
BITMAP
0400
0400
0400
04C0
87E0
8620
8430
8430
8430
CC30
7C30
0400
0400
0400
ENDCHAR
STARTCHAR 0584
ENCODING 1412
SWIDTH 480 0
DWIDTH 8 0
BBX 7 11 0 -4
BITMAP
18
7E
42
42
42
66
5C
40
FE
40
40
ENDCHAR
STARTCHAR 0585
ENCODING 1413
SWIDTH 480 0
DWIDTH 8 0
BBX 6 8 1 0
BITMAP
30
78
C4
84
84
84
CC
78
ENDCHAR
STARTCHAR 0586
ENCODING 1414
SWIDTH 480 0
DWIDTH 8 0
BBX 6 15 1 -4
BITMAP
30
70
70
70
38
34
34
B4
B4
FC
78
30
30
30
10
ENDCHAR
STARTCHAR 0587
ENCODING 1415
SWIDTH 660 0
DWIDTH 11 0
BBX 10 11 1 0
BITMAP
8000
8000
8000
8000
8400
8400
8400
8400
8400
CC00
7FC0
ENDCHAR
STARTCHAR 0588
ENCODING 1416
SWIDTH 300 0
DWIDTH 5 0
BBX 5 10 0 -3
BITMAP
30
30
30
78
30
30
30
30
30
E0
ENDCHAR
STARTCHAR 0589
ENCODING 1417
SWIDTH 180 0
DWIDTH 3 0
BBX 2 8 1 0
BITMAP
80
C0
00
00
00
00
80
C0
ENDCHAR
STARTCHAR 058A
ENCODING 1418
SWIDTH 360 0
DWIDTH 6 0
BBX 5 3 1 2
BITMAP
80
F8
30
ENDCHAR
STARTCHAR 058D
ENCODING 1421
SWIDTH 720 0
DWIDTH 12 0
BBX 11 11 1 0
BITMAP
0E00
7580
A840
ABC0
AC20
DFA0
BF60
8D40
F540
4580
3E00
ENDCHAR
STARTCHAR 058E
ENCODING 1422
SWIDTH 720 0
DWIDTH 12 0
BBX 11 11 1 0
BITMAP
0E00
7980
8540
FD40
8D20
F660
9FA0
AC40
ABC0
6480
1F00
ENDCHAR
STARTCHAR 058F
ENCODING 1423
SWIDTH 540 0
DWIDTH 9 0
BBX 8 11 1 0
BITMAP
70
D8
88
0C
0C
1F
0C
3E
7E
0C
0C
ENDCHAR
STARTCHAR 0591
ENCODING 1425
SWIDTH 0 0
DWIDTH 0 0
BBX 4 3 -2 -5
BITMAP
40
60
90
ENDCHAR
STARTCHAR 0592
ENCODING 1426
SWIDTH 0 0
DWIDTH 0 0
BBX 4 3 -2 10
BITMAP
60
00
F0
ENDCHAR
STARTCHAR 0593
ENCODING 1427
SWIDTH 0 0
DWIDTH 0 0
BBX 4 5 -2 8
BITMAP
30
E0
70
F0
C0
ENDCHAR
STARTCHAR 0594
ENCODING 1428
SWIDTH 0 0
DWIDTH 0 0
BBX 2 4 -1 9
BITMAP
C0
00
C0
C0
ENDCHAR
STARTCHAR 0595
ENCODING 1429
SWIDTH 0 0
DWIDTH 0 0
BBX 4 5 -2 8
BITMAP
10
B0
80
B0
B0
ENDCHAR
STARTCHAR 0596
ENCODING 1430
SWIDTH 0 0
DWIDTH 0 0
BBX 2 3 -1 -4
BITMAP
80
80
40
ENDCHAR
STARTCHAR 0597
ENCODING 1431
SWIDTH 0 0
DWIDTH 0 0
BBX 2 1 -1 9
BITMAP
C0
ENDCHAR
STARTCHAR 0598
ENCODING 1432
SWIDTH 0 0
DWIDTH 0 0
BBX 4 3 -2 8
BITMAP
D0
D0
B0
ENDCHAR
STARTCHAR 0599
ENCODING 1433
SWIDTH 0 0
DWIDTH 0 0
BBX 3 3 -3 8
BITMAP
C0
40
20
ENDCHAR
STARTCHAR 059A
ENCODING 1434
SWIDTH 0 0
DWIDTH 0 0
BBX 2 4 -1 -5
BITMAP
40
80
80
40
ENDCHAR
STARTCHAR 059B
ENCODING 1435
SWIDTH 0 0
DWIDTH 0 0
BBX 3 3 -1 -4
BITMAP
A0
A0
C0
ENDCHAR
STARTCHAR 059C
ENCODING 1436
SWIDTH 0 0
DWIDTH 0 0
BBX 2 2 -1 8
BITMAP
40
80
ENDCHAR
STARTCHAR 059D
ENCODING 1437
SWIDTH 0 0
DWIDTH 0 0
BBX 2 2 2 8
BITMAP
40
80
ENDCHAR
STARTCHAR 059E
ENCODING 1438
SWIDTH 0 0
DWIDTH 0 0
BBX 6 3 -3 8
BITMAP
2C
50
90
ENDCHAR
STARTCHAR 059F
ENCODING 1439
SWIDTH 0 0
DWIDTH 0 0
BBX 8 4 -4 8
BITMAP
42
A5
E7
18
ENDCHAR
STARTCHAR 05A0
ENCODING 1440
SWIDTH 0 0
DWIDTH 0 0
BBX 4 4 0 8
BITMAP
20
50
70
80
ENDCHAR
STARTCHAR 05A1
ENCODING 1441
SWIDTH 0 0
DWIDTH 0 0
BBX 2 3 -1 8
BITMAP
C0
C0
80
ENDCHAR
STARTCHAR 05A2
ENCODING 1442
SWIDTH 0 0
DWIDTH 0 0
BBX 4 3 -2 -5
BITMAP
90
F0
40
ENDCHAR
STARTCHAR 05A3
ENCODING 1443
SWIDTH 0 0
DWIDTH 0 0
BBX 4 3 -2 -4
BITMAP
10
10
F0
ENDCHAR
STARTCHAR 05A4
ENCODING 1444
SWIDTH 0 0
DWIDTH 0 0
BBX 2 4 -1 -5
BITMAP
40
80
80
40
ENDCHAR
STARTCHAR 05A5
ENCODING 1445
SWIDTH 0 0
DWIDTH 0 0
BBX 2 3 -1 -4
BITMAP
40
40
80
ENDCHAR
STARTCHAR 05A6
ENCODING 1446
SWIDTH 0 0
DWIDTH 0 0
BBX 6 3 -3 -4
BITMAP
24
28
D0
ENDCHAR
STARTCHAR 05A7
ENCODING 1447
SWIDTH 0 0
DWIDTH 0 0
BBX 2 5 -1 -6
BITMAP
C0
80
40
40
C0
ENDCHAR
STARTCHAR 05A8
ENCODING 1448
SWIDTH 0 0
DWIDTH 0 0
BBX 2 2 -1 8
BITMAP
80
40
ENDCHAR
STARTCHAR 05A9
ENCODING 1449
SWIDTH 0 0
DWIDTH 0 0
BBX 4 4 -4 8
BITMAP
40
A0
E0
10
ENDCHAR
STARTCHAR 05AA
ENCODING 1450
SWIDTH 0 0
DWIDTH 0 0
BBX 4 2 -2 -3
BITMAP
90
F0
ENDCHAR
STARTCHAR 05AB
ENCODING 1451
SWIDTH 0 0
DWIDTH 0 0
BBX 2 4 -1 9
BITMAP
40
80
C0
40
ENDCHAR
STARTCHAR 05AC
ENCODING 1452
SWIDTH 0 0
DWIDTH 0 0
BBX 4 4 -2 8
BITMAP
10
10
10
F0
ENDCHAR
STARTCHAR 05AD
ENCODING 1453
SWIDTH 0 0
DWIDTH 0 0
BBX 3 3 2 -4
BITMAP
80
40
20
ENDCHAR
STARTCHAR 05AE
ENCODING 1454
SWIDTH 0 0
DWIDTH 0 0
BBX 5 3 -4 8
BITMAP
D0
A8
B0
ENDCHAR
STARTCHAR 05AF
ENCODING 1455
SWIDTH 0 0
DWIDTH 0 0
BBX 2 3 -1 8
BITMAP
C0
C0
C0
ENDCHAR
STARTCHAR 05B0
ENCODING 1456
SWIDTH 0 0
DWIDTH 0 0
BBX 2 4 -1 -5
BITMAP
C0
00
00
C0
ENDCHAR
STARTCHAR 05B1
ENCODING 1457
SWIDTH 0 0
DWIDTH 0 0
BBX 7 4 -4 -5
BITMAP
96
90
60
66
ENDCHAR
STARTCHAR 05B2
ENCODING 1458
SWIDTH 0 0
DWIDTH 0 0
BBX 5 4 -2 -5
BITMAP
D8
00
00
18
ENDCHAR
STARTCHAR 05B3
ENCODING 1459
SWIDTH 0 0
DWIDTH 0 0
BBX 5 4 -2 -5
BITMAP
D8
40
40
58
ENDCHAR
STARTCHAR 05B4
ENCODING 1460
SWIDTH 0 0
DWIDTH 0 0
BBX 2 2 -1 -3
BITMAP
C0
C0
ENDCHAR
STARTCHAR 05B5
ENCODING 1461
SWIDTH 0 0
DWIDTH 0 0
BBX 4 2 -2 -3
BITMAP
90
90
ENDCHAR
STARTCHAR 05B6
ENCODING 1462
SWIDTH 0 0
DWIDTH 0 0
BBX 4 4 -2 -5
BITMAP
90
90
60
60
ENDCHAR
STARTCHAR 05B7
ENCODING 1463
SWIDTH 0 0
DWIDTH 0 0
BBX 4 1 -2 -2
BITMAP
F0
ENDCHAR
STARTCHAR 05B8
ENCODING 1464
SWIDTH 0 0
DWIDTH 0 0
BBX 4 3 -2 -5
BITMAP
F0
40
60
ENDCHAR
STARTCHAR 05B9
ENCODING 1465
SWIDTH 0 0
DWIDTH 0 0
BBX 2 1 1 9
BITMAP
C0
ENDCHAR
STARTCHAR 05BA
ENCODING 1466
SWIDTH 0 0
DWIDTH 0 0
BBX 2 1 1 9
BITMAP
C0
ENDCHAR
STARTCHAR 05BB
ENCODING 1467
SWIDTH 0 0
DWIDTH 0 0
BBX 6 4 -3 -4
BITMAP
80
B0
34
04
ENDCHAR
STARTCHAR 05BC
ENCODING 1468
SWIDTH 0 0
DWIDTH 0 0
BBX 2 1 -1 4
BITMAP
C0
ENDCHAR
STARTCHAR 05BD
ENCODING 1469
SWIDTH 0 0
DWIDTH 0 0
BBX 1 3 0 -5
BITMAP
80
80
80
ENDCHAR
STARTCHAR 05BE
ENCODING 1470
SWIDTH 300 0
DWIDTH 5 0
BBX 4 2 1 6
BITMAP
F0
F0
ENDCHAR
STARTCHAR 05BF
ENCODING 1471
SWIDTH 0 0
DWIDTH 0 0
BBX 4 1 -2 9
BITMAP
F0
ENDCHAR
STARTCHAR 05C0
ENCODING 1472
SWIDTH 120 0
DWIDTH 2 0
BBX 1 11 1 0
BITMAP
80
80
80
80
80
80
80
80
80
80
80
ENDCHAR
STARTCHAR 05C1
ENCODING 1473
SWIDTH 0 0
DWIDTH 0 0
BBX 2 1 1 9
BITMAP
C0
ENDCHAR
STARTCHAR 05C2
ENCODING 1474
SWIDTH 0 0
DWIDTH 0 0
BBX 2 1 -3 9
BITMAP
C0
ENDCHAR
STARTCHAR 05C3
ENCODING 1475
SWIDTH 180 0
DWIDTH 3 0
BBX 2 8 1 0
BITMAP
80
C0
00
00
00
00
80
C0
ENDCHAR
STARTCHAR 05C4
ENCODING 1476
SWIDTH 0 0
DWIDTH 0 0
BBX 2 1 -1 9
BITMAP
C0
ENDCHAR
STARTCHAR 05C5
ENCODING 1477
SWIDTH 0 0
DWIDTH 0 0
BBX 2 2 -1 -3
BITMAP
C0
C0
ENDCHAR
STARTCHAR 05C6
ENCODING 1478
SWIDTH 240 0
DWIDTH 4 0
BBX 3 7 1 0
BITMAP
E0
80
80
80
80
80
E0
ENDCHAR
STARTCHAR 05C7
ENCODING 1479
SWIDTH 0 0
DWIDTH 0 0
BBX 4 5 -2 -6
BITMAP
F0
40
40
60
60
ENDCHAR
STARTCHAR 05D0
ENCODING 1488
SWIDTH 480 0
DWIDTH 8 0
BBX 6 7 1 0
BITMAP
C4
64
2C
58
D8
C8
84
ENDCHAR
STARTCHAR 05D1
ENCODING 1489
SWIDTH 480 0
DWIDTH 8 0
BBX 6 7 1 0
BITMAP
F0
18
08
08
08
08
FC
ENDCHAR
STARTCHAR 05D2
ENCODING 1490
SWIDTH 300 0
DWIDTH 5 0
BBX 4 7 1 0
BITMAP
F0
30
30
30
70
B0
90
ENDCHAR
STARTCHAR 05D3
ENCODING 1491
SWIDTH 480 0
DWIDTH 8 0
BBX 6 7 1 0
BITMAP
FC
08
08
08
08
08
08
ENDCHAR
STARTCHAR 05D4
ENCODING 1492
SWIDTH 480 0
DWIDTH 8 0
BBX 6 7 1 0
BITMAP
F8
0C
04
84
84
84
84
ENDCHAR
STARTCHAR 05D5
ENCODING 1493
SWIDTH 120 0
DWIDTH 2 0
BBX 1 7 1 0
BITMAP
80
80
80
80
80
80
80
ENDCHAR
STARTCHAR 05D6
ENCODING 1494
SWIDTH 360 0
DWIDTH 6 0
BBX 5 7 1 0
BITMAP
F8
20
20
20
20
20
20
ENDCHAR
STARTCHAR 05D7
ENCODING 1495
SWIDTH 480 0
DWIDTH 8 0
BBX 6 7 1 0
BITMAP
F8
8C
84
84
84
84
84
ENDCHAR
STARTCHAR 05D8
ENCODING 1496
SWIDTH 480 0
DWIDTH 8 0
BBX 6 7 1 0
BITMAP
9C
84
84
84
84
CC
78
ENDCHAR
STARTCHAR 05D9
ENCODING 1497
SWIDTH 120 0
DWIDTH 2 0
BBX 1 3 1 4
BITMAP
80
80
80
ENDCHAR
STARTCHAR 05DA
ENCODING 1498
SWIDTH 420 0
DWIDTH 7 0
BBX 6 11 1 -4
BITMAP
F0
18
08
0C
0C
0C
0C
0C
0C
0C
04
ENDCHAR
STARTCHAR 05DB
ENCODING 1499
SWIDTH 420 0
DWIDTH 7 0
BBX 6 7 1 0
BITMAP
F0
08
08
0C
08
18
F0
ENDCHAR
STARTCHAR 05DC
ENCODING 1500
SWIDTH 420 0
DWIDTH 7 0
BBX 6 11 1 0
BITMAP
80
80
80
80
FC
0C
08
18
30
30
30
ENDCHAR
STARTCHAR 05DD
ENCODING 1501
SWIDTH 480 0
DWIDTH 8 0
BBX 6 7 1 0
BITMAP
F8
8C
84
84
84
84
FC
ENDCHAR
STARTCHAR 05DE
ENCODING 1502
SWIDTH 540 0
DWIDTH 9 0
BBX 8 8 1 0
BITMAP
0C
BE
E2
61
41
41
C1
87
ENDCHAR
STARTCHAR 05DF
ENCODING 1503
SWIDTH 120 0
DWIDTH 2 0
BBX 1 10 1 -4
BITMAP
80
80
80
80
80
80
80
80
80
80
ENDCHAR
STARTCHAR 05E0
ENCODING 1504
SWIDTH 240 0
DWIDTH 4 0
BBX 3 7 1 0
BITMAP
E0
20
20
20
20
20
E0
ENDCHAR
STARTCHAR 05E1
ENCODING 1505
SWIDTH 480 0
DWIDTH 8 0
BBX 6 8 1 0
BITMAP
30
78
C4
84
84
84
CC
78
ENDCHAR
STARTCHAR 05E2
ENCODING 1506
SWIDTH 480 0
DWIDTH 8 0
BBX 7 7 1 0
BITMAP
86
44
44
68
38
70
C0
ENDCHAR
STARTCHAR 05E3
ENCODING 1507
SWIDTH 480 0
DWIDTH 8 0
BBX 6 10 1 -4
BITMAP
F8
84
E4
E4
04
04
04
04
04
04
ENDCHAR
STARTCHAR 05E4
ENCODING 1508
SWIDTH 480 0
DWIDTH 8 0
BBX 6 7 1 0
BITMAP
F8
84
E4
E4
04
0C
78
ENDCHAR
STARTCHAR 05E5
ENCODING 1509
SWIDTH 480 0
DWIDTH 8 0
BBX 6 10 2 -4
BITMAP
C4
44
48
58
70
40
40
40
40
40
ENDCHAR
STARTCHAR 05E6
ENCODING 1510
SWIDTH 480 0
DWIDTH 8 0
BBX 6 7 1 0
BITMAP
C4
64
2C
18
18
08
FC
ENDCHAR
STARTCHAR 05E7
ENCODING 1511
SWIDTH 420 0
DWIDTH 7 0
BBX 6 10 1 -4
BITMAP
FC
0C
08
98
B0
B0
B0
80
80
80
ENDCHAR
STARTCHAR 05E8
ENCODING 1512
SWIDTH 420 0
DWIDTH 7 0
BBX 6 7 1 0
BITMAP
F0
18
08
0C
0C
0C
0C
ENDCHAR
STARTCHAR 05E9
ENCODING 1513
SWIDTH 600 0
DWIDTH 10 0
BBX 9 7 1 0
BITMAP
9980
9880
9980
9180
D100
6200
3C00
ENDCHAR
STARTCHAR 05EA
ENCODING 1514
SWIDTH 480 0
DWIDTH 8 0
BBX 7 7 1 0
BITMAP
FC
46
42
42
42
42
C2
ENDCHAR
STARTCHAR 05EF
ENCODING 1519
SWIDTH 360 0
DWIDTH 6 0
BBX 4 7 1 4
BITMAP
60
60
60
F0
90
90
90
ENDCHAR
STARTCHAR 05F0
ENCODING 1520
SWIDTH 300 0
DWIDTH 5 0
BBX 3 7 1 0
BITMAP
A0
A0
A0
A0
A0
A0
A0
ENDCHAR
STARTCHAR 05F1
ENCODING 1521
SWIDTH 300 0
DWIDTH 5 0
BBX 3 8 1 0
BITMAP
80
A0
A0
A0
20
20
20
20
ENDCHAR
STARTCHAR 05F2
ENCODING 1522
SWIDTH 300 0
DWIDTH 5 0
BBX 3 4 1 4
BITMAP
A0
A0
A0
A0
ENDCHAR
STARTCHAR 05F3
ENCODING 1523
SWIDTH 240 0
DWIDTH 4 0
BBX 2 4 1 3
BITMAP
C0
80
80
80
ENDCHAR
STARTCHAR 05F4
ENCODING 1524
SWIDTH 360 0
DWIDTH 6 0
BBX 4 5 1 3
BITMAP
D0
90
A0
A0
20
ENDCHAR
STARTCHAR 0606
ENCODING 1542
SWIDTH 540 0
DWIDTH 9 0
BBX 8 12 1 0
BITMAP
0D
8F
C8
48
48
60
2F
28
38
18
18
08
ENDCHAR
STARTCHAR 0607
ENCODING 1543
SWIDTH 540 0
DWIDTH 9 0
BBX 8 12 1 0
BITMAP
06
88
C6
48
4C
62
2F
28
38
18
18
08
ENDCHAR
STARTCHAR 0608
ENCODING 1544
SWIDTH 960 0
DWIDTH 16 0
BBX 15 11 1 -3
BITMAP
0060
01F2
0112
0312
E312
2312
2196
30FC
1010
1830
0FE0
ENDCHAR
STARTCHAR 0609
ENCODING 1545
SWIDTH 780 0
DWIDTH 13 0
BBX 11 11 1 0
BITMAP
4180
4300
0200
0600
0C00
0800
1000
3000
2000
4120
C320
ENDCHAR
STARTCHAR 060A
ENCODING 1546
SWIDTH 960 0
DWIDTH 16 0
BBX 15 11 1 0
BITMAP
4180
4300
0200
0600
0C00
0800
1000
3000
2000
4124
C326
ENDCHAR
STARTCHAR 060B
ENCODING 1547
SWIDTH 480 0
DWIDTH 8 0
BBX 6 15 1 -5
BITMAP
18
00
18
3C
44
44
44
44
64
FC
00
10
10
10
10
ENDCHAR
STARTCHAR 060C
ENCODING 1548
SWIDTH 180 0
DWIDTH 3 0
BBX 2 4 1 0
BITMAP
80
80
80
C0
ENDCHAR
STARTCHAR 060D
ENCODING 1549
SWIDTH 240 0
DWIDTH 4 0
BBX 4 7 -1 -3
BITMAP
10
30
20
20
40
40
C0
ENDCHAR
STARTCHAR 060E
ENCODING 1550
SWIDTH 840 0
DWIDTH 14 0
BBX 13 5 1 0
BITMAP
7800
CC00
8400
8400
FFF8
ENDCHAR
STARTCHAR 060F
ENCODING 1551
SWIDTH 480 0
DWIDTH 8 0
BBX 7 10 1 -3
BITMAP
3C
20
20
30
1C
20
7C
C6
E6
3C
ENDCHAR
STARTCHAR 0615
ENCODING 1557
SWIDTH 0 0
DWIDTH 0 0
BBX 6 5 -3 9
BITMAP
80
BC
44
44
FC
ENDCHAR
STARTCHAR 0617
ENCODING 1559
SWIDTH 0 0
DWIDTH 0 0
BBX 2 7 -1 8
BITMAP
40
40
40
40
40
40
C0
ENDCHAR
STARTCHAR 0618
ENCODING 1560
SWIDTH 0 0
DWIDTH 0 0
BBX 2 1 -1 9
BITMAP
C0
ENDCHAR
STARTCHAR 0619
ENCODING 1561
SWIDTH 0 0
DWIDTH 0 0
BBX 2 2 -1 9
BITMAP
C0
C0
ENDCHAR
STARTCHAR 061A
ENCODING 1562
SWIDTH 0 0
DWIDTH 0 0
BBX 2 2 -1 -3
BITMAP
40
80
ENDCHAR
STARTCHAR 061B
ENCODING 1563
SWIDTH 180 0
DWIDTH 3 0
BBX 3 10 0 0
BITMAP
40
80
C0
60
00
00
00
00
40
60
ENDCHAR
STARTCHAR 061E
ENCODING 1566
SWIDTH 480 0
DWIDTH 8 0
BBX 7 8 1 0
BITMAP
10
10
00
00
00
00
82
C6
ENDCHAR
STARTCHAR 061F
ENCODING 1567
SWIDTH 420 0
DWIDTH 7 0
BBX 5 11 1 0
BITMAP
70
D8
88
80
80
40
20
20
00
20
30
ENDCHAR
STARTCHAR 0620
ENCODING 1568
SWIDTH 780 0
DWIDTH 13 0
BBX 11 13 1 -7
BITMAP
07C0
0460
0420
0420
0420
8420
8420
8400
C400
7800
0000
3000
3000
ENDCHAR
STARTCHAR 0621
ENCODING 1569
SWIDTH 480 0
DWIDTH 8 0
BBX 7 8 1 0
BITMAP
18
3C
46
40
40
40
60
FE
ENDCHAR
STARTCHAR 0622
ENCODING 1570
SWIDTH 120 0
DWIDTH 2 0
BBX 5 14 -1 0
BITMAP
C0
B8
00
20
20
20
20
20
20
20
20
20
20
20
ENDCHAR
STARTCHAR 0623
ENCODING 1571
SWIDTH 120 0
DWIDTH 2 0
BBX 3 14 0 0
BITMAP
60
80
E0
40
40
40
40
40
40
40
40
40
40
40
ENDCHAR
STARTCHAR 0624
ENCODING 1572
SWIDTH 420 0
DWIDTH 7 0
BBX 6 14 1 -3
BITMAP
30
20
30
30
78
CC
8C
8C
8C
CC
7C
0C
88
F8
ENDCHAR
STARTCHAR 0625
ENCODING 1573
SWIDTH 120 0
DWIDTH 2 0
BBX 3 15 0 -4
BITMAP
40
40
40
40
40
40
40
40
40
40
40
00
C0
80
E0
ENDCHAR
STARTCHAR 0626
ENCODING 1574
SWIDTH 780 0
DWIDTH 13 0
BBX 11 11 1 -3
BITMAP
4000
87C0
E460
0420
0420
0420
8420
8420
8400
C400
7800
ENDCHAR
STARTCHAR 0627
ENCODING 1575
SWIDTH 120 0
DWIDTH 2 0
BBX 1 11 1 0
BITMAP
80
80
80
80
80
80
80
80
80
80
80
ENDCHAR
STARTCHAR 0628
ENCODING 1576
SWIDTH 720 0
DWIDTH 12 0
BBX 10 10 1 -3
BITMAP
0040
8040
8040
8040
8040
C040
7FC0
0000
0400
0400
ENDCHAR
STARTCHAR 0629
ENCODING 1577
SWIDTH 480 0
DWIDTH 8 0
BBX 6 10 1 0
BITMAP
68
00
30
78
C4
84
84
84
CC
78
ENDCHAR
STARTCHAR 062A
ENCODING 1578
SWIDTH 720 0
DWIDTH 12 0
BBX 10 10 1 0
BITMAP
1B00
0000
0000
0040
8040
8040
8040
8040
C040
7FC0
ENDCHAR
STARTCHAR 062B
ENCODING 1579
SWIDTH 720 0
DWIDTH 12 0
BBX 10 13 1 0
BITMAP
0400
0400
0000
1B00
0000
0000
0040
8040
8040
8040
8040
C040
7FC0
ENDCHAR
STARTCHAR 062C
ENCODING 1580
SWIDTH 540 0
DWIDTH 9 0
BBX 8 11 1 -5
BITMAP
FF
60
40
80
80
80
98
80
41
62
3C
ENDCHAR
STARTCHAR 062D
ENCODING 1581
SWIDTH 540 0
DWIDTH 9 0
BBX 8 11 1 -5
BITMAP
FF
60
40
80
80
80
80
80
41
62
3C
ENDCHAR
STARTCHAR 062E
ENCODING 1582
SWIDTH 540 0
DWIDTH 9 0
BBX 8 15 1 -5
BITMAP
18
00
00
00
FF
60
40
80
80
80
80
80
41
62
3C
ENDCHAR
STARTCHAR 062F
ENCODING 1583
SWIDTH 480 0
DWIDTH 8 0
BBX 6 7 1 1
BITMAP
08
0C
04
04
04
84
7C
ENDCHAR
STARTCHAR 0630
ENCODING 1584
SWIDTH 480 0
DWIDTH 8 0
BBX 6 10 1 0
BITMAP
30
00
00
08
0C
04
04
04
84
7C
ENDCHAR
STARTCHAR 0631
ENCODING 1585
SWIDTH 300 0
DWIDTH 5 0
BBX 4 10 1 -3
BITMAP
30
30
30
30
30
30
30
30
30
E0
ENDCHAR
STARTCHAR 0632
ENCODING 1586
SWIDTH 300 0
DWIDTH 5 0
BBX 4 13 1 -3
BITMAP
30
00
00
30
30
30
30
30
30
30
30
30
E0
ENDCHAR
STARTCHAR 0633
ENCODING 1587
SWIDTH 960 0
DWIDTH 16 0
BBX 15 10 1 -3
BITMAP
0022
0122
0122
8122
8122
8126
81FC
8100
C200
7C00
ENDCHAR
STARTCHAR 0634
ENCODING 1588
SWIDTH 960 0
DWIDTH 16 0
BBX 15 16 1 -3
BITMAP
0020
0030
0000
0058
0000
0000
0022
0122
0122
8122
8122
8126
81FC
8100
C200
7C00
ENDCHAR
STARTCHAR 0635
ENCODING 1589
SWIDTH 1140 0
DWIDTH 19 0
BBX 18 11 1 -3
BITMAP
000E00
043F80
046080
04C0C0
0480C0
0500C0
8500C0
87FFC0
840000
C40000
780000
ENDCHAR
STARTCHAR 0636
ENCODING 1590
SWIDTH 1140 0
DWIDTH 19 0
BBX 18 13 1 -3
BITMAP
000800
000000
000E00
043F80
046080
04C0C0
0480C0
0500C0
8500C0
87FFC0
840000
C40000
780000
ENDCHAR
STARTCHAR 0637
ENCODING 1591
SWIDTH 840 0
DWIDTH 14 0
BBX 12 11 1 0
BITMAP
6000
6000
6000
61C0
67F0
6C10
7010
7010
6010
6010
FFF0
ENDCHAR
STARTCHAR 0638
ENCODING 1592
SWIDTH 840 0
DWIDTH 14 0
BBX 12 11 1 0
BITMAP
6000
6300
6000
61C0
67F0
6C10
7010
7010
6010
6010
FFF0
ENDCHAR
STARTCHAR 0639
ENCODING 1593
SWIDTH 420 0
DWIDTH 7 0
BBX 6 10 1 -3
BITMAP
F8
C0
40
40
78
C0
80
80
CC
78
ENDCHAR
STARTCHAR 063A
ENCODING 1594
SWIDTH 420 0
DWIDTH 7 0
BBX 6 13 1 -3
BITMAP
30
00
00
F8
C0
40
40
78
C0
80
80
CC
78
ENDCHAR
STARTCHAR 063B
ENCODING 1595
SWIDTH 720 0
DWIDTH 12 0
BBX 11 14 1 0
BITMAP
0900
0D80
0000
0040
00C0
0180
0300
0600
8300
8100
8180
80C0
C040
7FE0
ENDCHAR
STARTCHAR 063C
ENCODING 1596
SWIDTH 720 0
DWIDTH 12 0
BBX 11 16 1 -5
BITMAP
0040
00C0
0180
0300
0600
8300
8100
8180
80C0
C040
7FE0
0000
0D00
0D00
0200
0600
ENDCHAR
STARTCHAR 063D
ENCODING 1597
SWIDTH 780 0
DWIDTH 13 0
BBX 11 14 1 -3
BITMAP
0400
0A00
1100
0000
07C0
0460
0420
0420
0420
8420
8420
8400
C400
7800
ENDCHAR
STARTCHAR 063E
ENCODING 1598
SWIDTH 780 0
DWIDTH 13 0
BBX 11 13 1 -3
BITMAP
1B00
0000
0000
07C0
0460
0420
0420
0420
8420
8420
8400
C400
7800
ENDCHAR
STARTCHAR 063F
ENCODING 1599
SWIDTH 780 0
DWIDTH 13 0
BBX 11 16 1 -3
BITMAP
0400
0600
0000
1B00
0000
0000
07C0
0460
0420
0420
0420
8420
8420
8400
C400
7800
ENDCHAR
STARTCHAR 0640
ENCODING 1600
SWIDTH 300 0
DWIDTH 5 0
BBX 6 1 0 0
BITMAP
FC
ENDCHAR
STARTCHAR 0641
ENCODING 1601
SWIDTH 900 0
DWIDTH 15 0
BBX 14 10 1 0
BITMAP
0030
0000
0030
007C
80CC
808C
808C
808C
C04C
7FF8
ENDCHAR
STARTCHAR 0642
ENCODING 1602
SWIDTH 660 0
DWIDTH 11 0
BBX 10 13 1 -3
BITMAP
06C0
0000
0300
07C0
4C40
C840
8840
8C40
8440
83C0
C040
6080
3F00
ENDCHAR
STARTCHAR 0643
ENCODING 1603
SWIDTH 720 0
DWIDTH 12 0
BBX 10 11 1 0
BITMAP
0040
0040
0040
0440
0840
8E40
8040
8040
8040
C040
7FC0
ENDCHAR
STARTCHAR 0644
ENCODING 1604
SWIDTH 480 0
DWIDTH 8 0
BBX 6 14 1 -3
BITMAP
04
04
04
04
04
04
04
04
04
84
84
84
C4
78
ENDCHAR
STARTCHAR 0645
ENCODING 1605
SWIDTH 540 0
DWIDTH 9 0
BBX 8 11 1 -4
BITMAP
18
7C
C2
83
83
82
46
7C
C0
80
80
ENDCHAR
STARTCHAR 0646
ENCODING 1606
SWIDTH 720 0
DWIDTH 12 0
BBX 11 13 1 -3
BITMAP
0C00
0000
0000
0040
8060
8020
8020
8020
8060
8040
4040
6080
3F00
ENDCHAR
STARTCHAR 0647
ENCODING 1607
SWIDTH 480 0
DWIDTH 8 0
BBX 6 8 1 0
BITMAP
30
78
C4
84
84
84
CC
78
ENDCHAR
STARTCHAR 0648
ENCODING 1608
SWIDTH 420 0
DWIDTH 7 0
BBX 6 11 1 -3
BITMAP
30
78
CC
8C
8C
8C
CC
7C
0C
88
F8
ENDCHAR
STARTCHAR 0649
ENCODING 1609
SWIDTH 780 0
DWIDTH 13 0
BBX 11 10 1 -3
BITMAP
07C0
0460
0420
0420
0420
8420
8420
8400
C400
7800
ENDCHAR
STARTCHAR 064A
ENCODING 1610
SWIDTH 780 0
DWIDTH 13 0
BBX 11 13 1 -6
BITMAP
07C0
0460
0420
0420
0420
8420
8420
8400
C400
7800
0000
4800
6800
ENDCHAR
STARTCHAR 064B
ENCODING 1611
SWIDTH 0 0
DWIDTH 0 0
BBX 4 3 -2 9
BITMAP
70
90
E0
ENDCHAR
STARTCHAR 064C
ENCODING 1612
SWIDTH 0 0
DWIDTH 0 0
BBX 4 4 -2 8
BITMAP
B0
D0
F0
10
ENDCHAR
STARTCHAR 064D
ENCODING 1613
SWIDTH 0 0
DWIDTH 0 0
BBX 4 4 -2 -5
BITMAP
30
C0
70
80
ENDCHAR
STARTCHAR 064E
ENCODING 1614
SWIDTH 0 0
DWIDTH 0 0
BBX 4 2 -2 9
BITMAP
70
80
ENDCHAR
STARTCHAR 064F
ENCODING 1615
SWIDTH 0 0
DWIDTH 0 0
BBX 4 3 -2 8
BITMAP
30
50
F0
ENDCHAR
STARTCHAR 0650
ENCODING 1616
SWIDTH 0 0
DWIDTH 0 0
BBX 4 2 -2 -3
BITMAP
30
C0
ENDCHAR
STARTCHAR 0651
ENCODING 1617
SWIDTH 0 0
DWIDTH 0 0
BBX 6 2 -3 8
BITMAP
A4
78
ENDCHAR
STARTCHAR 0652
ENCODING 1618
SWIDTH 0 0
DWIDTH 0 0
BBX 2 3 -1 8
BITMAP
C0
C0
C0
ENDCHAR
STARTCHAR 0653
ENCODING 1619
SWIDTH 0 0
DWIDTH 0 0
BBX 6 2 -3 9
BITMAP
44
BC
ENDCHAR
STARTCHAR 0654
ENCODING 1620
SWIDTH 0 0
DWIDTH 0 0
BBX 2 3 -1 8
BITMAP
C0
80
C0
ENDCHAR
STARTCHAR 0655
ENCODING 1621
SWIDTH 0 0
DWIDTH 0 0
BBX 2 3 -1 -4
BITMAP
C0
80
C0
ENDCHAR
STARTCHAR 0656
ENCODING 1622
SWIDTH 0 0
DWIDTH 0 0
BBX 1 5 0 -6
BITMAP
80
80
80
80
80
ENDCHAR
STARTCHAR 0657
ENCODING 1623
SWIDTH 0 0
DWIDTH 0 0
BBX 4 3 -2 9
BITMAP
F0
A0
C0
ENDCHAR
STARTCHAR 0658
ENCODING 1624
SWIDTH 0 0
DWIDTH 0 0
BBX 2 2 -1 9
BITMAP
C0
C0
ENDCHAR
STARTCHAR 0659
ENCODING 1625
SWIDTH 0 0
DWIDTH 0 0
BBX 4 1 -2 9
BITMAP
F0
ENDCHAR
STARTCHAR 065A
ENCODING 1626
SWIDTH 0 0
DWIDTH 0 0
BBX 4 2 -2 8
BITMAP
90
60
ENDCHAR
STARTCHAR 065B
ENCODING 1627
SWIDTH 0 0
DWIDTH 0 0
BBX 4 3 -2 8
BITMAP
60
F0
90
ENDCHAR
STARTCHAR 065C
ENCODING 1628
SWIDTH 0 0
DWIDTH 0 0
BBX 2 2 -1 -3
BITMAP
C0
C0
ENDCHAR
STARTCHAR 065D
ENCODING 1629
SWIDTH 0 0
DWIDTH 0 0
BBX 4 3 -2 8
BITMAP
C0
A0
F0
ENDCHAR
STARTCHAR 065E
ENCODING 1630
SWIDTH 0 0
DWIDTH 0 0
BBX 4 5 -2 8
BITMAP
C0
C0
70
B0
30
ENDCHAR
STARTCHAR 065F
ENCODING 1631
SWIDTH 0 0
DWIDTH 0 0
BBX 5 3 -2 -4
BITMAP
30
E0
38
ENDCHAR
STARTCHAR 0660
ENCODING 1632
SWIDTH 300 0
DWIDTH 5 0
BBX 3 3 1 4
BITMAP
40
E0
60
ENDCHAR
STARTCHAR 0661
ENCODING 1633
SWIDTH 120 0
DWIDTH 2 0
BBX 1 11 1 0
BITMAP
80
80
80
80
80
80
80
80
80
80
80
ENDCHAR
STARTCHAR 0662
ENCODING 1634
SWIDTH 360 0
DWIDTH 6 0
BBX 5 11 1 0
BITMAP
F8
80
80
80
80
80
80
80
80
80
80
ENDCHAR
STARTCHAR 0663
ENCODING 1635
SWIDTH 480 0
DWIDTH 8 0
BBX 7 11 1 0
BITMAP
92
92
96
FC
80
80
80
80
80
80
80
ENDCHAR
STARTCHAR 0664
ENCODING 1636
SWIDTH 420 0
DWIDTH 7 0
BBX 6 11 1 0
BITMAP
3C
40
C0
C0
40
7C
C0
80
80
C0
7C
ENDCHAR
STARTCHAR 0665
ENCODING 1637
SWIDTH 480 0
DWIDTH 8 0
BBX 7 11 1 0
BITMAP
30
68
44
C4
84
86
82
86
86
C4
78
ENDCHAR
STARTCHAR 0666
ENCODING 1638
SWIDTH 360 0
DWIDTH 6 0
BBX 5 11 1 0
BITMAP
F8
18
18
18
18
18
18
18
18
18
18
ENDCHAR
STARTCHAR 0667
ENCODING 1639
SWIDTH 600 0
DWIDTH 10 0
BBX 9 11 1 0
BITMAP
8080
C100
4100
4300
6200
2200
2600
3400
1400
1C00
0800
ENDCHAR
STARTCHAR 0668
ENCODING 1640
SWIDTH 600 0
DWIDTH 10 0
BBX 9 11 1 0
BITMAP
0800
1800
1400
1400
2600
2200
6200
4300
4100
C100
8180
ENDCHAR
STARTCHAR 0669
ENCODING 1641
SWIDTH 420 0
DWIDTH 7 0
BBX 6 11 1 0
BITMAP
70
C8
84
84
C4
7C
04
04
04
04
04
ENDCHAR
STARTCHAR 066A
ENCODING 1642
SWIDTH 600 0
DWIDTH 10 0
BBX 9 11 1 0
BITMAP
4180
4300
0200
0600
0C00
0800
1000
3000
2000
4100
C300
ENDCHAR
STARTCHAR 066B
ENCODING 1643
SWIDTH 120 0
DWIDTH 2 0
BBX 3 5 -1 -3
BITMAP
20
20
20
20
E0
ENDCHAR
STARTCHAR 066C
ENCODING 1644
SWIDTH 180 0
DWIDTH 3 0
BBX 3 4 0 -2
BITMAP
60
40
40
C0
ENDCHAR
STARTCHAR 066D
ENCODING 1645
SWIDTH 420 0
DWIDTH 7 0
BBX 5 6 1 5
BITMAP
20
20
F8
20
50
40
ENDCHAR
STARTCHAR 066E
ENCODING 1646
SWIDTH 720 0
DWIDTH 12 0
BBX 10 7 1 0
BITMAP
0040
8040
8040
8040
8040
C040
7FC0
ENDCHAR
STARTCHAR 066F
ENCODING 1647
SWIDTH 660 0
DWIDTH 11 0
BBX 10 11 1 -3
BITMAP
0300
07C0
4C40
C840
8840
8C40
8440
83C0
C040
6080
3F00
ENDCHAR
STARTCHAR 0670
ENCODING 1648
SWIDTH 0 0
DWIDTH 0 0
BBX 1 4 0 9
BITMAP
80
80
80
80
ENDCHAR
STARTCHAR 0671
ENCODING 1649
SWIDTH 120 0
DWIDTH 2 0
BBX 5 14 -1 0
BITMAP
30
48
F8
20
20
20
20
20
20
20
20
20
20
20
ENDCHAR
STARTCHAR 0672
ENCODING 1650
SWIDTH 120 0
DWIDTH 2 0
BBX 5 14 -1 0
BITMAP
18
E0
B8
20
20
20
20
20
20
20
20
20
20
20
ENDCHAR
STARTCHAR 0673
ENCODING 1651
SWIDTH 120 0
DWIDTH 2 0
BBX 5 15 -1 -4
BITMAP
20
20
20
20
20
20
20
20
20
20
20
00
10
E0
38
ENDCHAR
STARTCHAR 0674
ENCODING 1652
SWIDTH 240 0
DWIDTH 4 0
BBX 3 3 1 8
BITMAP
C0
80
E0
ENDCHAR
STARTCHAR 0675
ENCODING 1653
SWIDTH 360 0
DWIDTH 6 0
BBX 5 11 1 0
BITMAP
B0
A0
B8
80
80
80
80
80
80
80
80
ENDCHAR
STARTCHAR 0676
ENCODING 1654
SWIDTH 600 0
DWIDTH 10 0
BBX 9 14 1 -3
BITMAP
0300
0200
0380
3000
7800
CC00
8C00
8C00
8C00
CC00
7C00
0C00
8800
F800
ENDCHAR
STARTCHAR 0677
ENCODING 1655
SWIDTH 600 0
DWIDTH 10 0
BBX 9 15 1 -2
BITMAP
3000
1300
1200
2380
3000
7800
CC00
8C00
8C00
8C00
CC00
7C00
0C00
8800
F800
ENDCHAR
STARTCHAR 0678
ENCODING 1656
SWIDTH 960 0
DWIDTH 16 0
BBX 14 14 1 -3
BITMAP
000C
0008
000C
0000
07C0
0460
0420
0420
0420
8420
8420
8400
C400
7800
ENDCHAR
STARTCHAR 0679
ENCODING 1657
SWIDTH 720 0
DWIDTH 12 0
BBX 10 12 1 0
BITMAP
1000
1700
0900
1F00
0000
0040
8040
8040
8040
8040
C040
7FC0
ENDCHAR
STARTCHAR 067A
ENCODING 1658
SWIDTH 720 0
DWIDTH 12 0
BBX 10 13 1 0
BITMAP
0400
0400
0000
0400
0000
0000
0040
8040
8040
8040
8040
C040
7FC0
ENDCHAR
STARTCHAR 067B
ENCODING 1659
SWIDTH 720 0
DWIDTH 12 0
BBX 10 12 1 -5
BITMAP
0040
8040
8040
8040
8040
C040
7FC0
0000
0400
0400
0400
0400
ENDCHAR
STARTCHAR 067C
ENCODING 1660
SWIDTH 720 0
DWIDTH 12 0
BBX 10 12 1 -2
BITMAP
1B00
0000
0000
0040
8040
8040
8040
8040
C040
7FC0
0A00
0E00
ENDCHAR
STARTCHAR 067D
ENCODING 1661
SWIDTH 720 0
DWIDTH 12 0
BBX 10 13 1 0
BITMAP
0A00
1B00
0000
0400
0000
0000
0040
8040
8040
8040
8040
C040
7FC0
ENDCHAR
STARTCHAR 067E
ENCODING 1662
SWIDTH 720 0
DWIDTH 12 0
BBX 10 12 1 -5
BITMAP
0040
8040
8040
8040
8040
C040
7FC0
0000
1B00
1B00
0400
0400
ENDCHAR
STARTCHAR 067F
ENCODING 1663
SWIDTH 720 0
DWIDTH 12 0
BBX 10 13 1 0
BITMAP
0A00
0A00
0000
1B00
0000
0000
0040
8040
8040
8040
8040
C040
7FC0
ENDCHAR
STARTCHAR 0680
ENCODING 1664
SWIDTH 720 0
DWIDTH 12 0
BBX 10 12 1 -5
BITMAP
0040
8040
8040
8040
8040
C040
7FC0
0000
0A00
0A00
0A00
1B00
ENDCHAR
STARTCHAR 0681
ENCODING 1665
SWIDTH 540 0
DWIDTH 9 0
BBX 8 16 1 -5
BITMAP
18
10
1C
00
00
FF
60
40
80
80
80
80
80
41
62
3C
ENDCHAR
STARTCHAR 0682
ENCODING 1666
SWIDTH 540 0
DWIDTH 9 0
BBX 8 18 1 -5
BITMAP
08
18
00
18
00
00
00
FF
60
40
80
80
80
80
80
41
62
3C
ENDCHAR
STARTCHAR 0683
ENCODING 1667
SWIDTH 540 0
DWIDTH 9 0
BBX 8 11 1 -5
BITMAP
FF
60
40
80
80
80
B6
A4
41
62
3C
ENDCHAR
STARTCHAR 0684
ENCODING 1668
SWIDTH 540 0
DWIDTH 9 0
BBX 8 11 1 -5
BITMAP
FF
60
40
80
80
98
80
88
49
62
3C
ENDCHAR
STARTCHAR 0685
ENCODING 1669
SWIDTH 540 0
DWIDTH 9 0
BBX 8 18 1 -5
BITMAP
08
18
00
36
00
00
00
FF
60
40
80
80
80
80
80
41
62
3C
ENDCHAR
STARTCHAR 0686
ENCODING 1670
SWIDTH 540 0
DWIDTH 9 0
BBX 8 11 1 -5
BITMAP
FF
60
40
80
80
A4
B6
80
59
62
3C
ENDCHAR
STARTCHAR 0687
ENCODING 1671
SWIDTH 540 0
DWIDTH 9 0
BBX 8 11 1 -5
BITMAP
FF
60
40
80
80
B4
80
B4
55
62
3C
ENDCHAR
STARTCHAR 0688
ENCODING 1672
SWIDTH 480 0
DWIDTH 8 0
BBX 6 12 1 0
BITMAP
40
78
68
78
00
08
0C
04
04
04
84
7C
ENDCHAR
STARTCHAR 0689
ENCODING 1673
SWIDTH 480 0
DWIDTH 8 0
BBX 6 9 1 -1
BITMAP
08
0C
04
04
04
84
7C
28
30
ENDCHAR
STARTCHAR 068A
ENCODING 1674
SWIDTH 480 0
DWIDTH 8 0
BBX 6 10 1 -2
BITMAP
08
0C
04
04
04
84
7C
00
30
30
ENDCHAR
STARTCHAR 068B
ENCODING 1675
SWIDTH 480 0
DWIDTH 8 0
BBX 6 15 1 -3
BITMAP
40
78
68
78
00
08
0C
04
04
04
84
7C
00
30
30
ENDCHAR
STARTCHAR 068C
ENCODING 1676
SWIDTH 480 0
DWIDTH 8 0
BBX 6 10 1 0
BITMAP
68
00
00
08
0C
04
04
04
84
7C
ENDCHAR
STARTCHAR 068D
ENCODING 1677
SWIDTH 480 0
DWIDTH 8 0
BBX 6 10 1 -2
BITMAP
08
0C
04
04
04
84
7C
00
48
48
ENDCHAR
STARTCHAR 068E
ENCODING 1678
SWIDTH 480 0
DWIDTH 8 0
BBX 6 13 1 0
BITMAP
10
30
00
68
00
00
08
0C
04
04
04
84
7C
ENDCHAR
STARTCHAR 068F
ENCODING 1679
SWIDTH 480 0
DWIDTH 8 0
BBX 6 13 1 0
BITMAP
48
68
00
30
00
00
08
0C
04
04
04
84
7C
ENDCHAR
STARTCHAR 0690
ENCODING 1680
SWIDTH 480 0
DWIDTH 8 0
BBX 6 13 1 0
BITMAP
48
78
00
78
00
00
08
0C
04
04
04
84
7C
ENDCHAR
STARTCHAR 0691
ENCODING 1681
SWIDTH 300 0
DWIDTH 5 0
BBX 5 15 1 -3
BITMAP
40
78
48
78
00
30
30
30
30
30
30
30
30
30
E0
ENDCHAR
STARTCHAR 0692
ENCODING 1682
SWIDTH 300 0
DWIDTH 5 0
BBX 5 14 1 -3
BITMAP
48
30
00
00
30
30
30
30
30
30
30
30
30
E0
ENDCHAR
STARTCHAR 0693
ENCODING 1683
SWIDTH 300 0
DWIDTH 5 0
BBX 5 11 1 -4
BITMAP
30
30
30
30
30
30
30
30
30
E8
38
ENDCHAR
STARTCHAR 0694
ENCODING 1684
SWIDTH 300 0
DWIDTH 5 0
BBX 4 13 1 -6
BITMAP
30
30
30
30
30
30
30
30
30
E0
00
20
30
ENDCHAR
STARTCHAR 0695
ENCODING 1685
SWIDTH 300 0
DWIDTH 5 0
BBX 4 13 1 -7
BITMAP
30
30
30
30
30
30
30
30
30
E0
00
90
60
ENDCHAR
STARTCHAR 0696
ENCODING 1686
SWIDTH 300 0
DWIDTH 5 0
BBX 4 13 1 -6
BITMAP
30
30
30
30
B0
B0
30
30
30
E0
00
20
30
ENDCHAR
STARTCHAR 0697
ENCODING 1687
SWIDTH 360 0
DWIDTH 6 0
BBX 5 13 1 -3
BITMAP
58
00
00
30
30
30
30
30
30
30
30
30
E0
ENDCHAR
STARTCHAR 0698
ENCODING 1688
SWIDTH 300 0
DWIDTH 5 0
BBX 5 15 1 -2
BITMAP
30
00
58
00
00
30
30
30
30
30
30
30
30
30
E0
ENDCHAR
STARTCHAR 0699
ENCODING 1689
SWIDTH 360 0
DWIDTH 6 0
BBX 5 16 1 -3
BITMAP
48
78
00
78
00
00
30
30
30
30
30
30
30
30
30
E0
ENDCHAR
STARTCHAR 069A
ENCODING 1690
SWIDTH 960 0
DWIDTH 16 0
BBX 15 13 1 -3
BITMAP
0030
0000
0000
0022
0122
0122
8122
8122
8126
81FC
8100
C230
7C30
ENDCHAR
STARTCHAR 069B
ENCODING 1691
SWIDTH 960 0
DWIDTH 16 0
BBX 15 12 1 -5
BITMAP
0022
0122
0122
8122
8122
8126
81FC
8100
C248
7C58
0020
0030
ENDCHAR
STARTCHAR 069C
ENCODING 1692
SWIDTH 960 0
DWIDTH 16 0
BBX 15 18 1 -5
BITMAP
0020
0030
0000
0058
0000
0000
0022
0122
0122
8122
8122
8126
81FC
8100
C248
7C58
0020
0030
ENDCHAR
STARTCHAR 069D
ENCODING 1693
SWIDTH 1140 0
DWIDTH 19 0
BBX 18 11 1 -3
BITMAP
000E00
043F80
046080
04C0C0
0480C0
0500C0
8500C0
87FFC0
840000
C43600
783600
ENDCHAR
STARTCHAR 069E
ENCODING 1694
SWIDTH 1140 0
DWIDTH 19 0
BBX 18 16 1 -3
BITMAP
000800
000800
000000
003600
000000
000E00
043F80
046080
04C0C0
0480C0
0500C0
8500C0
87FFC0
840000
C40000
780000
ENDCHAR
STARTCHAR 069F
ENCODING 1695
SWIDTH 840 0
DWIDTH 14 0
BBX 12 13 1 0
BITMAP
0100
0300
6000
6680
6000
61C0
67F0
6C10
7010
7010
6010
6010
FFF0
ENDCHAR
STARTCHAR 06A0
ENCODING 1696
SWIDTH 420 0
DWIDTH 7 0
BBX 6 16 1 -3
BITMAP
10
30
00
68
00
00
F8
C0
40
40
78
C0
80
80
CC
78
ENDCHAR
STARTCHAR 06A1
ENCODING 1697
SWIDTH 900 0
DWIDTH 15 0
BBX 14 8 1 0
BITMAP
0030
007C
80CC
808C
808C
808C
C04C
7FF8
ENDCHAR
STARTCHAR 06A2
ENCODING 1698
SWIDTH 900 0
DWIDTH 15 0
BBX 14 11 1 -3
BITMAP
0030
007C
80CC
808C
808C
808C
C04C
7FF8
0000
0030
0030
ENDCHAR
STARTCHAR 06A3
ENCODING 1699
SWIDTH 900 0
DWIDTH 15 0
BBX 14 13 1 -3
BITMAP
0030
0000
0030
007C
80CC
808C
808C
808C
C04C
7FF8
0000
0030
0030
ENDCHAR
STARTCHAR 06A4
ENCODING 1700
SWIDTH 900 0
DWIDTH 15 0
BBX 14 13 1 0
BITMAP
0010
0030
0000
0068
0000
0030
007C
80CC
808C
808C
808C
C04C
7FF8
ENDCHAR
STARTCHAR 06A5
ENCODING 1701
SWIDTH 900 0
DWIDTH 15 0
BBX 14 13 1 -5
BITMAP
0030
007C
80CC
808C
808C
808C
C04C
7FF8
0000
0068
0068
0010
0030
ENDCHAR
STARTCHAR 06A6
ENCODING 1702
SWIDTH 900 0
DWIDTH 15 0
BBX 14 13 1 0
BITMAP
0028
0068
0000
0078
0000
0030
007C
80CC
808C
808C
808C
C04C
7FF8
ENDCHAR
STARTCHAR 06A7
ENCODING 1703
SWIDTH 660 0
DWIDTH 11 0
BBX 10 13 1 -3
BITMAP
0300
0000
0300
07C0
4C40
C840
8840
8C40
8440
83C0
C040
6080
3F00
ENDCHAR
STARTCHAR 06A8
ENCODING 1704
SWIDTH 660 0
DWIDTH 11 0
BBX 10 16 1 -3
BITMAP
0100
0100
0000
06C0
0000
0300
07C0
4C40
C840
8840
8C40
8440
83C0
C040
6080
3F00
ENDCHAR
STARTCHAR 06A9
ENCODING 1705
SWIDTH 720 0
DWIDTH 12 0
BBX 11 11 1 0
BITMAP
0040
00C0
0180
0300
0600
8300
8100
8180
80C0
C040
7FE0
ENDCHAR
STARTCHAR 06AA
ENCODING 1706
SWIDTH 840 0
DWIDTH 14 0
BBX 13 8 1 0
BITMAP
0200
0E00
3000
3FE0
3FF0
0008
0018
FFF0
ENDCHAR
STARTCHAR 06AB
ENCODING 1707
SWIDTH 720 0
DWIDTH 12 0
BBX 11 11 1 0
BITMAP
0040
00C0
01C0
0340
06C0
8300
8100
8180
80C0
C040
7FE0
ENDCHAR
STARTCHAR 06AC
ENCODING 1708
SWIDTH 720 0
DWIDTH 12 0
BBX 10 14 1 0
BITMAP
0400
0400
0000
0040
0040
0040
0440
0840
8E40
8040
8040
8040
C040
7FC0
ENDCHAR
STARTCHAR 06AD
ENCODING 1709
SWIDTH 720 0
DWIDTH 12 0
BBX 10 14 1 0
BITMAP
0400
0400
1B00
1B40
0040
0040
0440
0840
8E40
8040
8040
8040
C040
7FC0
ENDCHAR
STARTCHAR 06AE
ENCODING 1710
SWIDTH 720 0
DWIDTH 12 0
BBX 10 16 1 -5
BITMAP
0040
0040
0040
0440
0840
8E40
8040
8040
8040
C040
7FC0
0000
1B00
1B00
0400
0400
ENDCHAR
STARTCHAR 06AF
ENCODING 1711
SWIDTH 720 0
DWIDTH 12 0
BBX 11 12 1 1
BITMAP
0180
0340
06C0
0D80
0300
0600
8300
8100
8180
80C0
C040
7FE0
ENDCHAR
STARTCHAR 06B0
ENCODING 1712
SWIDTH 720 0
DWIDTH 12 0
BBX 11 12 1 1
BITMAP
0180
0340
06C0
0DC0
0340
06C0
8300
8100
8180
80C0
C040
7FE0
ENDCHAR
STARTCHAR 06B1
ENCODING 1713
SWIDTH 720 0
DWIDTH 12 0
BBX 11 14 1 0
BITMAP
3600
3600
0180
0340
06C0
0D80
0300
0600
8300
8100
8180
80C0
C040
7FE0
ENDCHAR
STARTCHAR 06B2
ENCODING 1714
SWIDTH 720 0
DWIDTH 12 0
BBX 11 15 1 -2
BITMAP
0180
0340
06C0
0D80
0300
0600
8300
8100
8180
80C0
C040
7FE0
0000
0D00
0D00
ENDCHAR
STARTCHAR 06B3
ENCODING 1715
SWIDTH 720 0
DWIDTH 12 0
BBX 11 17 1 -4
BITMAP
0180
0340
06C0
0D80
0300
0600
8300
8100
8180
80C0
C040
7FE0
0000
0200
0200
0000
0600
ENDCHAR
STARTCHAR 06B4
ENCODING 1716
SWIDTH 780 0
DWIDTH 13 0
BBX 12 14 1 0
BITMAP
0600
0200
0900
0D40
00C0
0190
0320
0240
8080
8100
8180
80C0
C040
7FE0
ENDCHAR
STARTCHAR 06B5
ENCODING 1717
SWIDTH 480 0
DWIDTH 8 0
BBX 8 17 1 -3
BITMAP
11
0A
04
04
04
04
04
04
04
04
04
04
84
84
84
C4
78
ENDCHAR
STARTCHAR 06B6
ENCODING 1718
SWIDTH 480 0
DWIDTH 8 0
BBX 7 17 1 -3
BITMAP
04
06
00
04
04
04
04
04
04
04
04
04
84
84
84
C4
78
ENDCHAR
STARTCHAR 06B7
ENCODING 1719
SWIDTH 540 0
DWIDTH 9 0
BBX 8 17 1 -3
BITMAP
06
04
0B
0B
04
04
04
04
04
04
04
04
84
84
84
C4
78
ENDCHAR
STARTCHAR 06B8
ENCODING 1720
SWIDTH 480 0
DWIDTH 8 0
BBX 6 17 1 -7
BITMAP
04
04
04
04
04
04
04
04
C4
84
84
CC
78
00
68
00
30
ENDCHAR
STARTCHAR 06B9
ENCODING 1721
SWIDTH 720 0
DWIDTH 12 0
BBX 11 16 1 -6
BITMAP
0C00
0000
0000
0040
8060
8020
8020
8020
8060
8040
4040
6080
3F00
0000
0400
0C00
ENDCHAR
STARTCHAR 06BA
ENCODING 1722
SWIDTH 720 0
DWIDTH 12 0
BBX 11 10 1 -3
BITMAP
0040
8060
8020
8020
8020
8060
8040
4040
6080
3F00
ENDCHAR
STARTCHAR 06BB
ENCODING 1723
SWIDTH 720 0
DWIDTH 12 0
BBX 11 15 1 -3
BITMAP
1000
1600
1900
1F00
0000
0040
8060
8020
8020
8020
8060
8040
4040
6080
3F00
ENDCHAR
STARTCHAR 06BC
ENCODING 1724
SWIDTH 720 0
DWIDTH 12 0
BBX 11 15 1 -5
BITMAP
0C00
0000
0000
0040
8060
8020
8020
8020
8060
8040
4040
6080
3F00
0A00
0E00
ENDCHAR
STARTCHAR 06BD
ENCODING 1725
SWIDTH 720 0
DWIDTH 12 0
BBX 11 16 1 -3
BITMAP
0400
0C00
0000
1B00
0000
0000
0040
8060
8020
8020
8020
8060
8040
4040
6080
3F00
ENDCHAR
STARTCHAR 06BE
ENCODING 1726
SWIDTH 480 0
DWIDTH 8 0
BBX 7 8 1 0
BITMAP
10
7C
44
3E
6E
4E
6C
F8
ENDCHAR
STARTCHAR 06BF
ENCODING 1727
SWIDTH 540 0
DWIDTH 9 0
BBX 8 15 1 -5
BITMAP
18
00
00
00
FF
60
40
80
80
A4
B6
80
59
62
3C
ENDCHAR
STARTCHAR 06C0
ENCODING 1728
SWIDTH 480 0
DWIDTH 8 0
BBX 6 11 1 0
BITMAP
30
20
30
30
78
C4
84
84
84
CC
78
ENDCHAR
STARTCHAR 06C1
ENCODING 1729
SWIDTH 480 0
DWIDTH 8 0
BBX 6 8 1 0
BITMAP
30
78
C4
84
84
84
CC
78
ENDCHAR
STARTCHAR 06C2
ENCODING 1730
SWIDTH 480 0
DWIDTH 8 0
BBX 6 11 1 0
BITMAP
30
20
30
30
78
C4
84
84
84
CC
78
ENDCHAR
STARTCHAR 06C3
ENCODING 1731
SWIDTH 480 0
DWIDTH 8 0
BBX 6 10 1 0
BITMAP
68
00
30
78
C4
84
84
84
CC
78
ENDCHAR
STARTCHAR 06C4
ENCODING 1732
SWIDTH 420 0
DWIDTH 7 0
BBX 6 11 1 -3
BITMAP
30
78
CC
8C
8C
8C
CC
7C
3C
D8
F8
ENDCHAR
STARTCHAR 06C5
ENCODING 1733
SWIDTH 420 0
DWIDTH 7 0
BBX 6 13 1 -5
BITMAP
30
78
CC
8C
8C
8C
CC
7C
0C
7C
8C
88
78
ENDCHAR
STARTCHAR 06C6
ENCODING 1734
SWIDTH 420 0
DWIDTH 7 0
BBX 6 14 1 -3
BITMAP
4C
38
10
30
78
CC
8C
8C
8C
CC
7C
0C
88
F8
ENDCHAR
STARTCHAR 06C7
ENCODING 1735
SWIDTH 420 0
DWIDTH 7 0
BBX 6 15 1 -2
BITMAP
30
10
10
20
30
78
CC
8C
8C
8C
CC
7C
0C
88
F8
ENDCHAR
STARTCHAR 06C8
ENCODING 1736
SWIDTH 420 0
DWIDTH 7 0
BBX 6 15 1 -3
BITMAP
20
20
20
00
30
78
CC
8C
8C
8C
CC
7C
0C
88
F8
ENDCHAR
STARTCHAR 06C9
ENCODING 1737
SWIDTH 420 0
DWIDTH 7 0
BBX 6 14 1 -3
BITMAP
30
68
40
30
78
CC
8C
8C
8C
CC
7C
0C
88
F8
ENDCHAR
STARTCHAR 06CA
ENCODING 1738
SWIDTH 420 0
DWIDTH 7 0
BBX 6 13 1 -3
BITMAP
68
00
30
78
CC
8C
8C
8C
CC
7C
0C
88
F8
ENDCHAR
STARTCHAR 06CB
ENCODING 1739
SWIDTH 420 0
DWIDTH 7 0
BBX 6 16 1 -3
BITMAP
10
30
00
68
00
30
78
CC
8C
8C
8C
CC
7C
0C
88
F8
ENDCHAR
STARTCHAR 06CC
ENCODING 1740
SWIDTH 780 0
DWIDTH 13 0
BBX 11 10 1 -3
BITMAP
07C0
0460
0420
0420
0420
8420
8420
8400
C400
7800
ENDCHAR
STARTCHAR 06CD
ENCODING 1741
SWIDTH 840 0
DWIDTH 14 0
BBX 13 10 1 -3
BITMAP
01F0
0110
0118
0108
0108
E108
6108
6100
2300
3E00
ENDCHAR
STARTCHAR 06CE
ENCODING 1742
SWIDTH 780 0
DWIDTH 13 0
BBX 11 14 1 -3
BITMAP
1100
0A00
0400
0000
07C0
0460
0420
0420
0420
8420
8420
8400
C400
7800
ENDCHAR
STARTCHAR 06CF
ENCODING 1743
SWIDTH 420 0
DWIDTH 7 0
BBX 6 13 1 -3
BITMAP
30
00
30
78
CC
8C
8C
8C
CC
7C
0C
88
F8
ENDCHAR
STARTCHAR 06D0
ENCODING 1744
SWIDTH 780 0
DWIDTH 13 0
BBX 11 13 1 -7
BITMAP
07C0
0460
0420
0420
0420
8420
8420
8400
C400
7900
0180
0000
0180
ENDCHAR
STARTCHAR 06D1
ENCODING 1745
SWIDTH 780 0
DWIDTH 13 0
BBX 11 13 1 -7
BITMAP
07C0
0460
0420
0420
0420
8420
8420
8400
C400
7800
02C0
0000
0180
ENDCHAR
STARTCHAR 06D2
ENCODING 1746
SWIDTH 780 0
DWIDTH 13 0
BBX 11 8 1 0
BITMAP
0600
1E00
3000
6000
4000
8000
8000
FFE0
ENDCHAR
STARTCHAR 06D3
ENCODING 1747
SWIDTH 780 0
DWIDTH 13 0
BBX 11 11 1 0
BITMAP
1800
2000
3800
0600
1E00
3000
6000
4000
8000
8000
FFE0
ENDCHAR
STARTCHAR 06D4
ENCODING 1748
SWIDTH 240 0
DWIDTH 4 0
BBX 2 1 1 0
BITMAP
C0
ENDCHAR
STARTCHAR 06D5
ENCODING 1749
SWIDTH 480 0
DWIDTH 8 0
BBX 6 8 1 0
BITMAP
30
78
C4
84
84
84
CC
78
ENDCHAR
STARTCHAR 06D8
ENCODING 1752
SWIDTH 0 0
DWIDTH 0 0
BBX 5 4 -3 8
BITMAP
78
48
48
F0
ENDCHAR
STARTCHAR 06D9
ENCODING 1753
SWIDTH 0 0
DWIDTH 0 0
BBX 4 6 -2 8
BITMAP
90
90
50
50
30
F0
ENDCHAR
STARTCHAR 06DA
ENCODING 1754
SWIDTH 0 0
DWIDTH 0 0
BBX 4 6 -2 8
BITMAP
F0
80
80
A0
90
60
ENDCHAR
STARTCHAR 06DB
ENCODING 1755
SWIDTH 0 0
DWIDTH 0 0
BBX 2 1 -1 9
BITMAP
C0
ENDCHAR
STARTCHAR 06DC
ENCODING 1756
SWIDTH 0 0
DWIDTH 0 0
BBX 8 6 -4 8
BITMAP
01
05
95
8F
90
60
ENDCHAR
STARTCHAR 06DF
ENCODING 1759
SWIDTH 0 0
DWIDTH 0 0
BBX 4 4 -2 8
BITMAP
60
90
90
60
ENDCHAR
STARTCHAR 06E0
ENCODING 1760
SWIDTH 0 0
DWIDTH 0 0
BBX 4 5 -2 8
BITMAP
60
90
90
90
60
ENDCHAR
STARTCHAR 06E1
ENCODING 1761
SWIDTH 0 0
DWIDTH 0 0
BBX 4 4 -2 8
BITMAP
C0
20
10
F0
ENDCHAR
STARTCHAR 06E2
ENCODING 1762
SWIDTH 0 0
DWIDTH 0 0
BBX 4 5 -2 7
BITMAP
F0
90
90
E0
80
ENDCHAR
STARTCHAR 06E3
ENCODING 1763
SWIDTH 0 0
DWIDTH 0 0
BBX 8 5 -4 -7
BITMAP
05
95
95
8E
D0
ENDCHAR
STARTCHAR 06E4
ENCODING 1764
SWIDTH 0 0
DWIDTH 0 0
BBX 4 2 -2 8
BITMAP
50
A0
ENDCHAR
STARTCHAR 06E5
ENCODING 1765
SWIDTH 240 0
DWIDTH 4 0
BBX 3 6 1 -2
BITMAP
60
A0
A0
60
A0
40
ENDCHAR
STARTCHAR 06E6
ENCODING 1766
SWIDTH 420 0
DWIDTH 7 0
BBX 6 4 1 0
BITMAP
30
40
80
FC
ENDCHAR
STARTCHAR 06E7
ENCODING 1767
SWIDTH 0 0
DWIDTH 0 0
BBX 6 4 -3 8
BITMAP
30
40
80
FC
ENDCHAR
STARTCHAR 06E8
ENCODING 1768
SWIDTH 0 0
DWIDTH 0 0
BBX 6 6 -3 8
BITMAP
34
84
84
84
48
30
ENDCHAR
STARTCHAR 06EA
ENCODING 1770
SWIDTH 0 0
DWIDTH 0 0
BBX 4 3 -2 -5
BITMAP
60
90
60
ENDCHAR
STARTCHAR 06EB
ENCODING 1771
SWIDTH 0 0
DWIDTH 0 0
BBX 2 2 -1 9
BITMAP
C0
C0
ENDCHAR
STARTCHAR 06EC
ENCODING 1772
SWIDTH 0 0
DWIDTH 0 0
BBX 2 3 -1 8
BITMAP
C0
C0
C0
ENDCHAR
STARTCHAR 06ED
ENCODING 1773
SWIDTH 0 0
DWIDTH 0 0
BBX 4 5 -2 -6
BITMAP
F0
90
90
E0
80
ENDCHAR
STARTCHAR 06EE
ENCODING 1774
SWIDTH 480 0
DWIDTH 8 0
BBX 6 11 1 0
BITMAP
30
68
40
00
08
0C
04
04
04
84
7C
ENDCHAR
STARTCHAR 06EF
ENCODING 1775
SWIDTH 360 0
DWIDTH 6 0
BBX 5 14 1 -3
BITMAP
30
78
48
00
30
30
30
30
30
30
30
30
30
E0
ENDCHAR
STARTCHAR 06F0
ENCODING 1776
SWIDTH 300 0
DWIDTH 5 0
BBX 3 3 1 4
BITMAP
40
E0
60
ENDCHAR
STARTCHAR 06F1
ENCODING 1777
SWIDTH 120 0
DWIDTH 2 0
BBX 1 11 1 0
BITMAP
80
80
80
80
80
80
80
80
80
80
80
ENDCHAR
STARTCHAR 06F2
ENCODING 1778
SWIDTH 360 0
DWIDTH 6 0
BBX 5 11 1 0
BITMAP
F8
80
80
80
80
80
80
80
80
80
80
ENDCHAR
STARTCHAR 06F3
ENCODING 1779
SWIDTH 480 0
DWIDTH 8 0
BBX 7 11 1 0
BITMAP
92
92
96
FC
80
80
80
80
80
80
80
ENDCHAR
STARTCHAR 06F4
ENCODING 1780
SWIDTH 420 0
DWIDTH 7 0
BBX 5 11 1 0
BITMAP
F8
C8
80
80
E8
B8
80
80
80
80
80
ENDCHAR
STARTCHAR 06F5
ENCODING 1781
SWIDTH 480 0
DWIDTH 8 0
BBX 7 11 1 0
BITMAP
30
68
44
84
86
86
82
96
96
B4
6C
ENDCHAR
STARTCHAR 06F6
ENCODING 1782
SWIDTH 480 0
DWIDTH 8 0
BBX 6 11 1 0
BITMAP
3C
60
C0
C0
40
78
10
30
20
40
C0
ENDCHAR
STARTCHAR 06F7
ENCODING 1783
SWIDTH 600 0
DWIDTH 10 0
BBX 9 11 1 0
BITMAP
8080
C100
4100
4300
6200
2200
2600
3400
1400
1C00
0800
ENDCHAR
STARTCHAR 06F8
ENCODING 1784
SWIDTH 600 0
DWIDTH 10 0
BBX 9 11 1 0
BITMAP
0800
1800
1400
1400
2600
2200
6200
4300
4100
C100
8180
ENDCHAR
STARTCHAR 06F9
ENCODING 1785
SWIDTH 420 0
DWIDTH 7 0
BBX 6 11 1 0
BITMAP
70
C8
84
84
C4
7C
04
04
04
04
04
ENDCHAR
STARTCHAR 06FA
ENCODING 1786
SWIDTH 960 0
DWIDTH 16 0
BBX 15 16 1 -3
BITMAP
0020
0030
0000
0058
0000
0000
0022
0122
0122
8122
8122
8126
81FC
8100
C230
7C30
ENDCHAR
STARTCHAR 06FB
ENCODING 1787
SWIDTH 1140 0
DWIDTH 19 0
BBX 18 13 1 -3
BITMAP
000800
000000
000E00
043F80
046080
04C0C0
0480C0
0500C0
8500C0
87FFC0
840000
C40800
780800
ENDCHAR
STARTCHAR 06FC
ENCODING 1788
SWIDTH 420 0
DWIDTH 7 0
BBX 6 13 1 -3
BITMAP
30
00
00
F8
C0
40
40
78
C0
B0
B0
CC
78
ENDCHAR
STARTCHAR 06FD
ENCODING 1789
SWIDTH 480 0
DWIDTH 8 0
BBX 7 13 1 -5
BITMAP
18
3C
46
40
40
40
60
FE
00
28
28
28
28
ENDCHAR
STARTCHAR 06FE
ENCODING 1790
SWIDTH 540 0
DWIDTH 9 0
BBX 8 13 1 -5
BITMAP
18
7C
C2
83
83
82
46
7C
C0
A8
A8
28
28
ENDCHAR
STARTCHAR 06FF
ENCODING 1791
SWIDTH 480 0
DWIDTH 8 0
BBX 7 11 1 0
BITMAP
10
28
44
10
7C
44
3E
6E
4E
6C
F8
ENDCHAR
STARTCHAR 0750
ENCODING 1872
SWIDTH 720 0
DWIDTH 12 0
BBX 10 10 1 -3
BITMAP
0040
8040
8040
8040
8040
C040
7FC0
0000
2480
3480
ENDCHAR
STARTCHAR 0751
ENCODING 1873
SWIDTH 720 0
DWIDTH 12 0
BBX 10 16 1 -3
BITMAP
0400
0400
0000
1B00
0000
0000
0040
8040
8040
8040
8040
C040
7FC0
0000
0400
0400
ENDCHAR
STARTCHAR 0752
ENCODING 1874
SWIDTH 720 0
DWIDTH 12 0
BBX 10 12 1 -5
BITMAP
0040
8040
8040
8040
8040
C040
7FC0
0000
0400
0400
0A00
1B00
ENDCHAR
STARTCHAR 0753
ENCODING 1875
SWIDTH 720 0
DWIDTH 12 0
BBX 10 15 1 -5
BITMAP
1B00
0000
0000
0040
8040
8040
8040
8040
C040
7FC0
0000
0400
0400
0A00
1B00
ENDCHAR
STARTCHAR 0754
ENCODING 1876
SWIDTH 720 0
DWIDTH 12 0
BBX 10 13 1 -3
BITMAP
0400
0000
0000
0040
8040
8040
8040
8040
C040
7FC0
0000
1B00
1B00
ENDCHAR
STARTCHAR 0755
ENCODING 1877
SWIDTH 720 0
DWIDTH 12 0
BBX 10 11 1 -4
BITMAP
0040
8040
8040
8040
8040
C040
7FC0
0000
0400
0A00
1100
ENDCHAR
STARTCHAR 0756
ENCODING 1878
SWIDTH 720 0
DWIDTH 12 0
BBX 10 11 1 0
BITMAP
1100
0A00
0400
0000
0040
8040
8040
8040
8040
C040
7FC0
ENDCHAR
STARTCHAR 0757
ENCODING 1879
SWIDTH 540 0
DWIDTH 9 0
BBX 8 15 1 -5
BITMAP
36
00
00
00
FF
60
40
80
80
80
80
80
41
62
3C
ENDCHAR
STARTCHAR 0758
ENCODING 1880
SWIDTH 540 0
DWIDTH 9 0
BBX 8 11 1 -5
BITMAP
FF
60
40
80
88
98
84
B6
41
62
3C
ENDCHAR
STARTCHAR 0759
ENCODING 1881
SWIDTH 480 0
DWIDTH 8 0
BBX 6 17 1 -5
BITMAP
40
78
68
78
00
08
0C
04
04
04
84
7C
00
30
30
00
30
ENDCHAR
STARTCHAR 075A
ENCODING 1882
SWIDTH 480 0
DWIDTH 8 0
BBX 6 10 1 -3
BITMAP
08
0C
04
04
04
84
7C
00
30
48
ENDCHAR
STARTCHAR 075B
ENCODING 1883
SWIDTH 360 0
DWIDTH 6 0
BBX 5 10 1 -3
BITMAP
30
30
30
78
30
30
30
30
30
E0
ENDCHAR
STARTCHAR 075C
ENCODING 1884
SWIDTH 960 0
DWIDTH 16 0
BBX 15 16 1 -3
BITMAP
0058
0078
0000
0078
0000
0000
0022
0122
0122
8122
8122
8126
81FC
8100
C200
7C00
ENDCHAR
STARTCHAR 075D
ENCODING 1885
SWIDTH 420 0
DWIDTH 7 0
BBX 6 13 1 -3
BITMAP
68
00
00
F8
C0
40
40
78
C0
80
80
CC
78
ENDCHAR
STARTCHAR 075E
ENCODING 1886
SWIDTH 420 0
DWIDTH 7 0
BBX 6 16 1 -3
BITMAP
48
68
00
30
00
00
F8
C0
40
40
78
C0
80
80
CC
78
ENDCHAR
STARTCHAR 075F
ENCODING 1887
SWIDTH 420 0
DWIDTH 7 0
BBX 6 16 1 -3
BITMAP
30
30
00
30
00
00
F8
C0
40
40
78
C0
80
80
CC
78
ENDCHAR
STARTCHAR 0760
ENCODING 1888
SWIDTH 900 0
DWIDTH 15 0
BBX 14 11 1 -3
BITMAP
0030
007C
80CC
808C
808C
808C
C04C
7FF8
0000
0068
0068
ENDCHAR
STARTCHAR 0761
ENCODING 1889
SWIDTH 900 0
DWIDTH 15 0
BBX 14 13 1 -5
BITMAP
0030
007C
80CC
808C
808C
808C
C04C
7FF8
0000
0010
0030
0048
0068
ENDCHAR
STARTCHAR 0762
ENCODING 1890
SWIDTH 720 0
DWIDTH 12 0
BBX 11 14 1 0
BITMAP
0200
0600
0000
0040
00C0
0180
0300
0600
8300
8100
8180
80C0
C040
7FE0
ENDCHAR
STARTCHAR 0763
ENCODING 1891
SWIDTH 720 0
DWIDTH 12 0
BBX 11 14 1 0
BITMAP
0600
0600
0900
0940
00C0
0180
0300
0600
8300
8100
8180
80C0
C040
7FE0
ENDCHAR
STARTCHAR 0764
ENCODING 1892
SWIDTH 720 0
DWIDTH 12 0
BBX 11 16 1 -5
BITMAP
0040
00C0
0180
0300
0600
8300
8100
8180
80C0
C040
7FE0
0000
0200
0200
0900
0D80
ENDCHAR
STARTCHAR 0765
ENCODING 1893
SWIDTH 540 0
DWIDTH 9 0
BBX 8 13 1 -4
BITMAP
18
00
18
7C
C2
83
83
82
46
7C
C0
80
80
ENDCHAR
STARTCHAR 0766
ENCODING 1894
SWIDTH 540 0
DWIDTH 9 0
BBX 8 11 1 -4
BITMAP
18
7C
C2
83
83
82
46
7C
C0
90
90
ENDCHAR
STARTCHAR 0767
ENCODING 1895
SWIDTH 720 0
DWIDTH 12 0
BBX 11 16 1 -6
BITMAP
0C00
0000
0000
0040
8060
8020
8020
8020
8060
8040
4040
6080
3F00
0000
0200
1B00
ENDCHAR
STARTCHAR 0768
ENCODING 1896
SWIDTH 720 0
DWIDTH 12 0
BBX 11 17 1 -3
BITMAP
1000
1600
1900
1F00
0400
0C00
0000
0040
8060
8020
8020
8020
8060
8040
4040
6080
3F00
ENDCHAR
STARTCHAR 0769
ENCODING 1897
SWIDTH 720 0
DWIDTH 12 0
BBX 11 17 1 -3
BITMAP
1100
0A00
0400
0000
0C00
0000
0000
0040
8060
8020
8020
8020
8060
8040
4040
6080
3F00
ENDCHAR
STARTCHAR 076A
ENCODING 1898
SWIDTH 540 0
DWIDTH 9 0
BBX 8 14 1 -3
BITMAP
04
04
04
04
04
0F
04
04
04
84
84
84
C4
78
ENDCHAR
STARTCHAR 076B
ENCODING 1899
SWIDTH 300 0
DWIDTH 5 0
BBX 4 16 1 -3
BITMAP
30
30
00
30
00
00
30
30
30
30
30
30
30
30
30
E0
ENDCHAR
STARTCHAR 076C
ENCODING 1900
SWIDTH 300 0
DWIDTH 5 0
BBX 4 14 1 -3
BITMAP
30
20
30
00
30
30
30
30
30
30
30
30
30
E0
ENDCHAR
STARTCHAR 076D
ENCODING 1901
SWIDTH 960 0
DWIDTH 16 0
BBX 15 16 1 -3
BITMAP
0030
0030
0000
0030
0000
0000
0022
0122
0122
8122
8122
8126
81FC
8100
C200
7C00
ENDCHAR
STARTCHAR 076E
ENCODING 1902
SWIDTH 540 0
DWIDTH 9 0
BBX 8 11 1 -5
BITMAP
FF
60
40
80
A0
AC
B2
BE
41
62
3C
ENDCHAR
STARTCHAR 076F
ENCODING 1903
SWIDTH 540 0
DWIDTH 9 0
BBX 8 11 1 -5
BITMAP
FF
60
40
A0
AC
B2
BE
B4
75
62
3C
ENDCHAR
STARTCHAR 0770
ENCODING 1904
SWIDTH 960 0
DWIDTH 16 0
BBX 15 17 1 -3
BITMAP
0040
0078
0048
00F8
0000
0058
0000
0022
0122
0122
8122
8122
8126
81FC
8100
C200
7C00
ENDCHAR
STARTCHAR 0771
ENCODING 1905
SWIDTH 360 0
DWIDTH 6 0
BBX 5 17 1 -3
BITMAP
40
78
68
78
48
58
00
30
30
30
30
30
30
30
30
30
E0
ENDCHAR
STARTCHAR 0772
ENCODING 1906
SWIDTH 540 0
DWIDTH 9 0
BBX 8 17 1 -5
BITMAP
20
2C
32
3E
00
00
FF
60
40
80
80
80
80
80
41
62
3C
ENDCHAR
STARTCHAR 0773
ENCODING 1907
SWIDTH 240 0
DWIDTH 4 0
BBX 3 14 1 0
BITMAP
E0
80
80
E0
E0
E0
60
60
60
60
60
60
60
60
ENDCHAR
STARTCHAR 0774
ENCODING 1908
SWIDTH 240 0
DWIDTH 4 0
BBX 4 14 1 0
BITMAP
D0
E0
80
E0
E0
E0
60
60
60
60
60
60
60
60
ENDCHAR
STARTCHAR 0775
ENCODING 1909
SWIDTH 780 0
DWIDTH 13 0
BBX 11 13 1 -3
BITMAP
6000
8000
8000
87C0
8460
0420
0420
0420
8420
8420
8400
C400
7800
ENDCHAR
STARTCHAR 0776
ENCODING 1910
SWIDTH 780 0
DWIDTH 13 0
BBX 11 13 1 -3
BITMAP
3000
B000
7000
87C0
8460
0420
0420
0420
8420
8420
8400
C400
7800
ENDCHAR
STARTCHAR 0777
ENCODING 1911
SWIDTH 780 0
DWIDTH 13 0
BBX 11 14 1 -7
BITMAP
07C0
0460
0420
0420
0420
8420
8420
8400
C5C0
7A80
0200
0200
0200
0200
ENDCHAR
STARTCHAR 0778
ENCODING 1912
SWIDTH 420 0
DWIDTH 7 0
BBX 6 16 1 -3
BITMAP
E0
80
80
80
80
B0
78
CC
8C
8C
8C
CC
7C
0C
88
F8
ENDCHAR
STARTCHAR 0779
ENCODING 1913
SWIDTH 420 0
DWIDTH 7 0
BBX 6 16 1 -3
BITMAP
D0
E0
80
80
80
B0
78
CC
8C
8C
8C
CC
7C
0C
88
F8
ENDCHAR
STARTCHAR 077A
ENCODING 1914
SWIDTH 780 0
DWIDTH 13 0
BBX 11 13 1 0
BITMAP
6000
4000
4000
4000
4000
4600
1E00
3000
6000
4000
8000
8000
FFE0
ENDCHAR
STARTCHAR 077B
ENCODING 1915
SWIDTH 780 0
DWIDTH 13 0
BBX 11 13 1 0
BITMAP
7000
7000
4000
4000
4000
4600
1E00
3000
6000
4000
8000
8000
FFE0
ENDCHAR
STARTCHAR 077C
ENCODING 1916
SWIDTH 540 0
DWIDTH 9 0
BBX 8 11 1 -5
BITMAP
FF
60
40
9E
94
90
90
90
51
62
3C
ENDCHAR
STARTCHAR 077D
ENCODING 1917
SWIDTH 960 0
DWIDTH 16 0
BBX 15 16 1 -3
BITMAP
0078
0050
0040
0040
0040
0040
0022
0122
0122
8122
8122
8126
81FC
8100
C200
7C00
ENDCHAR
STARTCHAR 077E
ENCODING 1918
SWIDTH 960 0
DWIDTH 16 0
BBX 15 14 1 -3
BITMAP
0020
0050
0008
0000
0022
0122
0122
8122
8122
8126
81FC
8100
C200
7C00
ENDCHAR
STARTCHAR 077F
ENCODING 1919
SWIDTH 720 0
DWIDTH 12 0
BBX 10 14 1 0
BITMAP
0A00
1B00
0000
0040
0040
0040
0440
0840
8E40
8040
8040
8040
C040
7FC0
ENDCHAR
STARTCHAR 0870
ENCODING 2160
SWIDTH 240 0
DWIDTH 4 0
BBX 4 12 0 0
BITMAP
30
E0
20
20
20
20
20
20
20
20
20
20
ENDCHAR
STARTCHAR 0871
ENCODING 2161
SWIDTH 300 0
DWIDTH 5 0
BBX 4 12 1 0
BITMAP
30
C0
80
80
80
80
80
80
80
80
80
80
ENDCHAR
STARTCHAR 0872
ENCODING 2162
SWIDTH 300 0
DWIDTH 5 0
BBX 3 11 1 0
BITMAP
80
80
80
80
80
E0
80
80
80
80
80
ENDCHAR
STARTCHAR 0873
ENCODING 2163
SWIDTH 300 0
DWIDTH 5 0
BBX 4 11 1 0
BITMAP
10
10
10
10
10
70
90
10
10
10
10
ENDCHAR
ENDFONT
